<svg width="340" height="378" viewBox="0 0 340 378" fill="none" xmlns="http://www.w3.org/2000/svg">
<rect width="340" height="378" fill="#E5E5E5"/>
<rect width="340" height="378" fill="#4AC08F" fill-opacity="0.59"/>
<path d="M23.2129 13.7617C23.2129 13.4297 23.0957 13.1758 22.8613 13C22.627 12.8203 22.2051 12.6328 21.5957 12.4375C20.9863 12.2383 20.5039 12.043 20.1484 11.8516C19.1797 11.3281 18.6953 10.623 18.6953 9.73633C18.6953 9.27539 18.8242 8.86523 19.082 8.50586C19.3438 8.14258 19.7168 7.85938 20.2012 7.65625C20.6895 7.45312 21.2363 7.35156 21.8418 7.35156C22.4512 7.35156 22.9941 7.46289 23.4707 7.68555C23.9473 7.9043 24.3164 8.21484 24.5781 8.61719C24.8438 9.01953 24.9766 9.47656 24.9766 9.98828H23.2188C23.2188 9.59766 23.0957 9.29492 22.8496 9.08008C22.6035 8.86133 22.2578 8.75195 21.8125 8.75195C21.3828 8.75195 21.0488 8.84375 20.8105 9.02734C20.5723 9.20703 20.4531 9.44531 20.4531 9.74219C20.4531 10.0195 20.5918 10.252 20.8691 10.4395C21.1504 10.627 21.5625 10.8027 22.1055 10.9668C23.1055 11.2676 23.834 11.6406 24.291 12.0859C24.748 12.5312 24.9766 13.0859 24.9766 13.75C24.9766 14.4883 24.6973 15.0684 24.1387 15.4902C23.5801 15.9082 22.8281 16.1172 21.8828 16.1172C21.2266 16.1172 20.6289 15.998 20.0898 15.7598C19.5508 15.5176 19.1387 15.1875 18.8535 14.7695C18.5723 14.3516 18.4316 13.8672 18.4316 13.3164H20.1953C20.1953 14.2578 20.7578 14.7285 21.8828 14.7285C22.3008 14.7285 22.627 14.6445 22.8613 14.4766C23.0957 14.3047 23.2129 14.0664 23.2129 13.7617ZM31.3047 12.3027H27.9297V14.5879H31.8906V16H26.1719V7.46875H31.8789V8.89258H27.9297V10.9258H31.3047V12.3027ZM36.0801 12.877H34.6797V16H32.9219V7.46875H36.0918C37.0996 7.46875 37.877 7.69336 38.4238 8.14258C38.9707 8.5918 39.2441 9.22656 39.2441 10.0469C39.2441 10.6289 39.1172 11.1152 38.8633 11.5059C38.6133 11.8926 38.2324 12.2012 37.7207 12.4316L39.5664 15.918V16H37.6797L36.0801 12.877ZM34.6797 11.4531H36.0977C36.5391 11.4531 36.8809 11.3418 37.123 11.1191C37.3652 10.8926 37.4863 10.582 37.4863 10.1875C37.4863 9.78516 37.3711 9.46875 37.1406 9.23828C36.9141 9.00781 36.5645 8.89258 36.0918 8.89258H34.6797V11.4531ZM43.6211 13.8848L45.5547 7.46875H47.5117L44.541 16H42.707L39.748 7.46875H41.6992L43.6211 13.8848ZM53.4531 12.3027H50.0781V14.5879H54.0391V16H48.3203V7.46875H54.0273V8.89258H50.0781V10.9258H53.4531V12.3027ZM58.2285 12.877H56.8281V16H55.0703V7.46875H58.2402C59.248 7.46875 60.0254 7.69336 60.5723 8.14258C61.1191 8.5918 61.3926 9.22656 61.3926 10.0469C61.3926 10.6289 61.2656 11.1152 61.0117 11.5059C60.7617 11.8926 60.3809 12.2012 59.8691 12.4316L61.7148 15.918V16H59.8281L58.2285 12.877ZM56.8281 11.4531H58.2461C58.6875 11.4531 59.0293 11.3418 59.2715 11.1191C59.5137 10.8926 59.6348 10.582 59.6348 10.1875C59.6348 9.78516 59.5195 9.46875 59.2891 9.23828C59.0625 9.00781 58.7129 8.89258 58.2402 8.89258H56.8281V11.4531Z" fill="black"/>
<path d="M21.6289 140.469L23.8203 146.656L26 140.469H28.3086V149H26.5449V146.668L26.7207 142.643L24.418 149H23.2109L20.9141 142.648L21.0898 146.668V149H19.332V140.469H21.6289ZM34.9766 145.303H31.6016V147.588H35.5625V149H29.8438V140.469H35.5508V141.893H31.6016V143.926H34.9766V145.303ZM38.8906 140.469L41.082 146.656L43.2617 140.469H45.5703V149H43.8066V146.668L43.9824 142.643L41.6797 149H40.4727L38.1758 142.648L38.3516 146.668V149H36.5938V140.469H38.8906ZM54.1133 144.928C54.1133 145.768 53.9648 146.504 53.668 147.137C53.3711 147.77 52.9453 148.258 52.3906 148.602C51.8398 148.945 51.207 149.117 50.4922 149.117C49.7852 149.117 49.1543 148.947 48.5996 148.607C48.0449 148.268 47.6152 147.783 47.3105 147.154C47.0059 146.521 46.8516 145.795 46.8477 144.975V144.553C46.8477 143.713 46.998 142.975 47.2988 142.338C47.6035 141.697 48.0312 141.207 48.582 140.867C49.1367 140.523 49.7695 140.352 50.4805 140.352C51.1914 140.352 51.8223 140.523 52.373 140.867C52.9277 141.207 53.3555 141.697 53.6562 142.338C53.9609 142.975 54.1133 143.711 54.1133 144.547V144.928ZM52.332 144.541C52.332 143.646 52.1719 142.967 51.8516 142.502C51.5312 142.037 51.0742 141.805 50.4805 141.805C49.8906 141.805 49.4355 142.035 49.1152 142.496C48.7949 142.953 48.6328 143.625 48.6289 144.512V144.928C48.6289 145.799 48.7891 146.475 49.1094 146.955C49.4297 147.436 49.8906 147.676 50.4922 147.676C51.082 147.676 51.5352 147.445 51.8516 146.984C52.168 146.52 52.3281 145.844 52.332 144.957V144.541ZM58.5488 145.877H57.1484V149H55.3906V140.469H58.5605C59.5684 140.469 60.3457 140.693 60.8926 141.143C61.4395 141.592 61.7129 142.227 61.7129 143.047C61.7129 143.629 61.5859 144.115 61.332 144.506C61.082 144.893 60.7012 145.201 60.1895 145.432L62.0352 148.918V149H60.1484L58.5488 145.877ZM57.1484 144.453H58.5664C59.0078 144.453 59.3496 144.342 59.5918 144.119C59.834 143.893 59.9551 143.582 59.9551 143.188C59.9551 142.785 59.8398 142.469 59.6094 142.238C59.3828 142.008 59.0332 141.893 58.5605 141.893H57.1484V144.453ZM65.7148 144.312L67.4902 140.469H69.4121L66.6113 145.906V149H64.8242V145.906L62.0234 140.469H63.9512L65.7148 144.312Z" fill="black"/>
<path d="M22 95H77V130H22V95Z" fill="#C3E4EF"/>
<path d="M22 95H77V130H22V95Z" fill="#C3E4EF"/>
<rect x="260" y="95" width="54" height="35" fill="#C3E4EF"/>
<rect x="181" y="95" width="54" height="35" fill="#C3E4EF"/>
<rect x="102" y="95" width="54" height="35" fill="#C3E4EF"/>
<path d="M28.9902 98.125L28.7207 99.6602H29.875L29.7285 100.498H28.5801L27.918 104.441C27.9062 104.543 27.9043 104.637 27.9121 104.723C27.9395 105.027 28.1055 105.18 28.4102 105.18C28.5391 105.18 28.7109 105.16 28.9258 105.121L28.8438 106.006C28.5898 106.076 28.332 106.111 28.0703 106.111C27.6484 106.104 27.332 105.949 27.1211 105.648C26.9102 105.344 26.8281 104.936 26.875 104.424L27.5195 100.498H26.4004L26.5469 99.6602H27.666L27.9355 98.125H28.9902ZM31.2051 106H30.1504L31.252 99.6602H32.3066L31.2051 106ZM32.0781 97.3457C32.2578 97.3379 32.4062 97.3926 32.5234 97.5098C32.6445 97.623 32.7051 97.7734 32.7051 97.9609C32.7012 98.1445 32.6406 98.2949 32.5234 98.4121C32.4102 98.5293 32.2617 98.5918 32.0781 98.5996C31.8945 98.6074 31.7441 98.5547 31.627 98.4414C31.5098 98.3281 31.4531 98.1797 31.457 97.9961C31.4609 97.8125 31.5195 97.6602 31.6328 97.5391C31.7461 97.418 31.8945 97.3535 32.0781 97.3457ZM35.0312 99.6543L34.8965 100.363C35.4277 99.8008 36.0703 99.5273 36.8242 99.543C37.2266 99.5508 37.5664 99.6426 37.8438 99.8184C38.125 99.9941 38.3184 100.242 38.4238 100.562C39.0176 99.8672 39.7188 99.5273 40.5273 99.543C41.1602 99.5586 41.627 99.7715 41.9277 100.182C42.2285 100.592 42.3398 101.143 42.2617 101.834L41.5645 106H40.5098L41.2012 101.822C41.2246 101.619 41.2246 101.434 41.2012 101.266C41.127 100.734 40.7793 100.463 40.1582 100.451C39.7715 100.443 39.4199 100.564 39.1035 100.814C38.791 101.061 38.5898 101.385 38.5 101.787L37.7793 106H36.7129L37.416 101.828C37.4668 101.395 37.4004 101.061 37.2168 100.826C37.0371 100.592 36.7559 100.471 36.373 100.463C35.7129 100.447 35.1875 100.748 34.7969 101.365L33.9941 106H32.9336L34.0352 99.6602L35.0312 99.6543ZM45.9473 106.117C45.1582 106.102 44.541 105.811 44.0957 105.244C43.6504 104.678 43.4629 103.953 43.5332 103.07L43.5625 102.818C43.6289 102.189 43.8145 101.615 44.1191 101.096C44.4277 100.576 44.8027 100.186 45.2441 99.9238C45.6855 99.6582 46.1621 99.5312 46.6738 99.543C47.3262 99.5586 47.8379 99.7754 48.209 100.193C48.5801 100.611 48.7832 101.178 48.8184 101.893C48.8301 102.146 48.8223 102.4 48.7949 102.654L48.7305 103.141H44.5879C44.5176 103.715 44.6113 104.203 44.8691 104.605C45.1309 105.008 45.5195 105.217 46.0352 105.232C46.6602 105.248 47.2383 104.967 47.7695 104.389L48.3789 104.904C48.1133 105.287 47.7695 105.588 47.3477 105.807C46.9297 106.021 46.4629 106.125 45.9473 106.117ZM46.6211 100.428C46.1836 100.416 45.8008 100.564 45.4727 100.873C45.1484 101.182 44.8906 101.641 44.6992 102.25L47.7812 102.256L47.8047 102.162C47.8672 101.67 47.7871 101.262 47.5645 100.938C47.3457 100.609 47.0312 100.439 46.6211 100.428ZM53.3535 104.283C53.4121 103.846 53.1719 103.537 52.6328 103.357L51.5312 103.035C50.6016 102.715 50.1523 102.184 50.1836 101.441C50.2109 100.883 50.4648 100.426 50.9453 100.07C51.4297 99.7109 51.998 99.5352 52.6504 99.543C53.291 99.5508 53.8105 99.7383 54.209 100.105C54.6113 100.469 54.8047 100.943 54.7891 101.529L53.7344 101.523C53.7422 101.207 53.6426 100.949 53.4355 100.75C53.2285 100.551 52.9531 100.447 52.6094 100.439C52.2422 100.432 51.9258 100.521 51.6602 100.709C51.4141 100.885 51.2715 101.115 51.2324 101.4C51.1816 101.768 51.4062 102.035 51.9062 102.203L52.4395 102.35C53.166 102.537 53.6816 102.781 53.9863 103.082C54.291 103.383 54.4316 103.756 54.4082 104.201C54.3848 104.596 54.2559 104.939 54.0215 105.232C53.7871 105.525 53.4746 105.75 53.084 105.906C52.6934 106.059 52.2773 106.129 51.8359 106.117C51.1641 106.109 50.6094 105.914 50.1719 105.531C49.7344 105.145 49.5234 104.648 49.5391 104.043L50.5996 104.049C50.5996 104.404 50.7129 104.689 50.9395 104.904C51.166 105.119 51.4766 105.227 51.8711 105.227C52.2578 105.234 52.5918 105.154 52.873 104.986C53.1543 104.814 53.3145 104.58 53.3535 104.283ZM58.2871 98.125L58.0176 99.6602H59.1719L59.0254 100.498H57.877L57.2148 104.441C57.2031 104.543 57.2012 104.637 57.209 104.723C57.2363 105.027 57.4023 105.18 57.707 105.18C57.8359 105.18 58.0078 105.16 58.2227 105.121L58.1406 106.006C57.8867 106.076 57.6289 106.111 57.3672 106.111C56.9453 106.104 56.6289 105.949 56.418 105.648C56.207 105.344 56.125 104.936 56.1719 104.424L56.8164 100.498H55.6973L55.8438 99.6602H56.9629L57.2324 98.125H58.2871ZM62.0957 106.117C61.3066 106.102 60.6895 105.811 60.2441 105.244C59.7988 104.678 59.6113 103.953 59.6816 103.07L59.7109 102.818C59.7773 102.189 59.9629 101.615 60.2676 101.096C60.5762 100.576 60.9512 100.186 61.3926 99.9238C61.834 99.6582 62.3105 99.5312 62.8223 99.543C63.4746 99.5586 63.9863 99.7754 64.3574 100.193C64.7285 100.611 64.9316 101.178 64.9668 101.893C64.9785 102.146 64.9707 102.4 64.9434 102.654L64.8789 103.141H60.7363C60.666 103.715 60.7598 104.203 61.0176 104.605C61.2793 105.008 61.668 105.217 62.1836 105.232C62.8086 105.248 63.3867 104.967 63.918 104.389L64.5273 104.904C64.2617 105.287 63.918 105.588 63.4961 105.807C63.0781 106.021 62.6113 106.125 62.0957 106.117ZM62.7695 100.428C62.332 100.416 61.9492 100.564 61.6211 100.873C61.2969 101.182 61.0391 101.641 60.8477 102.25L63.9297 102.256L63.9531 102.162C64.0156 101.67 63.9355 101.262 63.7129 100.938C63.4941 100.609 63.1797 100.439 62.7695 100.428ZM71.3184 102.859C71.2402 103.504 71.0664 104.084 70.7969 104.6C70.5273 105.115 70.1934 105.502 69.7949 105.76C69.3965 106.014 68.9551 106.135 68.4707 106.123C67.7363 106.107 67.1738 105.859 66.7832 105.379L66.2148 108.438H65.1543L66.6777 99.6602L67.6387 99.6543L67.5215 100.363C68.0449 99.8008 68.6719 99.5273 69.4023 99.543C70.0117 99.5586 70.4863 99.7832 70.8262 100.217C71.166 100.65 71.3457 101.248 71.3652 102.01C71.3691 102.26 71.3594 102.502 71.3359 102.736L71.3184 102.859ZM70.2754 102.736L70.3047 102.244C70.3047 101.674 70.1953 101.238 69.9766 100.938C69.7617 100.633 69.4492 100.473 69.0391 100.457C68.4258 100.441 67.8965 100.732 67.4512 101.33L66.918 104.371C67.1562 104.934 67.584 105.223 68.2012 105.238C68.7285 105.25 69.1758 105.045 69.543 104.623C69.9141 104.197 70.1582 103.568 70.2754 102.736ZM49.2402 120H48.1738L49.4277 112.805L47.1602 113.602L47.3418 112.57L50.5059 111.428H50.6934L49.2402 120Z" fill="black"/>
<path d="M108.99 98.125L108.721 99.6602H109.875L109.729 100.498H108.58L107.918 104.441C107.906 104.543 107.904 104.637 107.912 104.723C107.939 105.027 108.105 105.18 108.41 105.18C108.539 105.18 108.711 105.16 108.926 105.121L108.844 106.006C108.59 106.076 108.332 106.111 108.07 106.111C107.648 106.104 107.332 105.949 107.121 105.648C106.91 105.344 106.828 104.936 106.875 104.424L107.52 100.498H106.4L106.547 99.6602H107.666L107.936 98.125H108.99ZM111.205 106H110.15L111.252 99.6602H112.307L111.205 106ZM112.078 97.3457C112.258 97.3379 112.406 97.3926 112.523 97.5098C112.645 97.623 112.705 97.7734 112.705 97.9609C112.701 98.1445 112.641 98.2949 112.523 98.4121C112.41 98.5293 112.262 98.5918 112.078 98.5996C111.895 98.6074 111.744 98.5547 111.627 98.4414C111.51 98.3281 111.453 98.1797 111.457 97.9961C111.461 97.8125 111.52 97.6602 111.633 97.5391C111.746 97.418 111.895 97.3535 112.078 97.3457ZM115.031 99.6543L114.896 100.363C115.428 99.8008 116.07 99.5273 116.824 99.543C117.227 99.5508 117.566 99.6426 117.844 99.8184C118.125 99.9941 118.318 100.242 118.424 100.562C119.018 99.8672 119.719 99.5273 120.527 99.543C121.16 99.5586 121.627 99.7715 121.928 100.182C122.229 100.592 122.34 101.143 122.262 101.834L121.564 106H120.51L121.201 101.822C121.225 101.619 121.225 101.434 121.201 101.266C121.127 100.734 120.779 100.463 120.158 100.451C119.771 100.443 119.42 100.564 119.104 100.814C118.791 101.061 118.59 101.385 118.5 101.787L117.779 106H116.713L117.416 101.828C117.467 101.395 117.4 101.061 117.217 100.826C117.037 100.592 116.756 100.471 116.373 100.463C115.713 100.447 115.188 100.748 114.797 101.365L113.994 106H112.934L114.035 99.6602L115.031 99.6543ZM125.947 106.117C125.158 106.102 124.541 105.811 124.096 105.244C123.65 104.678 123.463 103.953 123.533 103.07L123.562 102.818C123.629 102.189 123.814 101.615 124.119 101.096C124.428 100.576 124.803 100.186 125.244 99.9238C125.686 99.6582 126.162 99.5312 126.674 99.543C127.326 99.5586 127.838 99.7754 128.209 100.193C128.58 100.611 128.783 101.178 128.818 101.893C128.83 102.146 128.822 102.4 128.795 102.654L128.73 103.141H124.588C124.518 103.715 124.611 104.203 124.869 104.605C125.131 105.008 125.52 105.217 126.035 105.232C126.66 105.248 127.238 104.967 127.77 104.389L128.379 104.904C128.113 105.287 127.77 105.588 127.348 105.807C126.93 106.021 126.463 106.125 125.947 106.117ZM126.621 100.428C126.184 100.416 125.801 100.564 125.473 100.873C125.148 101.182 124.891 101.641 124.699 102.25L127.781 102.256L127.805 102.162C127.867 101.67 127.787 101.262 127.564 100.938C127.346 100.609 127.031 100.439 126.621 100.428ZM133.354 104.283C133.412 103.846 133.172 103.537 132.633 103.357L131.531 103.035C130.602 102.715 130.152 102.184 130.184 101.441C130.211 100.883 130.465 100.426 130.945 100.07C131.43 99.7109 131.998 99.5352 132.65 99.543C133.291 99.5508 133.811 99.7383 134.209 100.105C134.611 100.469 134.805 100.943 134.789 101.529L133.734 101.523C133.742 101.207 133.643 100.949 133.436 100.75C133.229 100.551 132.953 100.447 132.609 100.439C132.242 100.432 131.926 100.521 131.66 100.709C131.414 100.885 131.271 101.115 131.232 101.4C131.182 101.768 131.406 102.035 131.906 102.203L132.439 102.35C133.166 102.537 133.682 102.781 133.986 103.082C134.291 103.383 134.432 103.756 134.408 104.201C134.385 104.596 134.256 104.939 134.021 105.232C133.787 105.525 133.475 105.75 133.084 105.906C132.693 106.059 132.277 106.129 131.836 106.117C131.164 106.109 130.609 105.914 130.172 105.531C129.734 105.145 129.523 104.648 129.539 104.043L130.6 104.049C130.6 104.404 130.713 104.689 130.939 104.904C131.166 105.119 131.477 105.227 131.871 105.227C132.258 105.234 132.592 105.154 132.873 104.986C133.154 104.814 133.314 104.58 133.354 104.283ZM138.287 98.125L138.018 99.6602H139.172L139.025 100.498H137.877L137.215 104.441C137.203 104.543 137.201 104.637 137.209 104.723C137.236 105.027 137.402 105.18 137.707 105.18C137.836 105.18 138.008 105.16 138.223 105.121L138.141 106.006C137.887 106.076 137.629 106.111 137.367 106.111C136.945 106.104 136.629 105.949 136.418 105.648C136.207 105.344 136.125 104.936 136.172 104.424L136.816 100.498H135.697L135.844 99.6602H136.963L137.232 98.125H138.287ZM142.096 106.117C141.307 106.102 140.689 105.811 140.244 105.244C139.799 104.678 139.611 103.953 139.682 103.07L139.711 102.818C139.777 102.189 139.963 101.615 140.268 101.096C140.576 100.576 140.951 100.186 141.393 99.9238C141.834 99.6582 142.311 99.5312 142.822 99.543C143.475 99.5586 143.986 99.7754 144.357 100.193C144.729 100.611 144.932 101.178 144.967 101.893C144.979 102.146 144.971 102.4 144.943 102.654L144.879 103.141H140.736C140.666 103.715 140.76 104.203 141.018 104.605C141.279 105.008 141.668 105.217 142.184 105.232C142.809 105.248 143.387 104.967 143.918 104.389L144.527 104.904C144.262 105.287 143.918 105.588 143.496 105.807C143.078 106.021 142.611 106.125 142.096 106.117ZM142.77 100.428C142.332 100.416 141.949 100.564 141.621 100.873C141.297 101.182 141.039 101.641 140.848 102.25L143.93 102.256L143.953 102.162C144.016 101.67 143.936 101.262 143.713 100.938C143.494 100.609 143.18 100.439 142.77 100.428ZM151.318 102.859C151.24 103.504 151.066 104.084 150.797 104.6C150.527 105.115 150.193 105.502 149.795 105.76C149.396 106.014 148.955 106.135 148.471 106.123C147.736 106.107 147.174 105.859 146.783 105.379L146.215 108.438H145.154L146.678 99.6602L147.639 99.6543L147.521 100.363C148.045 99.8008 148.672 99.5273 149.402 99.543C150.012 99.5586 150.486 99.7832 150.826 100.217C151.166 100.65 151.346 101.248 151.365 102.01C151.369 102.26 151.359 102.502 151.336 102.736L151.318 102.859ZM150.275 102.736L150.305 102.244C150.305 101.674 150.195 101.238 149.977 100.938C149.762 100.633 149.449 100.473 149.039 100.457C148.426 100.441 147.896 100.732 147.451 101.33L146.918 104.371C147.156 104.934 147.584 105.223 148.201 105.238C148.729 105.25 149.176 105.045 149.543 104.623C149.914 104.197 150.158 103.568 150.275 102.736ZM131.268 120H125.836L125.965 119.174L129.111 116.115L129.686 115.547C130.346 114.887 130.711 114.277 130.781 113.719C130.832 113.289 130.748 112.939 130.529 112.67C130.311 112.396 130.002 112.252 129.604 112.236C129.092 112.221 128.664 112.371 128.32 112.688C127.977 113 127.768 113.43 127.693 113.977L126.645 113.982C126.695 113.459 126.855 112.996 127.125 112.594C127.398 112.188 127.756 111.877 128.197 111.662C128.643 111.443 129.125 111.34 129.645 111.352C130.352 111.367 130.912 111.582 131.326 111.996C131.744 112.406 131.924 112.939 131.865 113.596C131.799 114.346 131.367 115.135 130.57 115.963L130.031 116.508L127.289 119.115H131.408L131.268 120Z" fill="black"/>
<path d="M187.99 98.125L187.721 99.6602H188.875L188.729 100.498H187.58L186.918 104.441C186.906 104.543 186.904 104.637 186.912 104.723C186.939 105.027 187.105 105.18 187.41 105.18C187.539 105.18 187.711 105.16 187.926 105.121L187.844 106.006C187.59 106.076 187.332 106.111 187.07 106.111C186.648 106.104 186.332 105.949 186.121 105.648C185.91 105.344 185.828 104.936 185.875 104.424L186.52 100.498H185.4L185.547 99.6602H186.666L186.936 98.125H187.99ZM190.205 106H189.15L190.252 99.6602H191.307L190.205 106ZM191.078 97.3457C191.258 97.3379 191.406 97.3926 191.523 97.5098C191.645 97.623 191.705 97.7734 191.705 97.9609C191.701 98.1445 191.641 98.2949 191.523 98.4121C191.41 98.5293 191.262 98.5918 191.078 98.5996C190.895 98.6074 190.744 98.5547 190.627 98.4414C190.51 98.3281 190.453 98.1797 190.457 97.9961C190.461 97.8125 190.52 97.6602 190.633 97.5391C190.746 97.418 190.895 97.3535 191.078 97.3457ZM194.031 99.6543L193.896 100.363C194.428 99.8008 195.07 99.5273 195.824 99.543C196.227 99.5508 196.566 99.6426 196.844 99.8184C197.125 99.9941 197.318 100.242 197.424 100.562C198.018 99.8672 198.719 99.5273 199.527 99.543C200.16 99.5586 200.627 99.7715 200.928 100.182C201.229 100.592 201.34 101.143 201.262 101.834L200.564 106H199.51L200.201 101.822C200.225 101.619 200.225 101.434 200.201 101.266C200.127 100.734 199.779 100.463 199.158 100.451C198.771 100.443 198.42 100.564 198.104 100.814C197.791 101.061 197.59 101.385 197.5 101.787L196.779 106H195.713L196.416 101.828C196.467 101.395 196.4 101.061 196.217 100.826C196.037 100.592 195.756 100.471 195.373 100.463C194.713 100.447 194.188 100.748 193.797 101.365L192.994 106H191.934L193.035 99.6602L194.031 99.6543ZM204.947 106.117C204.158 106.102 203.541 105.811 203.096 105.244C202.65 104.678 202.463 103.953 202.533 103.07L202.562 102.818C202.629 102.189 202.814 101.615 203.119 101.096C203.428 100.576 203.803 100.186 204.244 99.9238C204.686 99.6582 205.162 99.5312 205.674 99.543C206.326 99.5586 206.838 99.7754 207.209 100.193C207.58 100.611 207.783 101.178 207.818 101.893C207.83 102.146 207.822 102.4 207.795 102.654L207.73 103.141H203.588C203.518 103.715 203.611 104.203 203.869 104.605C204.131 105.008 204.52 105.217 205.035 105.232C205.66 105.248 206.238 104.967 206.77 104.389L207.379 104.904C207.113 105.287 206.77 105.588 206.348 105.807C205.93 106.021 205.463 106.125 204.947 106.117ZM205.621 100.428C205.184 100.416 204.801 100.564 204.473 100.873C204.148 101.182 203.891 101.641 203.699 102.25L206.781 102.256L206.805 102.162C206.867 101.67 206.787 101.262 206.564 100.938C206.346 100.609 206.031 100.439 205.621 100.428ZM212.354 104.283C212.412 103.846 212.172 103.537 211.633 103.357L210.531 103.035C209.602 102.715 209.152 102.184 209.184 101.441C209.211 100.883 209.465 100.426 209.945 100.07C210.43 99.7109 210.998 99.5352 211.65 99.543C212.291 99.5508 212.811 99.7383 213.209 100.105C213.611 100.469 213.805 100.943 213.789 101.529L212.734 101.523C212.742 101.207 212.643 100.949 212.436 100.75C212.229 100.551 211.953 100.447 211.609 100.439C211.242 100.432 210.926 100.521 210.66 100.709C210.414 100.885 210.271 101.115 210.232 101.4C210.182 101.768 210.406 102.035 210.906 102.203L211.439 102.35C212.166 102.537 212.682 102.781 212.986 103.082C213.291 103.383 213.432 103.756 213.408 104.201C213.385 104.596 213.256 104.939 213.021 105.232C212.787 105.525 212.475 105.75 212.084 105.906C211.693 106.059 211.277 106.129 210.836 106.117C210.164 106.109 209.609 105.914 209.172 105.531C208.734 105.145 208.523 104.648 208.539 104.043L209.6 104.049C209.6 104.404 209.713 104.689 209.939 104.904C210.166 105.119 210.477 105.227 210.871 105.227C211.258 105.234 211.592 105.154 211.873 104.986C212.154 104.814 212.314 104.58 212.354 104.283ZM217.287 98.125L217.018 99.6602H218.172L218.025 100.498H216.877L216.215 104.441C216.203 104.543 216.201 104.637 216.209 104.723C216.236 105.027 216.402 105.18 216.707 105.18C216.836 105.18 217.008 105.16 217.223 105.121L217.141 106.006C216.887 106.076 216.629 106.111 216.367 106.111C215.945 106.104 215.629 105.949 215.418 105.648C215.207 105.344 215.125 104.936 215.172 104.424L215.816 100.498H214.697L214.844 99.6602H215.963L216.232 98.125H217.287ZM221.096 106.117C220.307 106.102 219.689 105.811 219.244 105.244C218.799 104.678 218.611 103.953 218.682 103.07L218.711 102.818C218.777 102.189 218.963 101.615 219.268 101.096C219.576 100.576 219.951 100.186 220.393 99.9238C220.834 99.6582 221.311 99.5312 221.822 99.543C222.475 99.5586 222.986 99.7754 223.357 100.193C223.729 100.611 223.932 101.178 223.967 101.893C223.979 102.146 223.971 102.4 223.943 102.654L223.879 103.141H219.736C219.666 103.715 219.76 104.203 220.018 104.605C220.279 105.008 220.668 105.217 221.184 105.232C221.809 105.248 222.387 104.967 222.918 104.389L223.527 104.904C223.262 105.287 222.918 105.588 222.496 105.807C222.078 106.021 221.611 106.125 221.096 106.117ZM221.77 100.428C221.332 100.416 220.949 100.564 220.621 100.873C220.297 101.182 220.039 101.641 219.848 102.25L222.93 102.256L222.953 102.162C223.016 101.67 222.936 101.262 222.713 100.938C222.494 100.609 222.18 100.439 221.77 100.428ZM230.318 102.859C230.24 103.504 230.066 104.084 229.797 104.6C229.527 105.115 229.193 105.502 228.795 105.76C228.396 106.014 227.955 106.135 227.471 106.123C226.736 106.107 226.174 105.859 225.783 105.379L225.215 108.438H224.154L225.678 99.6602L226.639 99.6543L226.521 100.363C227.045 99.8008 227.672 99.5273 228.402 99.543C229.012 99.5586 229.486 99.7832 229.826 100.217C230.166 100.65 230.346 101.248 230.365 102.01C230.369 102.26 230.359 102.502 230.336 102.736L230.318 102.859ZM229.275 102.736L229.305 102.244C229.305 101.674 229.195 101.238 228.977 100.938C228.762 100.633 228.449 100.473 228.039 100.457C227.426 100.441 226.896 100.732 226.451 101.33L225.918 104.371C226.156 104.934 226.584 105.223 227.201 105.238C227.729 105.25 228.176 105.045 228.543 104.623C228.914 104.197 229.158 103.568 229.275 102.736ZM207.139 115.207L207.842 115.213C208.357 115.213 208.791 115.078 209.143 114.809C209.498 114.535 209.701 114.166 209.752 113.701C209.803 113.248 209.719 112.893 209.5 112.635C209.281 112.373 208.963 112.238 208.545 112.23C208.1 112.223 207.721 112.354 207.408 112.623C207.1 112.889 206.91 113.248 206.84 113.701L205.791 113.707C205.857 113.004 206.156 112.434 206.688 111.996C207.223 111.555 207.859 111.338 208.598 111.346C209.312 111.361 209.873 111.586 210.279 112.02C210.689 112.449 210.867 113.018 210.812 113.725C210.777 114.127 210.623 114.494 210.35 114.826C210.076 115.158 209.697 115.434 209.213 115.652C209.6 115.809 209.889 116.057 210.08 116.396C210.271 116.732 210.352 117.127 210.32 117.58C210.258 118.35 209.951 118.969 209.4 119.438C208.854 119.906 208.188 120.133 207.402 120.117C206.672 120.102 206.09 119.875 205.656 119.438C205.223 119 205.021 118.436 205.053 117.744L206.113 117.75C206.09 118.188 206.195 118.541 206.43 118.811C206.664 119.076 207.004 119.217 207.449 119.232C207.949 119.248 208.365 119.105 208.697 118.805C209.029 118.504 209.219 118.102 209.266 117.598C209.309 117.133 209.203 116.771 208.949 116.514C208.695 116.252 208.316 116.113 207.812 116.098L206.998 116.092L207.139 115.207Z" fill="black"/>
<path d="M266.99 98.125L266.721 99.6602H267.875L267.729 100.498H266.58L265.918 104.441C265.906 104.543 265.904 104.637 265.912 104.723C265.939 105.027 266.105 105.18 266.41 105.18C266.539 105.18 266.711 105.16 266.926 105.121L266.844 106.006C266.59 106.076 266.332 106.111 266.07 106.111C265.648 106.104 265.332 105.949 265.121 105.648C264.91 105.344 264.828 104.936 264.875 104.424L265.52 100.498H264.4L264.547 99.6602H265.666L265.936 98.125H266.99ZM269.205 106H268.15L269.252 99.6602H270.307L269.205 106ZM270.078 97.3457C270.258 97.3379 270.406 97.3926 270.523 97.5098C270.645 97.623 270.705 97.7734 270.705 97.9609C270.701 98.1445 270.641 98.2949 270.523 98.4121C270.41 98.5293 270.262 98.5918 270.078 98.5996C269.895 98.6074 269.744 98.5547 269.627 98.4414C269.51 98.3281 269.453 98.1797 269.457 97.9961C269.461 97.8125 269.52 97.6602 269.633 97.5391C269.746 97.418 269.895 97.3535 270.078 97.3457ZM273.031 99.6543L272.896 100.363C273.428 99.8008 274.07 99.5273 274.824 99.543C275.227 99.5508 275.566 99.6426 275.844 99.8184C276.125 99.9941 276.318 100.242 276.424 100.562C277.018 99.8672 277.719 99.5273 278.527 99.543C279.16 99.5586 279.627 99.7715 279.928 100.182C280.229 100.592 280.34 101.143 280.262 101.834L279.564 106H278.51L279.201 101.822C279.225 101.619 279.225 101.434 279.201 101.266C279.127 100.734 278.779 100.463 278.158 100.451C277.771 100.443 277.42 100.564 277.104 100.814C276.791 101.061 276.59 101.385 276.5 101.787L275.779 106H274.713L275.416 101.828C275.467 101.395 275.4 101.061 275.217 100.826C275.037 100.592 274.756 100.471 274.373 100.463C273.713 100.447 273.188 100.748 272.797 101.365L271.994 106H270.934L272.035 99.6602L273.031 99.6543ZM283.947 106.117C283.158 106.102 282.541 105.811 282.096 105.244C281.65 104.678 281.463 103.953 281.533 103.07L281.562 102.818C281.629 102.189 281.814 101.615 282.119 101.096C282.428 100.576 282.803 100.186 283.244 99.9238C283.686 99.6582 284.162 99.5312 284.674 99.543C285.326 99.5586 285.838 99.7754 286.209 100.193C286.58 100.611 286.783 101.178 286.818 101.893C286.83 102.146 286.822 102.4 286.795 102.654L286.73 103.141H282.588C282.518 103.715 282.611 104.203 282.869 104.605C283.131 105.008 283.52 105.217 284.035 105.232C284.66 105.248 285.238 104.967 285.77 104.389L286.379 104.904C286.113 105.287 285.77 105.588 285.348 105.807C284.93 106.021 284.463 106.125 283.947 106.117ZM284.621 100.428C284.184 100.416 283.801 100.564 283.473 100.873C283.148 101.182 282.891 101.641 282.699 102.25L285.781 102.256L285.805 102.162C285.867 101.67 285.787 101.262 285.564 100.938C285.346 100.609 285.031 100.439 284.621 100.428ZM291.354 104.283C291.412 103.846 291.172 103.537 290.633 103.357L289.531 103.035C288.602 102.715 288.152 102.184 288.184 101.441C288.211 100.883 288.465 100.426 288.945 100.07C289.43 99.7109 289.998 99.5352 290.65 99.543C291.291 99.5508 291.811 99.7383 292.209 100.105C292.611 100.469 292.805 100.943 292.789 101.529L291.734 101.523C291.742 101.207 291.643 100.949 291.436 100.75C291.229 100.551 290.953 100.447 290.609 100.439C290.242 100.432 289.926 100.521 289.66 100.709C289.414 100.885 289.271 101.115 289.232 101.4C289.182 101.768 289.406 102.035 289.906 102.203L290.439 102.35C291.166 102.537 291.682 102.781 291.986 103.082C292.291 103.383 292.432 103.756 292.408 104.201C292.385 104.596 292.256 104.939 292.021 105.232C291.787 105.525 291.475 105.75 291.084 105.906C290.693 106.059 290.277 106.129 289.836 106.117C289.164 106.109 288.609 105.914 288.172 105.531C287.734 105.145 287.523 104.648 287.539 104.043L288.6 104.049C288.6 104.404 288.713 104.689 288.939 104.904C289.166 105.119 289.477 105.227 289.871 105.227C290.258 105.234 290.592 105.154 290.873 104.986C291.154 104.814 291.314 104.58 291.354 104.283ZM296.287 98.125L296.018 99.6602H297.172L297.025 100.498H295.877L295.215 104.441C295.203 104.543 295.201 104.637 295.209 104.723C295.236 105.027 295.402 105.18 295.707 105.18C295.836 105.18 296.008 105.16 296.223 105.121L296.141 106.006C295.887 106.076 295.629 106.111 295.367 106.111C294.945 106.104 294.629 105.949 294.418 105.648C294.207 105.344 294.125 104.936 294.172 104.424L294.816 100.498H293.697L293.844 99.6602H294.963L295.232 98.125H296.287ZM300.096 106.117C299.307 106.102 298.689 105.811 298.244 105.244C297.799 104.678 297.611 103.953 297.682 103.07L297.711 102.818C297.777 102.189 297.963 101.615 298.268 101.096C298.576 100.576 298.951 100.186 299.393 99.9238C299.834 99.6582 300.311 99.5312 300.822 99.543C301.475 99.5586 301.986 99.7754 302.357 100.193C302.729 100.611 302.932 101.178 302.967 101.893C302.979 102.146 302.971 102.4 302.943 102.654L302.879 103.141H298.736C298.666 103.715 298.76 104.203 299.018 104.605C299.279 105.008 299.668 105.217 300.184 105.232C300.809 105.248 301.387 104.967 301.918 104.389L302.527 104.904C302.262 105.287 301.918 105.588 301.496 105.807C301.078 106.021 300.611 106.125 300.096 106.117ZM300.77 100.428C300.332 100.416 299.949 100.564 299.621 100.873C299.297 101.182 299.039 101.641 298.848 102.25L301.93 102.256L301.953 102.162C302.016 101.67 301.936 101.262 301.713 100.938C301.494 100.609 301.18 100.439 300.77 100.428ZM309.318 102.859C309.24 103.504 309.066 104.084 308.797 104.6C308.527 105.115 308.193 105.502 307.795 105.76C307.396 106.014 306.955 106.135 306.471 106.123C305.736 106.107 305.174 105.859 304.783 105.379L304.215 108.438H303.154L304.678 99.6602L305.639 99.6543L305.521 100.363C306.045 99.8008 306.672 99.5273 307.402 99.543C308.012 99.5586 308.486 99.7832 308.826 100.217C309.166 100.65 309.346 101.248 309.365 102.01C309.369 102.26 309.359 102.502 309.336 102.736L309.318 102.859ZM308.275 102.736L308.305 102.244C308.305 101.674 308.195 101.238 307.977 100.938C307.762 100.633 307.449 100.473 307.039 100.457C306.426 100.441 305.896 100.732 305.451 101.33L304.918 104.371C305.156 104.934 305.584 105.223 306.201 105.238C306.729 105.25 307.176 105.045 307.543 104.623C307.914 104.197 308.158 103.568 308.275 102.736ZM288.723 117.135H289.871L289.713 118.02H288.57L288.225 120H287.158L287.504 118.02H283.73L283.854 117.322L288.541 111.469H289.701L288.723 117.135ZM285.125 117.135H287.656L288.418 112.939L288.248 113.186L285.125 117.135Z" fill="black"/>
<line x1="20" y1="63" x2="154" y2="63" stroke="#F30808" stroke-width="2"/>
<line x1="181" y1="82" x2="312.015" y2="82" stroke="#F30808" stroke-width="2"/>
<line x1="102" y1="73" x2="235.004" y2="73" stroke="#F30808" stroke-width="2"/>
<line x1="22" y1="32" x2="235.002" y2="32" stroke="#7B1CF5" stroke-width="2"/>
<line x1="102" y1="46" x2="312" y2="46" stroke="#7B1CF5" stroke-width="2"/>
<rect x="29" y="179" width="100" height="182" fill="#C4C4C4"/>
<rect x="214" y="179" width="100" height="182" fill="#C4C4C4"/>
<path d="M188.615 43H187.561L188.662 36.6602H189.717L188.615 43ZM189.488 34.3457C189.668 34.3379 189.816 34.3926 189.934 34.5098C190.055 34.623 190.115 34.7734 190.115 34.9609C190.111 35.1445 190.051 35.2949 189.934 35.4121C189.82 35.5293 189.672 35.5918 189.488 35.5996C189.305 35.6074 189.154 35.5547 189.037 35.4414C188.92 35.3281 188.863 35.1797 188.867 34.9961C188.871 34.8125 188.93 34.6602 189.043 34.5391C189.156 34.418 189.305 34.3535 189.488 34.3457ZM193.15 35.125L192.881 36.6602H194.035L193.889 37.498H192.74L192.078 41.4414C192.066 41.543 192.064 41.6367 192.072 41.7227C192.1 42.0273 192.266 42.1797 192.57 42.1797C192.699 42.1797 192.871 42.1602 193.086 42.1211L193.004 43.0059C192.75 43.0762 192.492 43.1113 192.23 43.1113C191.809 43.1035 191.492 42.9492 191.281 42.6484C191.07 42.3438 190.988 41.9355 191.035 41.4238L191.68 37.498H190.561L190.707 36.6602H191.826L192.096 35.125H193.15ZM196.959 43.1172C196.17 43.1016 195.553 42.8105 195.107 42.2441C194.662 41.6777 194.475 40.9531 194.545 40.0703L194.574 39.8184C194.641 39.1895 194.826 38.6152 195.131 38.0957C195.439 37.5762 195.814 37.1855 196.256 36.9238C196.697 36.6582 197.174 36.5312 197.686 36.543C198.338 36.5586 198.85 36.7754 199.221 37.1934C199.592 37.6113 199.795 38.1777 199.83 38.8926C199.842 39.1465 199.834 39.4004 199.807 39.6543L199.742 40.1406H195.6C195.529 40.7148 195.623 41.2031 195.881 41.6055C196.143 42.0078 196.531 42.2168 197.047 42.2324C197.672 42.248 198.25 41.9668 198.781 41.3887L199.391 41.9043C199.125 42.2871 198.781 42.5879 198.359 42.8066C197.941 43.0215 197.475 43.125 196.959 43.1172ZM197.633 37.4277C197.195 37.416 196.812 37.5645 196.484 37.873C196.16 38.1816 195.902 38.6406 195.711 39.25L198.793 39.2559L198.816 39.1621C198.879 38.6699 198.799 38.2617 198.576 37.9375C198.357 37.6094 198.043 37.4395 197.633 37.4277ZM202.531 36.6543L202.396 37.3633C202.928 36.8008 203.57 36.5273 204.324 36.543C204.727 36.5508 205.066 36.6426 205.344 36.8184C205.625 36.9941 205.818 37.2422 205.924 37.5625C206.518 36.8672 207.219 36.5273 208.027 36.543C208.66 36.5586 209.127 36.7715 209.428 37.1816C209.729 37.5918 209.84 38.1426 209.762 38.834L209.064 43H208.01L208.701 38.8223C208.725 38.6191 208.725 38.4336 208.701 38.2656C208.627 37.7344 208.279 37.4629 207.658 37.4512C207.271 37.4434 206.92 37.5645 206.604 37.8145C206.291 38.0605 206.09 38.3848 206 38.7871L205.279 43H204.213L204.916 38.8281C204.967 38.3945 204.9 38.0605 204.717 37.8262C204.537 37.5918 204.256 37.4707 203.873 37.4629C203.213 37.4473 202.688 37.748 202.297 38.3652L201.494 43H200.434L201.535 36.6602L202.531 36.6543ZM218.791 40.7734H215.334L214.168 43H212.99L217.625 34.4688H218.592L220.279 43H219.195L218.791 40.7734ZM215.82 39.8477H218.627L217.918 35.8691L215.82 39.8477ZM226.684 43H221.252L221.381 42.1738L224.527 39.1152L225.102 38.5469C225.762 37.8867 226.127 37.2773 226.197 36.7188C226.248 36.2891 226.164 35.9395 225.945 35.6699C225.727 35.3965 225.418 35.252 225.02 35.2363C224.508 35.2207 224.08 35.3711 223.736 35.6875C223.393 36 223.184 36.4297 223.109 36.9766L222.061 36.9824C222.111 36.459 222.271 35.9961 222.541 35.5938C222.814 35.1875 223.172 34.877 223.613 34.6621C224.059 34.4434 224.541 34.3398 225.061 34.3516C225.768 34.3672 226.328 34.582 226.742 34.9961C227.16 35.4062 227.34 35.9395 227.281 36.5957C227.215 37.3457 226.783 38.1348 225.986 38.9629L225.447 39.5078L222.705 42.1152H226.824L226.684 43Z" fill="black"/>
<path d="M110.615 27H109.561L110.662 20.6602H111.717L110.615 27ZM111.488 18.3457C111.668 18.3379 111.816 18.3926 111.934 18.5098C112.055 18.623 112.115 18.7734 112.115 18.9609C112.111 19.1445 112.051 19.2949 111.934 19.4121C111.82 19.5293 111.672 19.5918 111.488 19.5996C111.305 19.6074 111.154 19.5547 111.037 19.4414C110.92 19.3281 110.863 19.1797 110.867 18.9961C110.871 18.8125 110.93 18.6602 111.043 18.5391C111.156 18.418 111.305 18.3535 111.488 18.3457ZM115.15 19.125L114.881 20.6602H116.035L115.889 21.498H114.74L114.078 25.4414C114.066 25.543 114.064 25.6367 114.072 25.7227C114.1 26.0273 114.266 26.1797 114.57 26.1797C114.699 26.1797 114.871 26.1602 115.086 26.1211L115.004 27.0059C114.75 27.0762 114.492 27.1113 114.23 27.1113C113.809 27.1035 113.492 26.9492 113.281 26.6484C113.07 26.3438 112.988 25.9355 113.035 25.4238L113.68 21.498H112.561L112.707 20.6602H113.826L114.096 19.125H115.15ZM118.959 27.1172C118.17 27.1016 117.553 26.8105 117.107 26.2441C116.662 25.6777 116.475 24.9531 116.545 24.0703L116.574 23.8184C116.641 23.1895 116.826 22.6152 117.131 22.0957C117.439 21.5762 117.814 21.1855 118.256 20.9238C118.697 20.6582 119.174 20.5312 119.686 20.543C120.338 20.5586 120.85 20.7754 121.221 21.1934C121.592 21.6113 121.795 22.1777 121.83 22.8926C121.842 23.1465 121.834 23.4004 121.807 23.6543L121.742 24.1406H117.6C117.529 24.7148 117.623 25.2031 117.881 25.6055C118.143 26.0078 118.531 26.2168 119.047 26.2324C119.672 26.248 120.25 25.9668 120.781 25.3887L121.391 25.9043C121.125 26.2871 120.781 26.5879 120.359 26.8066C119.941 27.0215 119.475 27.125 118.959 27.1172ZM119.633 21.4277C119.195 21.416 118.812 21.5645 118.484 21.873C118.16 22.1816 117.902 22.6406 117.711 23.25L120.793 23.2559L120.816 23.1621C120.879 22.6699 120.799 22.2617 120.576 21.9375C120.357 21.6094 120.043 21.4395 119.633 21.4277ZM124.531 20.6543L124.396 21.3633C124.928 20.8008 125.57 20.5273 126.324 20.543C126.727 20.5508 127.066 20.6426 127.344 20.8184C127.625 20.9941 127.818 21.2422 127.924 21.5625C128.518 20.8672 129.219 20.5273 130.027 20.543C130.66 20.5586 131.127 20.7715 131.428 21.1816C131.729 21.5918 131.84 22.1426 131.762 22.834L131.064 27H130.01L130.701 22.8223C130.725 22.6191 130.725 22.4336 130.701 22.2656C130.627 21.7344 130.279 21.4629 129.658 21.4512C129.271 21.4434 128.92 21.5645 128.604 21.8145C128.291 22.0605 128.09 22.3848 128 22.7871L127.279 27H126.213L126.916 22.8281C126.967 22.3945 126.9 22.0605 126.717 21.8262C126.537 21.5918 126.256 21.4707 125.873 21.4629C125.213 21.4473 124.688 21.748 124.297 22.3652L123.494 27H122.434L123.535 20.6602L124.531 20.6543ZM140.791 24.7734H137.334L136.168 27H134.99L139.625 18.4688H140.592L142.279 27H141.195L140.791 24.7734ZM137.82 23.8477H140.627L139.918 19.8691L137.82 23.8477ZM146.656 27H145.59L146.844 19.8047L144.576 20.6016L144.758 19.5703L147.922 18.4277H148.109L146.656 27Z" fill="black"/>
<path d="M68.7852 60H67.7305L68.832 53.6602H69.8867L68.7852 60ZM69.6582 51.3457C69.8379 51.3379 69.9863 51.3926 70.1035 51.5098C70.2246 51.623 70.2852 51.7734 70.2852 51.9609C70.2812 52.1445 70.2207 52.2949 70.1035 52.4121C69.9902 52.5293 69.8418 52.5918 69.6582 52.5996C69.4746 52.6074 69.3242 52.5547 69.207 52.4414C69.0898 52.3281 69.0332 52.1797 69.0371 51.9961C69.041 51.8125 69.0996 51.6602 69.2129 51.5391C69.3262 51.418 69.4746 51.3535 69.6582 51.3457ZM73.3203 52.125L73.0508 53.6602H74.2051L74.0586 54.498H72.9102L72.248 58.4414C72.2363 58.543 72.2344 58.6367 72.2422 58.7227C72.2695 59.0273 72.4355 59.1797 72.7402 59.1797C72.8691 59.1797 73.041 59.1602 73.2559 59.1211L73.1738 60.0059C72.9199 60.0762 72.6621 60.1113 72.4004 60.1113C71.9785 60.1035 71.6621 59.9492 71.4512 59.6484C71.2402 59.3438 71.1582 58.9355 71.2051 58.4238L71.8496 54.498H70.7305L70.877 53.6602H71.9961L72.2656 52.125H73.3203ZM77.1289 60.1172C76.3398 60.1016 75.7227 59.8105 75.2773 59.2441C74.832 58.6777 74.6445 57.9531 74.7148 57.0703L74.7441 56.8184C74.8105 56.1895 74.9961 55.6152 75.3008 55.0957C75.6094 54.5762 75.9844 54.1855 76.4258 53.9238C76.8672 53.6582 77.3438 53.5312 77.8555 53.543C78.5078 53.5586 79.0195 53.7754 79.3906 54.1934C79.7617 54.6113 79.9648 55.1777 80 55.8926C80.0117 56.1465 80.0039 56.4004 79.9766 56.6543L79.9121 57.1406H75.7695C75.6992 57.7148 75.793 58.2031 76.0508 58.6055C76.3125 59.0078 76.7012 59.2168 77.2168 59.2324C77.8418 59.248 78.4199 58.9668 78.9512 58.3887L79.5605 58.9043C79.2949 59.2871 78.9512 59.5879 78.5293 59.8066C78.1113 60.0215 77.6445 60.125 77.1289 60.1172ZM77.8027 54.4277C77.3652 54.416 76.9824 54.5645 76.6543 54.873C76.3301 55.1816 76.0723 55.6406 75.8809 56.25L78.9629 56.2559L78.9863 56.1621C79.0488 55.6699 78.9688 55.2617 78.7461 54.9375C78.5273 54.6094 78.2129 54.4395 77.8027 54.4277ZM82.7012 53.6543L82.5664 54.3633C83.0977 53.8008 83.7402 53.5273 84.4941 53.543C84.8965 53.5508 85.2363 53.6426 85.5137 53.8184C85.7949 53.9941 85.9883 54.2422 86.0938 54.5625C86.6875 53.8672 87.3887 53.5273 88.1973 53.543C88.8301 53.5586 89.2969 53.7715 89.5977 54.1816C89.8984 54.5918 90.0098 55.1426 89.9316 55.834L89.2344 60H88.1797L88.8711 55.8223C88.8945 55.6191 88.8945 55.4336 88.8711 55.2656C88.7969 54.7344 88.4492 54.4629 87.8281 54.4512C87.4414 54.4434 87.0898 54.5645 86.7734 54.8145C86.4609 55.0605 86.2598 55.3848 86.1699 55.7871L85.4492 60H84.3828L85.0859 55.8281C85.1367 55.3945 85.0703 55.0605 84.8867 54.8262C84.707 54.5918 84.4258 54.4707 84.043 54.4629C83.3828 54.4473 82.8574 54.748 82.4668 55.3652L81.6641 60H80.6035L81.7051 53.6602L82.7012 53.6543ZM93.9805 60L95.4629 51.4688L97.9648 51.4746C98.8359 51.4746 99.4883 51.6699 99.9219 52.0605C100.355 52.4512 100.545 52.9961 100.49 53.6953C100.42 54.5117 99.9062 55.127 98.9492 55.541C99.332 55.6895 99.6172 55.9434 99.8047 56.3027C99.9961 56.6621 100.074 57.0586 100.039 57.4922C99.9805 58.2617 99.6719 58.873 99.1133 59.3262C98.5547 59.7754 97.832 60 96.9453 60H93.9805ZM95.7734 56.0098L95.2402 59.0801L96.9805 59.0859C97.5117 59.0859 97.957 58.9434 98.3164 58.6582C98.6758 58.373 98.8848 57.9883 98.9434 57.5039C98.998 57.043 98.918 56.6836 98.7031 56.4258C98.4883 56.168 98.1504 56.0312 97.6895 56.0156L95.7734 56.0098ZM95.9316 55.1074L97.5195 55.1133C98.0156 55.1133 98.4336 54.9863 98.7734 54.7324C99.1172 54.4785 99.3184 54.1289 99.377 53.6836C99.4277 53.2695 99.3457 52.957 99.1309 52.7461C98.9199 52.5352 98.5684 52.4199 98.0762 52.4004L96.4004 52.3945L95.9316 55.1074ZM104.486 60H103.42L104.674 52.8047L102.406 53.6016L102.588 52.5703L105.752 51.4277H105.939L104.486 60Z" fill="black"/>
<path d="M158.785 70H157.73L158.832 63.6602H159.887L158.785 70ZM159.658 61.3457C159.838 61.3379 159.986 61.3926 160.104 61.5098C160.225 61.623 160.285 61.7734 160.285 61.9609C160.281 62.1445 160.221 62.2949 160.104 62.4121C159.99 62.5293 159.842 62.5918 159.658 62.5996C159.475 62.6074 159.324 62.5547 159.207 62.4414C159.09 62.3281 159.033 62.1797 159.037 61.9961C159.041 61.8125 159.1 61.6602 159.213 61.5391C159.326 61.418 159.475 61.3535 159.658 61.3457ZM163.32 62.125L163.051 63.6602H164.205L164.059 64.498H162.91L162.248 68.4414C162.236 68.543 162.234 68.6367 162.242 68.7227C162.27 69.0273 162.436 69.1797 162.74 69.1797C162.869 69.1797 163.041 69.1602 163.256 69.1211L163.174 70.0059C162.92 70.0762 162.662 70.1113 162.4 70.1113C161.979 70.1035 161.662 69.9492 161.451 69.6484C161.24 69.3438 161.158 68.9355 161.205 68.4238L161.85 64.498H160.73L160.877 63.6602H161.996L162.266 62.125H163.32ZM167.129 70.1172C166.34 70.1016 165.723 69.8105 165.277 69.2441C164.832 68.6777 164.645 67.9531 164.715 67.0703L164.744 66.8184C164.811 66.1895 164.996 65.6152 165.301 65.0957C165.609 64.5762 165.984 64.1855 166.426 63.9238C166.867 63.6582 167.344 63.5312 167.855 63.543C168.508 63.5586 169.02 63.7754 169.391 64.1934C169.762 64.6113 169.965 65.1777 170 65.8926C170.012 66.1465 170.004 66.4004 169.977 66.6543L169.912 67.1406H165.77C165.699 67.7148 165.793 68.2031 166.051 68.6055C166.312 69.0078 166.701 69.2168 167.217 69.2324C167.842 69.248 168.42 68.9668 168.951 68.3887L169.561 68.9043C169.295 69.2871 168.951 69.5879 168.529 69.8066C168.111 70.0215 167.645 70.125 167.129 70.1172ZM167.803 64.4277C167.365 64.416 166.982 64.5645 166.654 64.873C166.33 65.1816 166.072 65.6406 165.881 66.25L168.963 66.2559L168.986 66.1621C169.049 65.6699 168.969 65.2617 168.746 64.9375C168.527 64.6094 168.213 64.4395 167.803 64.4277ZM172.701 63.6543L172.566 64.3633C173.098 63.8008 173.74 63.5273 174.494 63.543C174.896 63.5508 175.236 63.6426 175.514 63.8184C175.795 63.9941 175.988 64.2422 176.094 64.5625C176.688 63.8672 177.389 63.5273 178.197 63.543C178.83 63.5586 179.297 63.7715 179.598 64.1816C179.898 64.5918 180.01 65.1426 179.932 65.834L179.234 70H178.18L178.871 65.8223C178.895 65.6191 178.895 65.4336 178.871 65.2656C178.797 64.7344 178.449 64.4629 177.828 64.4512C177.441 64.4434 177.09 64.5645 176.773 64.8145C176.461 65.0605 176.26 65.3848 176.17 65.7871L175.449 70H174.383L175.086 65.8281C175.137 65.3945 175.07 65.0605 174.887 64.8262C174.707 64.5918 174.426 64.4707 174.043 64.4629C173.383 64.4473 172.857 64.748 172.467 65.3652L171.664 70H170.604L171.705 63.6602L172.701 63.6543ZM183.98 70L185.463 61.4688L187.965 61.4746C188.836 61.4746 189.488 61.6699 189.922 62.0605C190.355 62.4512 190.545 62.9961 190.49 63.6953C190.42 64.5117 189.906 65.127 188.949 65.541C189.332 65.6895 189.617 65.9434 189.805 66.3027C189.996 66.6621 190.074 67.0586 190.039 67.4922C189.98 68.2617 189.672 68.873 189.113 69.3262C188.555 69.7754 187.832 70 186.945 70H183.98ZM185.773 66.0098L185.24 69.0801L186.98 69.0859C187.512 69.0859 187.957 68.9434 188.316 68.6582C188.676 68.373 188.885 67.9883 188.943 67.5039C188.998 67.043 188.918 66.6836 188.703 66.4258C188.488 66.168 188.15 66.0312 187.689 66.0156L185.773 66.0098ZM185.932 65.1074L187.52 65.1133C188.016 65.1133 188.434 64.9863 188.773 64.7324C189.117 64.4785 189.318 64.1289 189.377 63.6836C189.428 63.2695 189.346 62.957 189.131 62.7461C188.92 62.5352 188.568 62.4199 188.076 62.4004L186.4 62.3945L185.932 65.1074ZM196.514 70H191.082L191.211 69.1738L194.357 66.1152L194.932 65.5469C195.592 64.8867 195.957 64.2773 196.027 63.7188C196.078 63.2891 195.994 62.9395 195.775 62.6699C195.557 62.3965 195.248 62.252 194.85 62.2363C194.338 62.2207 193.91 62.3711 193.566 62.6875C193.223 63 193.014 63.4297 192.939 63.9766L191.891 63.9824C191.941 63.459 192.102 62.9961 192.371 62.5938C192.645 62.1875 193.002 61.877 193.443 61.6621C193.889 61.4434 194.371 61.3398 194.891 61.3516C195.598 61.3672 196.158 61.582 196.572 61.9961C196.99 62.4062 197.17 62.9395 197.111 63.5957C197.045 64.3457 196.613 65.1348 195.816 65.9629L195.277 66.5078L192.535 69.1152H196.654L196.514 70Z" fill="black"/>
<path d="M241.285 80H240.23L241.332 73.6602H242.387L241.285 80ZM242.158 71.3457C242.338 71.3379 242.486 71.3926 242.604 71.5098C242.725 71.623 242.785 71.7734 242.785 71.9609C242.781 72.1445 242.721 72.2949 242.604 72.4121C242.49 72.5293 242.342 72.5918 242.158 72.5996C241.975 72.6074 241.824 72.5547 241.707 72.4414C241.59 72.3281 241.533 72.1797 241.537 71.9961C241.541 71.8125 241.6 71.6602 241.713 71.5391C241.826 71.418 241.975 71.3535 242.158 71.3457ZM245.82 72.125L245.551 73.6602H246.705L246.559 74.498H245.41L244.748 78.4414C244.736 78.543 244.734 78.6367 244.742 78.7227C244.77 79.0273 244.936 79.1797 245.24 79.1797C245.369 79.1797 245.541 79.1602 245.756 79.1211L245.674 80.0059C245.42 80.0762 245.162 80.1113 244.9 80.1113C244.479 80.1035 244.162 79.9492 243.951 79.6484C243.74 79.3438 243.658 78.9355 243.705 78.4238L244.35 74.498H243.23L243.377 73.6602H244.496L244.766 72.125H245.82ZM249.629 80.1172C248.84 80.1016 248.223 79.8105 247.777 79.2441C247.332 78.6777 247.145 77.9531 247.215 77.0703L247.244 76.8184C247.311 76.1895 247.496 75.6152 247.801 75.0957C248.109 74.5762 248.484 74.1855 248.926 73.9238C249.367 73.6582 249.844 73.5312 250.355 73.543C251.008 73.5586 251.52 73.7754 251.891 74.1934C252.262 74.6113 252.465 75.1777 252.5 75.8926C252.512 76.1465 252.504 76.4004 252.477 76.6543L252.412 77.1406H248.27C248.199 77.7148 248.293 78.2031 248.551 78.6055C248.812 79.0078 249.201 79.2168 249.717 79.2324C250.342 79.248 250.92 78.9668 251.451 78.3887L252.061 78.9043C251.795 79.2871 251.451 79.5879 251.029 79.8066C250.611 80.0215 250.145 80.125 249.629 80.1172ZM250.303 74.4277C249.865 74.416 249.482 74.5645 249.154 74.873C248.83 75.1816 248.572 75.6406 248.381 76.25L251.463 76.2559L251.486 76.1621C251.549 75.6699 251.469 75.2617 251.246 74.9375C251.027 74.6094 250.713 74.4395 250.303 74.4277ZM255.201 73.6543L255.066 74.3633C255.598 73.8008 256.24 73.5273 256.994 73.543C257.396 73.5508 257.736 73.6426 258.014 73.8184C258.295 73.9941 258.488 74.2422 258.594 74.5625C259.188 73.8672 259.889 73.5273 260.697 73.543C261.33 73.5586 261.797 73.7715 262.098 74.1816C262.398 74.5918 262.51 75.1426 262.432 75.834L261.734 80H260.68L261.371 75.8223C261.395 75.6191 261.395 75.4336 261.371 75.2656C261.297 74.7344 260.949 74.4629 260.328 74.4512C259.941 74.4434 259.59 74.5645 259.273 74.8145C258.961 75.0605 258.76 75.3848 258.67 75.7871L257.949 80H256.883L257.586 75.8281C257.637 75.3945 257.57 75.0605 257.387 74.8262C257.207 74.5918 256.926 74.4707 256.543 74.4629C255.883 74.4473 255.357 74.748 254.967 75.3652L254.164 80H253.104L254.205 73.6602L255.201 73.6543ZM266.48 80L267.963 71.4688L270.465 71.4746C271.336 71.4746 271.988 71.6699 272.422 72.0605C272.855 72.4512 273.045 72.9961 272.99 73.6953C272.92 74.5117 272.406 75.127 271.449 75.541C271.832 75.6895 272.117 75.9434 272.305 76.3027C272.496 76.6621 272.574 77.0586 272.539 77.4922C272.48 78.2617 272.172 78.873 271.613 79.3262C271.055 79.7754 270.332 80 269.445 80H266.48ZM268.273 76.0098L267.74 79.0801L269.48 79.0859C270.012 79.0859 270.457 78.9434 270.816 78.6582C271.176 78.373 271.385 77.9883 271.443 77.5039C271.498 77.043 271.418 76.6836 271.203 76.4258C270.988 76.168 270.65 76.0312 270.189 76.0156L268.273 76.0098ZM268.432 75.1074L270.02 75.1133C270.516 75.1133 270.934 74.9863 271.273 74.7324C271.617 74.4785 271.818 74.1289 271.877 73.6836C271.928 73.2695 271.846 72.957 271.631 72.7461C271.42 72.5352 271.068 72.4199 270.576 72.4004L268.9 72.3945L268.432 75.1074ZM275.885 75.207L276.588 75.2129C277.104 75.2129 277.537 75.0781 277.889 74.8086C278.244 74.5352 278.447 74.166 278.498 73.7012C278.549 73.248 278.465 72.8926 278.246 72.6348C278.027 72.373 277.709 72.2383 277.291 72.2305C276.846 72.2227 276.467 72.3535 276.154 72.623C275.846 72.8887 275.656 73.248 275.586 73.7012L274.537 73.707C274.604 73.0039 274.902 72.4336 275.434 71.9961C275.969 71.5547 276.605 71.3379 277.344 71.3457C278.059 71.3613 278.619 71.5859 279.025 72.0195C279.436 72.4492 279.613 73.0176 279.559 73.7246C279.523 74.127 279.369 74.4941 279.096 74.8262C278.822 75.1582 278.443 75.4336 277.959 75.6523C278.346 75.8086 278.635 76.0566 278.826 76.3965C279.018 76.7324 279.098 77.127 279.066 77.5801C279.004 78.3496 278.697 78.9688 278.146 79.4375C277.6 79.9062 276.934 80.1328 276.148 80.1172C275.418 80.1016 274.836 79.875 274.402 79.4375C273.969 79 273.768 78.4355 273.799 77.7441L274.859 77.75C274.836 78.1875 274.941 78.541 275.176 78.8105C275.41 79.0762 275.75 79.2168 276.195 79.2324C276.695 79.248 277.111 79.1055 277.443 78.8047C277.775 78.5039 277.965 78.1016 278.012 77.5977C278.055 77.1328 277.949 76.7715 277.695 76.5137C277.441 76.252 277.062 76.1133 276.559 76.0977L275.744 76.0918L275.885 75.207Z" fill="black"/>
<path d="M62.293 192.893H59.6797V200H57.9219V192.893H55.3438V191.469H62.293V192.893ZM67.4141 198.242H64.332L63.7461 200H61.877L65.0527 191.469H66.6816L69.875 200H68.0059L67.4141 198.242ZM64.8066 196.818H66.9395L65.8672 193.625L64.8066 196.818ZM70.6719 200V191.469H73.6602C74.6953 191.469 75.4805 191.668 76.0156 192.066C76.5508 192.461 76.8184 193.041 76.8184 193.807C76.8184 194.225 76.7109 194.594 76.4961 194.914C76.2812 195.23 75.9824 195.463 75.5996 195.611C76.0371 195.721 76.3809 195.941 76.6309 196.273C76.8848 196.605 77.0117 197.012 77.0117 197.492C77.0117 198.312 76.75 198.934 76.2266 199.355C75.7031 199.777 74.957 199.992 73.9883 200H70.6719ZM72.4297 196.285V198.588H73.9355C74.3496 198.588 74.6719 198.49 74.9023 198.295C75.1367 198.096 75.2539 197.822 75.2539 197.475C75.2539 196.693 74.8496 196.297 74.041 196.285H72.4297ZM72.4297 195.043H73.7305C74.6172 195.027 75.0605 194.674 75.0605 193.982C75.0605 193.596 74.9473 193.318 74.7207 193.15C74.498 192.979 74.1445 192.893 73.6602 192.893H72.4297V195.043ZM80.0938 198.588H83.8262V200H78.3359V191.469H80.0938V198.588ZM89.9727 196.303H86.5977V198.588H90.5586V200H84.8398V191.469H90.5469V192.893H86.5977V194.926H89.9727V196.303ZM99.3945 198.242H96.3125L95.7266 200H93.8574L97.0332 191.469H98.6621L101.855 200H99.9863L99.3945 198.242ZM96.7871 196.818H98.9199L97.8477 193.625L96.7871 196.818Z" fill="black"/>
<line x1="29" y1="213.5" x2="128" y2="213.5" stroke="black"/>
<line x1="29" y1="244.5" x2="128" y2="244.5" stroke="black"/>
<line x1="29" y1="274.5" x2="129" y2="274.5" stroke="black"/>
<line x1="214" y1="213.5" x2="314" y2="213.5" stroke="black"/>
<line x1="214" y1="243.5" x2="314" y2="243.5" stroke="black"/>
<line x1="214" y1="274.5" x2="314" y2="274.5" stroke="black"/>
<line x1="213.995" y1="304.5" x2="313.995" y2="303.5" stroke="black"/>
<path d="M56.1836 226H55.0996V219.66H56.1836V226ZM55.0117 217.979C55.0117 217.803 55.0645 217.654 55.1699 217.533C55.2793 217.412 55.4395 217.352 55.6504 217.352C55.8613 217.352 56.0215 217.412 56.1309 217.533C56.2402 217.654 56.2949 217.803 56.2949 217.979C56.2949 218.154 56.2402 218.301 56.1309 218.418C56.0215 218.535 55.8613 218.594 55.6504 218.594C55.4395 218.594 55.2793 218.535 55.1699 218.418C55.0645 218.301 55.0117 218.154 55.0117 217.979ZM59.3945 218.125V219.66H60.5781V220.498H59.3945V224.43C59.3945 224.684 59.4473 224.875 59.5527 225.004C59.6582 225.129 59.8379 225.191 60.0918 225.191C60.2168 225.191 60.3887 225.168 60.6074 225.121V226C60.3223 226.078 60.0449 226.117 59.7754 226.117C59.291 226.117 58.9258 225.971 58.6797 225.678C58.4336 225.385 58.3105 224.969 58.3105 224.43V220.498H57.1562V219.66H58.3105V218.125H59.3945ZM64.4805 226.117C63.6211 226.117 62.9219 225.836 62.3828 225.273C61.8438 224.707 61.5742 223.951 61.5742 223.006V222.807C61.5742 222.178 61.6934 221.617 61.9316 221.125C62.1738 220.629 62.5098 220.242 62.9395 219.965C63.373 219.684 63.8418 219.543 64.3457 219.543C65.1699 219.543 65.8105 219.814 66.2676 220.357C66.7246 220.9 66.9531 221.678 66.9531 222.689V223.141H62.6582C62.6738 223.766 62.8555 224.271 63.2031 224.658C63.5547 225.041 64 225.232 64.5391 225.232C64.9219 225.232 65.2461 225.154 65.5117 224.998C65.7773 224.842 66.0098 224.635 66.209 224.377L66.8711 224.893C66.3398 225.709 65.543 226.117 64.4805 226.117ZM64.3457 220.434C63.9082 220.434 63.541 220.594 63.2441 220.914C62.9473 221.23 62.7637 221.676 62.6934 222.25H65.8691V222.168C65.8379 221.617 65.6895 221.191 65.4238 220.891C65.1582 220.586 64.7988 220.434 64.3457 220.434ZM69.2324 219.66L69.2617 220.363C69.7266 219.816 70.3535 219.543 71.1426 219.543C72.0293 219.543 72.6328 219.883 72.9531 220.562C73.1641 220.258 73.4375 220.012 73.7734 219.824C74.1133 219.637 74.5137 219.543 74.9746 219.543C76.3652 219.543 77.0723 220.279 77.0957 221.752V226H76.0117V221.816C76.0117 221.363 75.9082 221.025 75.7012 220.803C75.4941 220.576 75.1465 220.463 74.6582 220.463C74.2559 220.463 73.9219 220.584 73.6562 220.826C73.3906 221.064 73.2363 221.387 73.1934 221.793V226H72.1035V221.846C72.1035 220.924 71.6523 220.463 70.75 220.463C70.0391 220.463 69.5527 220.766 69.291 221.371V226H68.207V219.66H69.2324ZM86.5938 223.773H83.0195L82.2168 226H81.0566L84.3145 217.469H85.2988L88.5625 226H87.4082L86.5938 223.773ZM83.3594 222.848H86.2598L84.8066 218.857L83.3594 222.848ZM92.9922 226H91.9023V218.775L89.7168 219.578V218.594L92.8223 217.428H92.9922V226ZM96.2441 227.699L95.6289 227.277C95.9961 226.766 96.1875 226.238 96.2031 225.695V224.717H97.2637V225.566C97.2637 225.961 97.166 226.355 96.9707 226.75C96.7793 227.145 96.5371 227.461 96.2441 227.699ZM56.9336 236.9C56.9336 237.865 56.7129 238.643 56.2715 239.232C55.8301 239.822 55.2324 240.117 54.4785 240.117C53.709 240.117 53.1035 239.873 52.6621 239.385V242.438H51.5781V233.66H52.5684L52.6211 234.363C53.0625 233.816 53.6758 233.543 54.4609 233.543C55.2227 233.543 55.8242 233.83 56.2656 234.404C56.7109 234.979 56.9336 235.777 56.9336 236.801V236.9ZM55.8496 236.777C55.8496 236.062 55.6973 235.498 55.3926 235.084C55.0879 234.67 54.6699 234.463 54.1387 234.463C53.4824 234.463 52.9902 234.754 52.6621 235.336V238.365C52.9863 238.943 53.4824 239.232 54.1504 239.232C54.6699 239.232 55.082 239.027 55.3867 238.617C55.6953 238.203 55.8496 237.59 55.8496 236.777ZM61.3809 234.633C61.2168 234.605 61.0391 234.592 60.8477 234.592C60.1367 234.592 59.6543 234.895 59.4004 235.5V240H58.3164V233.66H59.3711L59.3887 234.393C59.7441 233.826 60.248 233.543 60.9004 233.543C61.1113 233.543 61.2715 233.57 61.3809 233.625V234.633ZM63.5605 240H62.4766V233.66H63.5605V240ZM62.3887 231.979C62.3887 231.803 62.4414 231.654 62.5469 231.533C62.6562 231.412 62.8164 231.352 63.0273 231.352C63.2383 231.352 63.3984 231.412 63.5078 231.533C63.6172 231.654 63.6719 231.803 63.6719 231.979C63.6719 232.154 63.6172 232.301 63.5078 232.418C63.3984 232.535 63.2383 232.594 63.0273 232.594C62.8164 232.594 62.6562 232.535 62.5469 232.418C62.4414 232.301 62.3887 232.154 62.3887 231.979ZM65.0137 236.771C65.0137 236.15 65.1348 235.592 65.377 235.096C65.623 234.6 65.9629 234.217 66.3965 233.947C66.834 233.678 67.332 233.543 67.8906 233.543C68.7539 233.543 69.4512 233.842 69.9824 234.439C70.5176 235.037 70.7852 235.832 70.7852 236.824V236.9C70.7852 237.518 70.666 238.072 70.4277 238.564C70.1934 239.053 69.8555 239.434 69.4141 239.707C68.9766 239.98 68.4727 240.117 67.9023 240.117C67.043 240.117 66.3457 239.818 65.8105 239.221C65.2793 238.623 65.0137 237.832 65.0137 236.848V236.771ZM66.1035 236.9C66.1035 237.604 66.2656 238.168 66.5898 238.594C66.918 239.02 67.3555 239.232 67.9023 239.232C68.4531 239.232 68.8906 239.018 69.2148 238.588C69.5391 238.154 69.7012 237.549 69.7012 236.771C69.7012 236.076 69.5352 235.514 69.2031 235.084C68.875 234.65 68.4375 234.434 67.8906 234.434C67.3555 234.434 66.9238 234.646 66.5957 235.072C66.2676 235.498 66.1035 236.107 66.1035 236.9ZM75.209 234.633C75.0449 234.605 74.8672 234.592 74.6758 234.592C73.9648 234.592 73.4824 234.895 73.2285 235.5V240H72.1445V233.66H73.1992L73.2168 234.393C73.5723 233.826 74.0762 233.543 74.7285 233.543C74.9395 233.543 75.0996 233.57 75.209 233.625V234.633ZM77.3887 240H76.3047V233.66H77.3887V240ZM76.2168 231.979C76.2168 231.803 76.2695 231.654 76.375 231.533C76.4844 231.412 76.6445 231.352 76.8555 231.352C77.0664 231.352 77.2266 231.412 77.3359 231.533C77.4453 231.654 77.5 231.803 77.5 231.979C77.5 232.154 77.4453 232.301 77.3359 232.418C77.2266 232.535 77.0664 232.594 76.8555 232.594C76.6445 232.594 76.4844 232.535 76.375 232.418C76.2695 232.301 76.2168 232.154 76.2168 231.979ZM80.5996 232.125V233.66H81.7832V234.498H80.5996V238.43C80.5996 238.684 80.6523 238.875 80.7578 239.004C80.8633 239.129 81.043 239.191 81.2969 239.191C81.4219 239.191 81.5938 239.168 81.8125 239.121V240C81.5273 240.078 81.25 240.117 80.9805 240.117C80.4961 240.117 80.1309 239.971 79.8848 239.678C79.6387 239.385 79.5156 238.969 79.5156 238.43V234.498H78.3613V233.66H79.5156V232.125H80.5996ZM85.1289 238.412L86.6055 233.66H87.7656L85.2168 240.979C84.8223 242.033 84.1953 242.561 83.3359 242.561L83.1309 242.543L82.7266 242.467V241.588L83.0195 241.611C83.3867 241.611 83.6719 241.537 83.875 241.389C84.082 241.24 84.252 240.969 84.3848 240.574L84.625 239.93L82.3633 233.66H83.5469L85.1289 238.412ZM93.6953 235.23H88.8086V234.287H93.6953V235.23ZM93.6953 237.662H88.8086V236.725H93.6953V237.662ZM100.803 240H95.2129V239.221L98.166 235.939C98.6035 235.443 98.9043 235.041 99.0684 234.732C99.2363 234.42 99.3203 234.098 99.3203 233.766C99.3203 233.32 99.1855 232.955 98.916 232.67C98.6465 232.385 98.2871 232.242 97.8379 232.242C97.2988 232.242 96.8789 232.396 96.5781 232.705C96.2812 233.01 96.1328 233.436 96.1328 233.982H95.0488C95.0488 233.197 95.3008 232.562 95.8047 232.078C96.3125 231.594 96.9902 231.352 97.8379 231.352C98.6309 231.352 99.2578 231.561 99.7188 231.979C100.18 232.393 100.41 232.945 100.41 233.637C100.41 234.477 99.875 235.477 98.8047 236.637L96.5195 239.115H100.803V240Z" fill="black"/>
<path d="M54.6836 257H53.5996V250.66H54.6836V257ZM53.5117 248.979C53.5117 248.803 53.5645 248.654 53.6699 248.533C53.7793 248.412 53.9395 248.352 54.1504 248.352C54.3613 248.352 54.5215 248.412 54.6309 248.533C54.7402 248.654 54.7949 248.803 54.7949 248.979C54.7949 249.154 54.7402 249.301 54.6309 249.418C54.5215 249.535 54.3613 249.594 54.1504 249.594C53.9395 249.594 53.7793 249.535 53.6699 249.418C53.5645 249.301 53.5117 249.154 53.5117 248.979ZM57.8945 249.125V250.66H59.0781V251.498H57.8945V255.43C57.8945 255.684 57.9473 255.875 58.0527 256.004C58.1582 256.129 58.3379 256.191 58.5918 256.191C58.7168 256.191 58.8887 256.168 59.1074 256.121V257C58.8223 257.078 58.5449 257.117 58.2754 257.117C57.791 257.117 57.4258 256.971 57.1797 256.678C56.9336 256.385 56.8105 255.969 56.8105 255.43V251.498H55.6562V250.66H56.8105V249.125H57.8945ZM62.9805 257.117C62.1211 257.117 61.4219 256.836 60.8828 256.273C60.3438 255.707 60.0742 254.951 60.0742 254.006V253.807C60.0742 253.178 60.1934 252.617 60.4316 252.125C60.6738 251.629 61.0098 251.242 61.4395 250.965C61.873 250.684 62.3418 250.543 62.8457 250.543C63.6699 250.543 64.3105 250.814 64.7676 251.357C65.2246 251.9 65.4531 252.678 65.4531 253.689V254.141H61.1582C61.1738 254.766 61.3555 255.271 61.7031 255.658C62.0547 256.041 62.5 256.232 63.0391 256.232C63.4219 256.232 63.7461 256.154 64.0117 255.998C64.2773 255.842 64.5098 255.635 64.709 255.377L65.3711 255.893C64.8398 256.709 64.043 257.117 62.9805 257.117ZM62.8457 251.434C62.4082 251.434 62.041 251.594 61.7441 251.914C61.4473 252.23 61.2637 252.676 61.1934 253.25H64.3691V253.168C64.3379 252.617 64.1895 252.191 63.9238 251.891C63.6582 251.586 63.2988 251.434 62.8457 251.434ZM67.7324 250.66L67.7617 251.363C68.2266 250.816 68.8535 250.543 69.6426 250.543C70.5293 250.543 71.1328 250.883 71.4531 251.562C71.6641 251.258 71.9375 251.012 72.2734 250.824C72.6133 250.637 73.0137 250.543 73.4746 250.543C74.8652 250.543 75.5723 251.279 75.5957 252.752V257H74.5117V252.816C74.5117 252.363 74.4082 252.025 74.2012 251.803C73.9941 251.576 73.6465 251.463 73.1582 251.463C72.7559 251.463 72.4219 251.584 72.1562 251.826C71.8906 252.064 71.7363 252.387 71.6934 252.793V257H70.6035V252.846C70.6035 251.924 70.1523 251.463 69.25 251.463C68.5391 251.463 68.0527 251.766 67.791 252.371V257H66.707V250.66H67.7324ZM85.0938 254.773H81.5195L80.7168 257H79.5566L82.8145 248.469H83.7988L87.0625 257H85.9082L85.0938 254.773ZM81.8594 253.848H84.7598L83.3066 249.857L81.8594 253.848ZM93.5195 257H87.9297V256.221L90.8828 252.939C91.3203 252.443 91.6211 252.041 91.7852 251.732C91.9531 251.42 92.0371 251.098 92.0371 250.766C92.0371 250.32 91.9023 249.955 91.6328 249.67C91.3633 249.385 91.0039 249.242 90.5547 249.242C90.0156 249.242 89.5957 249.396 89.2949 249.705C88.998 250.01 88.8496 250.436 88.8496 250.982H87.7656C87.7656 250.197 88.0176 249.562 88.5215 249.078C89.0293 248.594 89.707 248.352 90.5547 248.352C91.3477 248.352 91.9746 248.561 92.4355 248.979C92.8965 249.393 93.127 249.945 93.127 250.637C93.127 251.477 92.5918 252.477 91.5215 253.637L89.2363 256.115H93.5195V257ZM94.7441 258.699L94.1289 258.277C94.4961 257.766 94.6875 257.238 94.7031 256.695V255.717H95.7637V256.566C95.7637 256.961 95.666 257.355 95.4707 257.75C95.2793 258.145 95.0371 258.461 94.7441 258.699ZM55.4336 267.9C55.4336 268.865 55.2129 269.643 54.7715 270.232C54.3301 270.822 53.7324 271.117 52.9785 271.117C52.209 271.117 51.6035 270.873 51.1621 270.385V273.438H50.0781V264.66H51.0684L51.1211 265.363C51.5625 264.816 52.1758 264.543 52.9609 264.543C53.7227 264.543 54.3242 264.83 54.7656 265.404C55.2109 265.979 55.4336 266.777 55.4336 267.801V267.9ZM54.3496 267.777C54.3496 267.062 54.1973 266.498 53.8926 266.084C53.5879 265.67 53.1699 265.463 52.6387 265.463C51.9824 265.463 51.4902 265.754 51.1621 266.336V269.365C51.4863 269.943 51.9824 270.232 52.6504 270.232C53.1699 270.232 53.582 270.027 53.8867 269.617C54.1953 269.203 54.3496 268.59 54.3496 267.777ZM59.8809 265.633C59.7168 265.605 59.5391 265.592 59.3477 265.592C58.6367 265.592 58.1543 265.895 57.9004 266.5V271H56.8164V264.66H57.8711L57.8887 265.393C58.2441 264.826 58.748 264.543 59.4004 264.543C59.6113 264.543 59.7715 264.57 59.8809 264.625V265.633ZM62.0605 271H60.9766V264.66H62.0605V271ZM60.8887 262.979C60.8887 262.803 60.9414 262.654 61.0469 262.533C61.1562 262.412 61.3164 262.352 61.5273 262.352C61.7383 262.352 61.8984 262.412 62.0078 262.533C62.1172 262.654 62.1719 262.803 62.1719 262.979C62.1719 263.154 62.1172 263.301 62.0078 263.418C61.8984 263.535 61.7383 263.594 61.5273 263.594C61.3164 263.594 61.1562 263.535 61.0469 263.418C60.9414 263.301 60.8887 263.154 60.8887 262.979ZM63.5137 267.771C63.5137 267.15 63.6348 266.592 63.877 266.096C64.123 265.6 64.4629 265.217 64.8965 264.947C65.334 264.678 65.832 264.543 66.3906 264.543C67.2539 264.543 67.9512 264.842 68.4824 265.439C69.0176 266.037 69.2852 266.832 69.2852 267.824V267.9C69.2852 268.518 69.166 269.072 68.9277 269.564C68.6934 270.053 68.3555 270.434 67.9141 270.707C67.4766 270.98 66.9727 271.117 66.4023 271.117C65.543 271.117 64.8457 270.818 64.3105 270.221C63.7793 269.623 63.5137 268.832 63.5137 267.848V267.771ZM64.6035 267.9C64.6035 268.604 64.7656 269.168 65.0898 269.594C65.418 270.02 65.8555 270.232 66.4023 270.232C66.9531 270.232 67.3906 270.018 67.7148 269.588C68.0391 269.154 68.2012 268.549 68.2012 267.771C68.2012 267.076 68.0352 266.514 67.7031 266.084C67.375 265.65 66.9375 265.434 66.3906 265.434C65.8555 265.434 65.4238 265.646 65.0957 266.072C64.7676 266.498 64.6035 267.107 64.6035 267.9ZM73.709 265.633C73.5449 265.605 73.3672 265.592 73.1758 265.592C72.4648 265.592 71.9824 265.895 71.7285 266.5V271H70.6445V264.66H71.6992L71.7168 265.393C72.0723 264.826 72.5762 264.543 73.2285 264.543C73.4395 264.543 73.5996 264.57 73.709 264.625V265.633ZM75.8887 271H74.8047V264.66H75.8887V271ZM74.7168 262.979C74.7168 262.803 74.7695 262.654 74.875 262.533C74.9844 262.412 75.1445 262.352 75.3555 262.352C75.5664 262.352 75.7266 262.412 75.8359 262.533C75.9453 262.654 76 262.803 76 262.979C76 263.154 75.9453 263.301 75.8359 263.418C75.7266 263.535 75.5664 263.594 75.3555 263.594C75.1445 263.594 74.9844 263.535 74.875 263.418C74.7695 263.301 74.7168 263.154 74.7168 262.979ZM79.0996 263.125V264.66H80.2832V265.498H79.0996V269.43C79.0996 269.684 79.1523 269.875 79.2578 270.004C79.3633 270.129 79.543 270.191 79.7969 270.191C79.9219 270.191 80.0938 270.168 80.3125 270.121V271C80.0273 271.078 79.75 271.117 79.4805 271.117C78.9961 271.117 78.6309 270.971 78.3848 270.678C78.1387 270.385 78.0156 269.969 78.0156 269.43V265.498H76.8613V264.66H78.0156V263.125H79.0996ZM83.6289 269.412L85.1055 264.66H86.2656L83.7168 271.979C83.3223 273.033 82.6953 273.561 81.8359 273.561L81.6309 273.543L81.2266 273.467V272.588L81.5195 272.611C81.8867 272.611 82.1719 272.537 82.375 272.389C82.582 272.24 82.752 271.969 82.8848 271.574L83.125 270.93L80.8633 264.66H82.0469L83.6289 269.412ZM92.1953 266.23H87.3086V265.287H92.1953V266.23ZM92.1953 268.662H87.3086V267.725H92.1953V268.662ZM97.2754 271H96.1855V263.775L94 264.578V263.594L97.1055 262.428H97.2754V271Z" fill="black"/>
<path d="M247.998 191.893H245.385V199H243.627V191.893H241.049V190.469H247.998V191.893ZM253.119 197.242H250.037L249.451 199H247.582L250.758 190.469H252.387L255.58 199H253.711L253.119 197.242ZM250.512 195.818H252.645L251.572 192.625L250.512 195.818ZM256.377 199V190.469H259.365C260.4 190.469 261.186 190.668 261.721 191.066C262.256 191.461 262.523 192.041 262.523 192.807C262.523 193.225 262.416 193.594 262.201 193.914C261.986 194.23 261.688 194.463 261.305 194.611C261.742 194.721 262.086 194.941 262.336 195.273C262.59 195.605 262.717 196.012 262.717 196.492C262.717 197.312 262.455 197.934 261.932 198.355C261.408 198.777 260.662 198.992 259.693 199H256.377ZM258.135 195.285V197.588H259.641C260.055 197.588 260.377 197.49 260.607 197.295C260.842 197.096 260.959 196.822 260.959 196.475C260.959 195.693 260.555 195.297 259.746 195.285H258.135ZM258.135 194.043H259.436C260.322 194.027 260.766 193.674 260.766 192.982C260.766 192.596 260.652 192.318 260.426 192.15C260.203 191.979 259.85 191.893 259.365 191.893H258.135V194.043ZM265.799 197.588H269.531V199H264.041V190.469H265.799V197.588ZM275.678 195.303H272.303V197.588H276.264V199H270.545V190.469H276.252V191.893H272.303V193.926H275.678V195.303ZM280.283 199V190.469H283.271C284.307 190.469 285.092 190.668 285.627 191.066C286.162 191.461 286.43 192.041 286.43 192.807C286.43 193.225 286.322 193.594 286.107 193.914C285.893 194.23 285.594 194.463 285.211 194.611C285.648 194.721 285.992 194.941 286.242 195.273C286.496 195.605 286.623 196.012 286.623 196.492C286.623 197.312 286.361 197.934 285.838 198.355C285.314 198.777 284.568 198.992 283.6 199H280.283ZM282.041 195.285V197.588H283.547C283.961 197.588 284.283 197.49 284.514 197.295C284.748 197.096 284.865 196.822 284.865 196.475C284.865 195.693 284.461 195.297 283.652 195.285H282.041ZM282.041 194.043H283.342C284.229 194.027 284.672 193.674 284.672 192.982C284.672 192.596 284.559 192.318 284.332 192.15C284.109 191.979 283.756 191.893 283.271 191.893H282.041V194.043Z" fill="black"/>
<path d="M240.859 225H239.775V218.66H240.859V225ZM239.688 216.979C239.688 216.803 239.74 216.654 239.846 216.533C239.955 216.412 240.115 216.352 240.326 216.352C240.537 216.352 240.697 216.412 240.807 216.533C240.916 216.654 240.971 216.803 240.971 216.979C240.971 217.154 240.916 217.301 240.807 217.418C240.697 217.535 240.537 217.594 240.326 217.594C240.115 217.594 239.955 217.535 239.846 217.418C239.74 217.301 239.688 217.154 239.688 216.979ZM244.07 217.125V218.66H245.254V219.498H244.07V223.43C244.07 223.684 244.123 223.875 244.229 224.004C244.334 224.129 244.514 224.191 244.768 224.191C244.893 224.191 245.064 224.168 245.283 224.121V225C244.998 225.078 244.721 225.117 244.451 225.117C243.967 225.117 243.602 224.971 243.355 224.678C243.109 224.385 242.986 223.969 242.986 223.43V219.498H241.832V218.66H242.986V217.125H244.07ZM249.156 225.117C248.297 225.117 247.598 224.836 247.059 224.273C246.52 223.707 246.25 222.951 246.25 222.006V221.807C246.25 221.178 246.369 220.617 246.607 220.125C246.85 219.629 247.186 219.242 247.615 218.965C248.049 218.684 248.518 218.543 249.021 218.543C249.846 218.543 250.486 218.814 250.943 219.357C251.4 219.9 251.629 220.678 251.629 221.689V222.141H247.334C247.35 222.766 247.531 223.271 247.879 223.658C248.23 224.041 248.676 224.232 249.215 224.232C249.598 224.232 249.922 224.154 250.188 223.998C250.453 223.842 250.686 223.635 250.885 223.377L251.547 223.893C251.016 224.709 250.219 225.117 249.156 225.117ZM249.021 219.434C248.584 219.434 248.217 219.594 247.92 219.914C247.623 220.23 247.439 220.676 247.369 221.25H250.545V221.168C250.514 220.617 250.365 220.191 250.1 219.891C249.834 219.586 249.475 219.434 249.021 219.434ZM253.908 218.66L253.938 219.363C254.402 218.816 255.029 218.543 255.818 218.543C256.705 218.543 257.309 218.883 257.629 219.562C257.84 219.258 258.113 219.012 258.449 218.824C258.789 218.637 259.189 218.543 259.65 218.543C261.041 218.543 261.748 219.279 261.771 220.752V225H260.688V220.816C260.688 220.363 260.584 220.025 260.377 219.803C260.17 219.576 259.822 219.463 259.334 219.463C258.932 219.463 258.598 219.584 258.332 219.826C258.066 220.064 257.912 220.387 257.869 220.793V225H256.779V220.846C256.779 219.924 256.328 219.463 255.426 219.463C254.715 219.463 254.229 219.766 253.967 220.371V225H252.883V218.66H253.908ZM266.559 225V216.469H269.348C270.273 216.469 270.969 216.66 271.434 217.043C271.902 217.426 272.137 217.992 272.137 218.742C272.137 219.141 272.023 219.494 271.797 219.803C271.57 220.107 271.262 220.344 270.871 220.512C271.332 220.641 271.695 220.887 271.961 221.25C272.23 221.609 272.365 222.039 272.365 222.539C272.365 223.305 272.117 223.906 271.621 224.344C271.125 224.781 270.424 225 269.518 225H266.559ZM267.684 221.01V224.08H269.541C270.064 224.08 270.477 223.945 270.777 223.676C271.082 223.402 271.234 223.027 271.234 222.551C271.234 221.523 270.676 221.01 269.559 221.01H267.684ZM267.684 220.107H269.383C269.875 220.107 270.268 219.984 270.561 219.738C270.857 219.492 271.006 219.158 271.006 218.736C271.006 218.268 270.869 217.928 270.596 217.717C270.322 217.502 269.906 217.395 269.348 217.395H267.684V220.107ZM277.316 225H276.227V217.775L274.041 218.578V217.594L277.146 216.428H277.316V225ZM280.568 226.699L279.953 226.277C280.32 225.766 280.512 225.238 280.527 224.695V223.717H281.588V224.566C281.588 224.961 281.49 225.355 281.295 225.75C281.104 226.145 280.861 226.461 280.568 226.699ZM241.434 235.9C241.434 236.865 241.213 237.643 240.771 238.232C240.33 238.822 239.732 239.117 238.979 239.117C238.209 239.117 237.604 238.873 237.162 238.385V241.438H236.078V232.66H237.068L237.121 233.363C237.562 232.816 238.176 232.543 238.961 232.543C239.723 232.543 240.324 232.83 240.766 233.404C241.211 233.979 241.434 234.777 241.434 235.801V235.9ZM240.35 235.777C240.35 235.062 240.197 234.498 239.893 234.084C239.588 233.67 239.17 233.463 238.639 233.463C237.982 233.463 237.49 233.754 237.162 234.336V237.365C237.486 237.943 237.982 238.232 238.65 238.232C239.17 238.232 239.582 238.027 239.887 237.617C240.195 237.203 240.35 236.59 240.35 235.777ZM245.881 233.633C245.717 233.605 245.539 233.592 245.348 233.592C244.637 233.592 244.154 233.895 243.9 234.5V239H242.816V232.66H243.871L243.889 233.393C244.244 232.826 244.748 232.543 245.4 232.543C245.611 232.543 245.771 232.57 245.881 232.625V233.633ZM248.061 239H246.977V232.66H248.061V239ZM246.889 230.979C246.889 230.803 246.941 230.654 247.047 230.533C247.156 230.412 247.316 230.352 247.527 230.352C247.738 230.352 247.898 230.412 248.008 230.533C248.117 230.654 248.172 230.803 248.172 230.979C248.172 231.154 248.117 231.301 248.008 231.418C247.898 231.535 247.738 231.594 247.527 231.594C247.316 231.594 247.156 231.535 247.047 231.418C246.941 231.301 246.889 231.154 246.889 230.979ZM249.514 235.771C249.514 235.15 249.635 234.592 249.877 234.096C250.123 233.6 250.463 233.217 250.896 232.947C251.334 232.678 251.832 232.543 252.391 232.543C253.254 232.543 253.951 232.842 254.482 233.439C255.018 234.037 255.285 234.832 255.285 235.824V235.9C255.285 236.518 255.166 237.072 254.928 237.564C254.693 238.053 254.355 238.434 253.914 238.707C253.477 238.98 252.973 239.117 252.402 239.117C251.543 239.117 250.846 238.818 250.311 238.221C249.779 237.623 249.514 236.832 249.514 235.848V235.771ZM250.604 235.9C250.604 236.604 250.766 237.168 251.09 237.594C251.418 238.02 251.855 238.232 252.402 238.232C252.953 238.232 253.391 238.018 253.715 237.588C254.039 237.154 254.201 236.549 254.201 235.771C254.201 235.076 254.035 234.514 253.703 234.084C253.375 233.65 252.938 233.434 252.391 233.434C251.855 233.434 251.424 233.646 251.096 234.072C250.768 234.498 250.604 235.107 250.604 235.9ZM259.709 233.633C259.545 233.605 259.367 233.592 259.176 233.592C258.465 233.592 257.982 233.895 257.729 234.5V239H256.645V232.66H257.699L257.717 233.393C258.072 232.826 258.576 232.543 259.229 232.543C259.439 232.543 259.6 232.57 259.709 232.625V233.633ZM261.889 239H260.805V232.66H261.889V239ZM260.717 230.979C260.717 230.803 260.77 230.654 260.875 230.533C260.984 230.412 261.145 230.352 261.355 230.352C261.566 230.352 261.727 230.412 261.836 230.533C261.945 230.654 262 230.803 262 230.979C262 231.154 261.945 231.301 261.836 231.418C261.727 231.535 261.566 231.594 261.355 231.594C261.145 231.594 260.984 231.535 260.875 231.418C260.77 231.301 260.717 231.154 260.717 230.979ZM265.1 231.125V232.66H266.283V233.498H265.1V237.43C265.1 237.684 265.152 237.875 265.258 238.004C265.363 238.129 265.543 238.191 265.797 238.191C265.922 238.191 266.094 238.168 266.312 238.121V239C266.027 239.078 265.75 239.117 265.48 239.117C264.996 239.117 264.631 238.971 264.385 238.678C264.139 238.385 264.016 237.969 264.016 237.43V233.498H262.861V232.66H264.016V231.125H265.1ZM269.629 237.412L271.105 232.66H272.266L269.717 239.979C269.322 241.033 268.695 241.561 267.836 241.561L267.631 241.543L267.227 241.467V240.588L267.52 240.611C267.887 240.611 268.172 240.537 268.375 240.389C268.582 240.24 268.752 239.969 268.885 239.574L269.125 238.93L266.863 232.66H268.047L269.629 237.412ZM278.195 234.23H273.309V233.287H278.195V234.23ZM278.195 236.662H273.309V235.725H278.195V236.662ZM281.289 234.207H282.104C282.615 234.199 283.018 234.064 283.311 233.803C283.604 233.541 283.75 233.188 283.75 232.742C283.75 231.742 283.252 231.242 282.256 231.242C281.787 231.242 281.412 231.377 281.131 231.646C280.854 231.912 280.715 232.266 280.715 232.707H279.631C279.631 232.031 279.877 231.471 280.369 231.025C280.865 230.576 281.494 230.352 282.256 230.352C283.061 230.352 283.691 230.564 284.148 230.99C284.605 231.416 284.834 232.008 284.834 232.766C284.834 233.137 284.713 233.496 284.471 233.844C284.232 234.191 283.906 234.451 283.492 234.623C283.961 234.771 284.322 235.018 284.576 235.361C284.834 235.705 284.963 236.125 284.963 236.621C284.963 237.387 284.713 237.994 284.213 238.443C283.713 238.893 283.062 239.117 282.262 239.117C281.461 239.117 280.809 238.9 280.305 238.467C279.805 238.033 279.555 237.461 279.555 236.75H280.645C280.645 237.199 280.791 237.559 281.084 237.828C281.377 238.098 281.77 238.232 282.262 238.232C282.785 238.232 283.186 238.096 283.463 237.822C283.74 237.549 283.879 237.156 283.879 236.645C283.879 236.148 283.727 235.768 283.422 235.502C283.117 235.236 282.678 235.1 282.104 235.092H281.289V234.207Z" fill="black"/>
<path d="M240.359 256H239.275V249.66H240.359V256ZM239.188 247.979C239.188 247.803 239.24 247.654 239.346 247.533C239.455 247.412 239.615 247.352 239.826 247.352C240.037 247.352 240.197 247.412 240.307 247.533C240.416 247.654 240.471 247.803 240.471 247.979C240.471 248.154 240.416 248.301 240.307 248.418C240.197 248.535 240.037 248.594 239.826 248.594C239.615 248.594 239.455 248.535 239.346 248.418C239.24 248.301 239.188 248.154 239.188 247.979ZM243.57 248.125V249.66H244.754V250.498H243.57V254.43C243.57 254.684 243.623 254.875 243.729 255.004C243.834 255.129 244.014 255.191 244.268 255.191C244.393 255.191 244.564 255.168 244.783 255.121V256C244.498 256.078 244.221 256.117 243.951 256.117C243.467 256.117 243.102 255.971 242.855 255.678C242.609 255.385 242.486 254.969 242.486 254.43V250.498H241.332V249.66H242.486V248.125H243.57ZM248.656 256.117C247.797 256.117 247.098 255.836 246.559 255.273C246.02 254.707 245.75 253.951 245.75 253.006V252.807C245.75 252.178 245.869 251.617 246.107 251.125C246.35 250.629 246.686 250.242 247.115 249.965C247.549 249.684 248.018 249.543 248.521 249.543C249.346 249.543 249.986 249.814 250.443 250.357C250.9 250.9 251.129 251.678 251.129 252.689V253.141H246.834C246.85 253.766 247.031 254.271 247.379 254.658C247.73 255.041 248.176 255.232 248.715 255.232C249.098 255.232 249.422 255.154 249.688 254.998C249.953 254.842 250.186 254.635 250.385 254.377L251.047 254.893C250.516 255.709 249.719 256.117 248.656 256.117ZM248.521 250.434C248.084 250.434 247.717 250.594 247.42 250.914C247.123 251.23 246.939 251.676 246.869 252.25H250.045V252.168C250.014 251.617 249.865 251.191 249.6 250.891C249.334 250.586 248.975 250.434 248.521 250.434ZM253.408 249.66L253.438 250.363C253.902 249.816 254.529 249.543 255.318 249.543C256.205 249.543 256.809 249.883 257.129 250.562C257.34 250.258 257.613 250.012 257.949 249.824C258.289 249.637 258.689 249.543 259.15 249.543C260.541 249.543 261.248 250.279 261.271 251.752V256H260.188V251.816C260.188 251.363 260.084 251.025 259.877 250.803C259.67 250.576 259.322 250.463 258.834 250.463C258.432 250.463 258.098 250.584 257.832 250.826C257.566 251.064 257.412 251.387 257.369 251.793V256H256.279V251.846C256.279 250.924 255.828 250.463 254.926 250.463C254.215 250.463 253.729 250.766 253.467 251.371V256H252.383V249.66H253.408ZM266.059 256V247.469H268.848C269.773 247.469 270.469 247.66 270.934 248.043C271.402 248.426 271.637 248.992 271.637 249.742C271.637 250.141 271.523 250.494 271.297 250.803C271.07 251.107 270.762 251.344 270.371 251.512C270.832 251.641 271.195 251.887 271.461 252.25C271.73 252.609 271.865 253.039 271.865 253.539C271.865 254.305 271.617 254.906 271.121 255.344C270.625 255.781 269.924 256 269.018 256H266.059ZM267.184 252.01V255.08H269.041C269.564 255.08 269.977 254.945 270.277 254.676C270.582 254.402 270.734 254.027 270.734 253.551C270.734 252.523 270.176 252.01 269.059 252.01H267.184ZM267.184 251.107H268.883C269.375 251.107 269.768 250.984 270.061 250.738C270.357 250.492 270.506 250.158 270.506 249.736C270.506 249.268 270.369 248.928 270.096 248.717C269.822 248.502 269.406 248.395 268.848 248.395H267.184V251.107ZM278.844 256H273.254V255.221L276.207 251.939C276.645 251.443 276.945 251.041 277.109 250.732C277.277 250.42 277.361 250.098 277.361 249.766C277.361 249.32 277.227 248.955 276.957 248.67C276.688 248.385 276.328 248.242 275.879 248.242C275.34 248.242 274.92 248.396 274.619 248.705C274.322 249.01 274.174 249.436 274.174 249.982H273.09C273.09 249.197 273.342 248.562 273.846 248.078C274.354 247.594 275.031 247.352 275.879 247.352C276.672 247.352 277.299 247.561 277.76 247.979C278.221 248.393 278.451 248.945 278.451 249.637C278.451 250.477 277.916 251.477 276.846 252.637L274.561 255.115H278.844V256ZM280.068 257.699L279.453 257.277C279.82 256.766 280.012 256.238 280.027 255.695V254.717H281.088V255.566C281.088 255.961 280.99 256.355 280.795 256.75C280.604 257.145 280.361 257.461 280.068 257.699ZM240.934 266.9C240.934 267.865 240.713 268.643 240.271 269.232C239.83 269.822 239.232 270.117 238.479 270.117C237.709 270.117 237.104 269.873 236.662 269.385V272.438H235.578V263.66H236.568L236.621 264.363C237.062 263.816 237.676 263.543 238.461 263.543C239.223 263.543 239.824 263.83 240.266 264.404C240.711 264.979 240.934 265.777 240.934 266.801V266.9ZM239.85 266.777C239.85 266.062 239.697 265.498 239.393 265.084C239.088 264.67 238.67 264.463 238.139 264.463C237.482 264.463 236.99 264.754 236.662 265.336V268.365C236.986 268.943 237.482 269.232 238.15 269.232C238.67 269.232 239.082 269.027 239.387 268.617C239.695 268.203 239.85 267.59 239.85 266.777ZM245.381 264.633C245.217 264.605 245.039 264.592 244.848 264.592C244.137 264.592 243.654 264.895 243.4 265.5V270H242.316V263.66H243.371L243.389 264.393C243.744 263.826 244.248 263.543 244.9 263.543C245.111 263.543 245.271 263.57 245.381 263.625V264.633ZM247.561 270H246.477V263.66H247.561V270ZM246.389 261.979C246.389 261.803 246.441 261.654 246.547 261.533C246.656 261.412 246.816 261.352 247.027 261.352C247.238 261.352 247.398 261.412 247.508 261.533C247.617 261.654 247.672 261.803 247.672 261.979C247.672 262.154 247.617 262.301 247.508 262.418C247.398 262.535 247.238 262.594 247.027 262.594C246.816 262.594 246.656 262.535 246.547 262.418C246.441 262.301 246.389 262.154 246.389 261.979ZM249.014 266.771C249.014 266.15 249.135 265.592 249.377 265.096C249.623 264.6 249.963 264.217 250.396 263.947C250.834 263.678 251.332 263.543 251.891 263.543C252.754 263.543 253.451 263.842 253.982 264.439C254.518 265.037 254.785 265.832 254.785 266.824V266.9C254.785 267.518 254.666 268.072 254.428 268.564C254.193 269.053 253.855 269.434 253.414 269.707C252.977 269.98 252.473 270.117 251.902 270.117C251.043 270.117 250.346 269.818 249.811 269.221C249.279 268.623 249.014 267.832 249.014 266.848V266.771ZM250.104 266.9C250.104 267.604 250.266 268.168 250.59 268.594C250.918 269.02 251.355 269.232 251.902 269.232C252.453 269.232 252.891 269.018 253.215 268.588C253.539 268.154 253.701 267.549 253.701 266.771C253.701 266.076 253.535 265.514 253.203 265.084C252.875 264.65 252.438 264.434 251.891 264.434C251.355 264.434 250.924 264.646 250.596 265.072C250.268 265.498 250.104 266.107 250.104 266.9ZM259.209 264.633C259.045 264.605 258.867 264.592 258.676 264.592C257.965 264.592 257.482 264.895 257.229 265.5V270H256.145V263.66H257.199L257.217 264.393C257.572 263.826 258.076 263.543 258.729 263.543C258.939 263.543 259.1 263.57 259.209 263.625V264.633ZM261.389 270H260.305V263.66H261.389V270ZM260.217 261.979C260.217 261.803 260.27 261.654 260.375 261.533C260.484 261.412 260.645 261.352 260.855 261.352C261.066 261.352 261.227 261.412 261.336 261.533C261.445 261.654 261.5 261.803 261.5 261.979C261.5 262.154 261.445 262.301 261.336 262.418C261.227 262.535 261.066 262.594 260.855 262.594C260.645 262.594 260.484 262.535 260.375 262.418C260.27 262.301 260.217 262.154 260.217 261.979ZM264.6 262.125V263.66H265.783V264.498H264.6V268.43C264.6 268.684 264.652 268.875 264.758 269.004C264.863 269.129 265.043 269.191 265.297 269.191C265.422 269.191 265.594 269.168 265.812 269.121V270C265.527 270.078 265.25 270.117 264.98 270.117C264.496 270.117 264.131 269.971 263.885 269.678C263.639 269.385 263.516 268.969 263.516 268.43V264.498H262.361V263.66H263.516V262.125H264.6ZM269.129 268.412L270.605 263.66H271.766L269.217 270.979C268.822 272.033 268.195 272.561 267.336 272.561L267.131 272.543L266.727 272.467V271.588L267.02 271.611C267.387 271.611 267.672 271.537 267.875 271.389C268.082 271.24 268.252 270.969 268.385 270.574L268.625 269.93L266.363 263.66H267.547L269.129 268.412ZM277.695 265.23H272.809V264.287H277.695V265.23ZM277.695 267.662H272.809V266.725H277.695V267.662ZM284.803 270H279.213V269.221L282.166 265.939C282.604 265.443 282.904 265.041 283.068 264.732C283.236 264.42 283.32 264.098 283.32 263.766C283.32 263.32 283.186 262.955 282.916 262.67C282.646 262.385 282.287 262.242 281.838 262.242C281.299 262.242 280.879 262.396 280.578 262.705C280.281 263.01 280.133 263.436 280.133 263.982H279.049C279.049 263.197 279.301 262.562 279.805 262.078C280.312 261.594 280.99 261.352 281.838 261.352C282.631 261.352 283.258 261.561 283.719 261.979C284.18 262.393 284.41 262.945 284.41 263.637C284.41 264.477 283.875 265.477 282.805 266.637L280.52 269.115H284.803V270Z" fill="black"/>
<path d="M240.359 286H239.275V279.66H240.359V286ZM239.188 277.979C239.188 277.803 239.24 277.654 239.346 277.533C239.455 277.412 239.615 277.352 239.826 277.352C240.037 277.352 240.197 277.412 240.307 277.533C240.416 277.654 240.471 277.803 240.471 277.979C240.471 278.154 240.416 278.301 240.307 278.418C240.197 278.535 240.037 278.594 239.826 278.594C239.615 278.594 239.455 278.535 239.346 278.418C239.24 278.301 239.188 278.154 239.188 277.979ZM243.57 278.125V279.66H244.754V280.498H243.57V284.43C243.57 284.684 243.623 284.875 243.729 285.004C243.834 285.129 244.014 285.191 244.268 285.191C244.393 285.191 244.564 285.168 244.783 285.121V286C244.498 286.078 244.221 286.117 243.951 286.117C243.467 286.117 243.102 285.971 242.855 285.678C242.609 285.385 242.486 284.969 242.486 284.43V280.498H241.332V279.66H242.486V278.125H243.57ZM248.656 286.117C247.797 286.117 247.098 285.836 246.559 285.273C246.02 284.707 245.75 283.951 245.75 283.006V282.807C245.75 282.178 245.869 281.617 246.107 281.125C246.35 280.629 246.686 280.242 247.115 279.965C247.549 279.684 248.018 279.543 248.521 279.543C249.346 279.543 249.986 279.814 250.443 280.357C250.9 280.9 251.129 281.678 251.129 282.689V283.141H246.834C246.85 283.766 247.031 284.271 247.379 284.658C247.73 285.041 248.176 285.232 248.715 285.232C249.098 285.232 249.422 285.154 249.688 284.998C249.953 284.842 250.186 284.635 250.385 284.377L251.047 284.893C250.516 285.709 249.719 286.117 248.656 286.117ZM248.521 280.434C248.084 280.434 247.717 280.594 247.42 280.914C247.123 281.23 246.939 281.676 246.869 282.25H250.045V282.168C250.014 281.617 249.865 281.191 249.6 280.891C249.334 280.586 248.975 280.434 248.521 280.434ZM253.408 279.66L253.438 280.363C253.902 279.816 254.529 279.543 255.318 279.543C256.205 279.543 256.809 279.883 257.129 280.562C257.34 280.258 257.613 280.012 257.949 279.824C258.289 279.637 258.689 279.543 259.15 279.543C260.541 279.543 261.248 280.279 261.271 281.752V286H260.188V281.816C260.188 281.363 260.084 281.025 259.877 280.803C259.67 280.576 259.322 280.463 258.834 280.463C258.432 280.463 258.098 280.584 257.832 280.826C257.566 281.064 257.412 281.387 257.369 281.793V286H256.279V281.846C256.279 280.924 255.828 280.463 254.926 280.463C254.215 280.463 253.729 280.766 253.467 281.371V286H252.383V279.66H253.408ZM266.059 286V277.469H268.848C269.773 277.469 270.469 277.66 270.934 278.043C271.402 278.426 271.637 278.992 271.637 279.742C271.637 280.141 271.523 280.494 271.297 280.803C271.07 281.107 270.762 281.344 270.371 281.512C270.832 281.641 271.195 281.887 271.461 282.25C271.73 282.609 271.865 283.039 271.865 283.539C271.865 284.305 271.617 284.906 271.121 285.344C270.625 285.781 269.924 286 269.018 286H266.059ZM267.184 282.01V285.08H269.041C269.564 285.08 269.977 284.945 270.277 284.676C270.582 284.402 270.734 284.027 270.734 283.551C270.734 282.523 270.176 282.01 269.059 282.01H267.184ZM267.184 281.107H268.883C269.375 281.107 269.768 280.984 270.061 280.738C270.357 280.492 270.506 280.158 270.506 279.736C270.506 279.268 270.369 278.928 270.096 278.717C269.822 278.502 269.406 278.395 268.848 278.395H267.184V281.107ZM274.83 281.207H275.645C276.156 281.199 276.559 281.064 276.852 280.803C277.145 280.541 277.291 280.188 277.291 279.742C277.291 278.742 276.793 278.242 275.797 278.242C275.328 278.242 274.953 278.377 274.672 278.646C274.395 278.912 274.256 279.266 274.256 279.707H273.172C273.172 279.031 273.418 278.471 273.91 278.025C274.406 277.576 275.035 277.352 275.797 277.352C276.602 277.352 277.232 277.564 277.689 277.99C278.146 278.416 278.375 279.008 278.375 279.766C278.375 280.137 278.254 280.496 278.012 280.844C277.773 281.191 277.447 281.451 277.033 281.623C277.502 281.771 277.863 282.018 278.117 282.361C278.375 282.705 278.504 283.125 278.504 283.621C278.504 284.387 278.254 284.994 277.754 285.443C277.254 285.893 276.604 286.117 275.803 286.117C275.002 286.117 274.35 285.9 273.846 285.467C273.346 285.033 273.096 284.461 273.096 283.75H274.186C274.186 284.199 274.332 284.559 274.625 284.828C274.918 285.098 275.311 285.232 275.803 285.232C276.326 285.232 276.727 285.096 277.004 284.822C277.281 284.549 277.42 284.156 277.42 283.645C277.42 283.148 277.268 282.768 276.963 282.502C276.658 282.236 276.219 282.1 275.645 282.092H274.83V281.207ZM280.068 287.699L279.453 287.277C279.82 286.766 280.012 286.238 280.027 285.695V284.717H281.088V285.566C281.088 285.961 280.99 286.355 280.795 286.75C280.604 287.145 280.361 287.461 280.068 287.699ZM240.934 296.9C240.934 297.865 240.713 298.643 240.271 299.232C239.83 299.822 239.232 300.117 238.479 300.117C237.709 300.117 237.104 299.873 236.662 299.385V302.438H235.578V293.66H236.568L236.621 294.363C237.062 293.816 237.676 293.543 238.461 293.543C239.223 293.543 239.824 293.83 240.266 294.404C240.711 294.979 240.934 295.777 240.934 296.801V296.9ZM239.85 296.777C239.85 296.062 239.697 295.498 239.393 295.084C239.088 294.67 238.67 294.463 238.139 294.463C237.482 294.463 236.99 294.754 236.662 295.336V298.365C236.986 298.943 237.482 299.232 238.15 299.232C238.67 299.232 239.082 299.027 239.387 298.617C239.695 298.203 239.85 297.59 239.85 296.777ZM245.381 294.633C245.217 294.605 245.039 294.592 244.848 294.592C244.137 294.592 243.654 294.895 243.4 295.5V300H242.316V293.66H243.371L243.389 294.393C243.744 293.826 244.248 293.543 244.9 293.543C245.111 293.543 245.271 293.57 245.381 293.625V294.633ZM247.561 300H246.477V293.66H247.561V300ZM246.389 291.979C246.389 291.803 246.441 291.654 246.547 291.533C246.656 291.412 246.816 291.352 247.027 291.352C247.238 291.352 247.398 291.412 247.508 291.533C247.617 291.654 247.672 291.803 247.672 291.979C247.672 292.154 247.617 292.301 247.508 292.418C247.398 292.535 247.238 292.594 247.027 292.594C246.816 292.594 246.656 292.535 246.547 292.418C246.441 292.301 246.389 292.154 246.389 291.979ZM249.014 296.771C249.014 296.15 249.135 295.592 249.377 295.096C249.623 294.6 249.963 294.217 250.396 293.947C250.834 293.678 251.332 293.543 251.891 293.543C252.754 293.543 253.451 293.842 253.982 294.439C254.518 295.037 254.785 295.832 254.785 296.824V296.9C254.785 297.518 254.666 298.072 254.428 298.564C254.193 299.053 253.855 299.434 253.414 299.707C252.977 299.98 252.473 300.117 251.902 300.117C251.043 300.117 250.346 299.818 249.811 299.221C249.279 298.623 249.014 297.832 249.014 296.848V296.771ZM250.104 296.9C250.104 297.604 250.266 298.168 250.59 298.594C250.918 299.02 251.355 299.232 251.902 299.232C252.453 299.232 252.891 299.018 253.215 298.588C253.539 298.154 253.701 297.549 253.701 296.771C253.701 296.076 253.535 295.514 253.203 295.084C252.875 294.65 252.438 294.434 251.891 294.434C251.355 294.434 250.924 294.646 250.596 295.072C250.268 295.498 250.104 296.107 250.104 296.9ZM259.209 294.633C259.045 294.605 258.867 294.592 258.676 294.592C257.965 294.592 257.482 294.895 257.229 295.5V300H256.145V293.66H257.199L257.217 294.393C257.572 293.826 258.076 293.543 258.729 293.543C258.939 293.543 259.1 293.57 259.209 293.625V294.633ZM261.389 300H260.305V293.66H261.389V300ZM260.217 291.979C260.217 291.803 260.27 291.654 260.375 291.533C260.484 291.412 260.645 291.352 260.855 291.352C261.066 291.352 261.227 291.412 261.336 291.533C261.445 291.654 261.5 291.803 261.5 291.979C261.5 292.154 261.445 292.301 261.336 292.418C261.227 292.535 261.066 292.594 260.855 292.594C260.645 292.594 260.484 292.535 260.375 292.418C260.27 292.301 260.217 292.154 260.217 291.979ZM264.6 292.125V293.66H265.783V294.498H264.6V298.43C264.6 298.684 264.652 298.875 264.758 299.004C264.863 299.129 265.043 299.191 265.297 299.191C265.422 299.191 265.594 299.168 265.812 299.121V300C265.527 300.078 265.25 300.117 264.98 300.117C264.496 300.117 264.131 299.971 263.885 299.678C263.639 299.385 263.516 298.969 263.516 298.43V294.498H262.361V293.66H263.516V292.125H264.6ZM269.129 298.412L270.605 293.66H271.766L269.217 300.979C268.822 302.033 268.195 302.561 267.336 302.561L267.131 302.543L266.727 302.467V301.588L267.02 301.611C267.387 301.611 267.672 301.537 267.875 301.389C268.082 301.24 268.252 300.969 268.385 300.574L268.625 299.93L266.363 293.66H267.547L269.129 298.412ZM277.695 295.23H272.809V294.287H277.695V295.23ZM277.695 297.662H272.809V296.725H277.695V297.662ZM282.775 300H281.686V292.775L279.5 293.578V292.594L282.605 291.428H282.775V300Z" fill="black"/>
<rect x="13.5" y="89.5" width="310" height="69" rx="4.5" stroke="black"/>
</svg>

