<svg xmlns="http://www.w3.org/2000/svg" width="520" height="143" viewBox="0 0 520 143" fill="none">
<line id="Line 1" x1="170" y1="32.5" x2="512" y2="32.5" stroke="black" stroke-width="3"/>
<line id="Line 2" x1="170.5" y1="23" x2="170.5" y2="45" stroke="black"/>
<line id="Line 9" x1="227.5" y1="23" x2="227.5" y2="45" stroke="black"/>
<line id="Line 8" x1="284.5" y1="23" x2="284.5" y2="45" stroke="black"/>
<line id="Line 7" x1="170.5" y1="23" x2="170.5" y2="45" stroke="black"/>
<line id="Line 6" x1="455.5" y1="23" x2="455.5" y2="45" stroke="black"/>
<line id="Line 5" x1="398.5" y1="23" x2="398.5" y2="45" stroke="black"/>
<line id="Line 4" x1="341.5" y1="23" x2="341.5" y2="45" stroke="black"/>
<line id="Line 3" x1="512.5" y1="23" x2="512.5" y2="45" stroke="black"/>
<path id="-3" d="M167.076 5.81836H164.217V4.93359H167.076V5.81836ZM169.602 4.20703H170.416C170.928 4.19922 171.33 4.06445 171.623 3.80273C171.916 3.54102 172.062 3.1875 172.062 2.74219C172.062 1.74219 171.564 1.24219 170.568 1.24219C170.1 1.24219 169.725 1.37695 169.443 1.64648C169.166 1.91211 169.027 2.26562 169.027 2.70703H167.943C167.943 2.03125 168.189 1.4707 168.682 1.02539C169.178 0.576172 169.807 0.351562 170.568 0.351562C171.373 0.351562 172.004 0.564453 172.461 0.990234C172.918 1.41602 173.146 2.00781 173.146 2.76562C173.146 3.13672 173.025 3.49609 172.783 3.84375C172.545 4.19141 172.219 4.45117 171.805 4.62305C172.273 4.77148 172.635 5.01758 172.889 5.36133C173.146 5.70508 173.275 6.125 173.275 6.62109C173.275 7.38672 173.025 7.99414 172.525 8.44336C172.025 8.89258 171.375 9.11719 170.574 9.11719C169.773 9.11719 169.121 8.90039 168.617 8.4668C168.117 8.0332 167.867 7.46094 167.867 6.75H168.957C168.957 7.19922 169.104 7.55859 169.396 7.82812C169.689 8.09766 170.082 8.23242 170.574 8.23242C171.098 8.23242 171.498 8.0957 171.775 7.82227C172.053 7.54883 172.191 7.15625 172.191 6.64453C172.191 6.14844 172.039 5.76758 171.734 5.50195C171.43 5.23633 170.99 5.09961 170.416 5.0918H169.602V4.20703Z" fill="black"/>
<path id="3" d="M511.285 4.20703H512.1C512.611 4.19922 513.014 4.06445 513.307 3.80273C513.6 3.54102 513.746 3.1875 513.746 2.74219C513.746 1.74219 513.248 1.24219 512.252 1.24219C511.783 1.24219 511.408 1.37695 511.127 1.64648C510.85 1.91211 510.711 2.26562 510.711 2.70703H509.627C509.627 2.03125 509.873 1.4707 510.365 1.02539C510.861 0.576172 511.49 0.351562 512.252 0.351562C513.057 0.351562 513.688 0.564453 514.145 0.990234C514.602 1.41602 514.83 2.00781 514.83 2.76562C514.83 3.13672 514.709 3.49609 514.467 3.84375C514.229 4.19141 513.902 4.45117 513.488 4.62305C513.957 4.77148 514.318 5.01758 514.572 5.36133C514.83 5.70508 514.959 6.125 514.959 6.62109C514.959 7.38672 514.709 7.99414 514.209 8.44336C513.709 8.89258 513.059 9.11719 512.258 9.11719C511.457 9.11719 510.805 8.90039 510.301 8.4668C509.801 8.0332 509.551 7.46094 509.551 6.75H510.641C510.641 7.19922 510.787 7.55859 511.08 7.82812C511.373 8.09766 511.766 8.23242 512.258 8.23242C512.781 8.23242 513.182 8.0957 513.459 7.82227C513.736 7.54883 513.875 7.15625 513.875 6.64453C513.875 6.14844 513.723 5.76758 513.418 5.50195C513.113 5.23633 512.674 5.09961 512.1 5.0918H511.285V4.20703Z" fill="black"/>
<path id="2" d="M458.299 9H452.709V8.2207L455.662 4.93945C456.1 4.44336 456.4 4.04102 456.564 3.73242C456.732 3.41992 456.816 3.09766 456.816 2.76562C456.816 2.32031 456.682 1.95508 456.412 1.66992C456.143 1.38477 455.783 1.24219 455.334 1.24219C454.795 1.24219 454.375 1.39648 454.074 1.70508C453.777 2.00977 453.629 2.43555 453.629 2.98242H452.545C452.545 2.19727 452.797 1.5625 453.301 1.07812C453.809 0.59375 454.486 0.351562 455.334 0.351562C456.127 0.351562 456.754 0.560547 457.215 0.978516C457.676 1.39258 457.906 1.94531 457.906 2.63672C457.906 3.47656 457.371 4.47656 456.301 5.63672L454.016 8.11523H458.299V9Z" fill="black"/>
<path id="1" d="M399.271 9H398.182V1.77539L395.996 2.57812V1.59375L399.102 0.427734H399.271V9Z" fill="black"/>
<path id="0" d="M344.059 5.36133C344.059 6.63086 343.842 7.57422 343.408 8.19141C342.975 8.80859 342.297 9.11719 341.375 9.11719C340.465 9.11719 339.791 8.81641 339.354 8.21484C338.916 7.60938 338.689 6.70703 338.674 5.50781V4.06055C338.674 2.80664 338.891 1.875 339.324 1.26562C339.758 0.65625 340.438 0.351562 341.363 0.351562C342.281 0.351562 342.957 0.646484 343.391 1.23633C343.824 1.82227 344.047 2.72852 344.059 3.95508V5.36133ZM342.975 3.87891C342.975 2.96094 342.846 2.29297 342.588 1.875C342.33 1.45312 341.922 1.24219 341.363 1.24219C340.809 1.24219 340.404 1.45117 340.15 1.86914C339.896 2.28711 339.766 2.92969 339.758 3.79688V5.53125C339.758 6.45312 339.891 7.13477 340.156 7.57617C340.426 8.01367 340.832 8.23242 341.375 8.23242C341.91 8.23242 342.307 8.02539 342.564 7.61133C342.826 7.19727 342.963 6.54492 342.975 5.6543V3.87891Z" fill="black"/>
<path id="-1" d="M282.076 5.81836H279.217V4.93359H282.076V5.81836ZM286.588 9H285.498V1.77539L283.312 2.57812V1.59375L286.418 0.427734H286.588V9Z" fill="black"/>
<path id="-2" d="M224.076 5.81836H221.217V4.93359H224.076V5.81836ZM230.615 9H225.025V8.2207L227.979 4.93945C228.416 4.44336 228.717 4.04102 228.881 3.73242C229.049 3.41992 229.133 3.09766 229.133 2.76562C229.133 2.32031 228.998 1.95508 228.729 1.66992C228.459 1.38477 228.1 1.24219 227.65 1.24219C227.111 1.24219 226.691 1.39648 226.391 1.70508C226.094 2.00977 225.945 2.43555 225.945 2.98242H224.861C224.861 2.19727 225.113 1.5625 225.617 1.07812C226.125 0.59375 226.803 0.351562 227.65 0.351562C228.443 0.351562 229.07 0.560547 229.531 0.978516C229.992 1.39258 230.223 1.94531 230.223 2.63672C230.223 3.47656 229.688 4.47656 228.617 5.63672L226.332 8.11523H230.615V9Z" fill="black"/>
<g id="star-group"> <svg>
<path id="star" d="M341.5 23L343.857 28.8734L351.486 28.8734L345.314 32.5033L347.672 38.3766L341.5 34.7467L335.328 38.3766L337.686 32.5033L331.514 28.8734L339.143 28.8734L341.5 23Z" fill="#FC0303"/>
<set id="star-anim1" attributeName="x" to="114" fill="freeze" begin="insert1-anim.begin+1s"/>
<set id="star-anim2" attributeName="x" to="57" fill="freeze" begin="sample1-anim.begin+1s"/>
<set id="star-anim3" attributeName="x" to="171" fill="freeze" begin="insert2-anim.begin+1s"/>
<set id="star-anim4" attributeName="x" to="114" fill="freeze" begin="sample2-anim.begin+1s"/>
<set id="star-anim5" attributeName="x" to="57" fill="freeze" begin="sample3-anim.begin+1s"/>
<set id="star-anim6" attributeName="x" to="171" fill="freeze" begin="insert3-anim.begin+6.5s"/>
<set id="star-anim7" attributeName="x" to="0" fill="freeze" begin="star-anim6.end+3s"/>
</svg> </g>
<path id="insert" d="M257.764 83H256.1L257.201 76.6602H258.865L257.764 83ZM257.395 75.0488C257.387 74.7871 257.473 74.5703 257.652 74.3984C257.832 74.2266 258.049 74.1406 258.303 74.1406C258.553 74.1328 258.77 74.209 258.953 74.3691C259.137 74.5293 259.232 74.7363 259.24 74.9902C259.248 75.2324 259.166 75.4434 258.994 75.623C258.826 75.8027 258.605 75.8965 258.332 75.9043C258.086 75.9121 257.869 75.8379 257.682 75.6816C257.498 75.5254 257.402 75.3145 257.395 75.0488ZM261.783 76.6543L261.643 77.4043C262.15 76.8145 262.766 76.5273 263.488 76.543C264.086 76.5547 264.527 76.7734 264.812 77.1992C265.098 77.625 265.201 78.2148 265.123 78.9688L264.455 83H262.803L263.482 78.9512C263.502 78.7988 263.506 78.6602 263.494 78.5352C263.443 78.1367 263.193 77.9316 262.744 77.9199C262.311 77.9043 261.922 78.1055 261.578 78.5234L260.787 83H259.135L260.236 76.6602L261.783 76.6543ZM269.43 81.2129C269.492 80.9004 269.275 80.6738 268.779 80.5332L268.246 80.3984C266.984 80.0508 266.371 79.4375 266.406 78.5586C266.426 77.9609 266.689 77.4746 267.197 77.0996C267.709 76.7207 268.324 76.5352 269.043 76.543C269.758 76.5508 270.336 76.7402 270.777 77.1113C271.219 77.4824 271.443 77.9766 271.451 78.5938L269.811 78.5879C269.818 78.0449 269.549 77.7695 269.002 77.7617C268.744 77.7617 268.52 77.8262 268.328 77.9551C268.141 78.084 268.025 78.2578 267.982 78.4766C267.924 78.7891 268.16 79.0098 268.691 79.1387L268.926 79.1914C269.465 79.3203 269.877 79.4688 270.162 79.6367C270.447 79.8008 270.666 80.0059 270.818 80.252C270.975 80.498 271.047 80.793 271.035 81.1367C271.023 81.5391 270.893 81.8906 270.643 82.1914C270.396 82.4922 270.057 82.7246 269.623 82.8887C269.193 83.0527 268.74 83.1289 268.264 83.1172C267.561 83.1094 266.975 82.9082 266.506 82.5137C266.037 82.1152 265.799 81.6016 265.791 80.9727L267.35 80.9844C267.365 81.5898 267.689 81.8965 268.322 81.9043C268.627 81.9043 268.877 81.8418 269.072 81.7168C269.271 81.5918 269.391 81.4238 269.43 81.2129ZM274.814 83.1172C274.26 83.1133 273.768 82.9785 273.338 82.7129C272.912 82.4434 272.594 82.0762 272.383 81.6113C272.172 81.1426 272.09 80.627 272.137 80.0645L272.154 79.8301C272.213 79.2129 272.393 78.6465 272.693 78.1309C272.994 77.6152 273.381 77.2188 273.854 76.9414C274.326 76.6602 274.85 76.5273 275.424 76.543C276.24 76.5586 276.857 76.8594 277.275 77.4453C277.697 78.0273 277.857 78.7656 277.756 79.6602L277.662 80.3809H273.777C273.762 80.791 273.861 81.1191 274.076 81.3652C274.291 81.6113 274.584 81.7383 274.955 81.7461C275.557 81.7617 276.084 81.5293 276.537 81.0488L277.293 81.9863C277.055 82.3457 276.711 82.627 276.262 82.8301C275.812 83.0293 275.33 83.125 274.814 83.1172ZM275.342 77.9082C275.037 77.9004 274.766 77.9961 274.527 78.1953C274.293 78.3945 274.082 78.7402 273.895 79.2324H276.168L276.203 79.0801C276.227 78.9238 276.229 78.7754 276.209 78.6348C276.17 78.4082 276.074 78.2324 275.922 78.1074C275.77 77.9785 275.576 77.9121 275.342 77.9082ZM282.496 78.248C282.27 78.209 282.084 78.1895 281.939 78.1895C281.35 78.1738 280.883 78.3945 280.539 78.8516L279.807 83H278.154L279.256 76.6602L280.809 76.6543L280.656 77.4277C281.055 76.8301 281.547 76.5312 282.133 76.5312C282.297 76.5312 282.488 76.5586 282.707 76.6133L282.496 78.248ZM286.111 75.1016L285.836 76.6602H286.891L286.674 77.9023H285.619L285.08 81.0781C285.057 81.2773 285.072 81.4297 285.127 81.5352C285.182 81.6406 285.314 81.6973 285.525 81.7051C285.588 81.709 285.756 81.6992 286.029 81.6758L285.912 82.9707C285.619 83.0684 285.303 83.1133 284.963 83.1055C284.42 83.0977 284.016 82.9277 283.75 82.5957C283.484 82.2637 283.375 81.8145 283.422 81.248L283.967 77.9023H283.07L283.287 76.6602H284.184L284.453 75.1016H286.111Z" fill="black" fill-opacity="0.5">
<set id="insert1-anim" attributeName="fill-opacity" to="1" dur="2s" begin="1s; star-anim6.begin + 6s"/>
</path>
<path id="insert_3" d="M257.764 141H256.1L257.201 134.66H258.865L257.764 141ZM257.395 133.049C257.387 132.787 257.473 132.57 257.652 132.398C257.832 132.227 258.049 132.141 258.303 132.141C258.553 132.133 258.77 132.209 258.953 132.369C259.137 132.529 259.232 132.736 259.24 132.99C259.248 133.232 259.166 133.443 258.994 133.623C258.826 133.803 258.605 133.896 258.332 133.904C258.086 133.912 257.869 133.838 257.682 133.682C257.498 133.525 257.402 133.314 257.395 133.049ZM261.783 134.654L261.643 135.404C262.15 134.814 262.766 134.527 263.488 134.543C264.086 134.555 264.527 134.773 264.812 135.199C265.098 135.625 265.201 136.215 265.123 136.969L264.455 141H262.803L263.482 136.951C263.502 136.799 263.506 136.66 263.494 136.535C263.443 136.137 263.193 135.932 262.744 135.92C262.311 135.904 261.922 136.105 261.578 136.523L260.787 141H259.135L260.236 134.66L261.783 134.654ZM269.43 139.213C269.492 138.9 269.275 138.674 268.779 138.533L268.246 138.398C266.984 138.051 266.371 137.438 266.406 136.559C266.426 135.961 266.689 135.475 267.197 135.1C267.709 134.721 268.324 134.535 269.043 134.543C269.758 134.551 270.336 134.74 270.777 135.111C271.219 135.482 271.443 135.977 271.451 136.594L269.811 136.588C269.818 136.045 269.549 135.77 269.002 135.762C268.744 135.762 268.52 135.826 268.328 135.955C268.141 136.084 268.025 136.258 267.982 136.477C267.924 136.789 268.16 137.01 268.691 137.139L268.926 137.191C269.465 137.32 269.877 137.469 270.162 137.637C270.447 137.801 270.666 138.006 270.818 138.252C270.975 138.498 271.047 138.793 271.035 139.137C271.023 139.539 270.893 139.891 270.643 140.191C270.396 140.492 270.057 140.725 269.623 140.889C269.193 141.053 268.74 141.129 268.264 141.117C267.561 141.109 266.975 140.908 266.506 140.514C266.037 140.115 265.799 139.602 265.791 138.973L267.35 138.984C267.365 139.59 267.689 139.896 268.322 139.904C268.627 139.904 268.877 139.842 269.072 139.717C269.271 139.592 269.391 139.424 269.43 139.213ZM274.814 141.117C274.26 141.113 273.768 140.979 273.338 140.713C272.912 140.443 272.594 140.076 272.383 139.611C272.172 139.143 272.09 138.627 272.137 138.064L272.154 137.83C272.213 137.213 272.393 136.646 272.693 136.131C272.994 135.615 273.381 135.219 273.854 134.941C274.326 134.66 274.85 134.527 275.424 134.543C276.24 134.559 276.857 134.859 277.275 135.445C277.697 136.027 277.857 136.766 277.756 137.66L277.662 138.381H273.777C273.762 138.791 273.861 139.119 274.076 139.365C274.291 139.611 274.584 139.738 274.955 139.746C275.557 139.762 276.084 139.529 276.537 139.049L277.293 139.986C277.055 140.346 276.711 140.627 276.262 140.83C275.812 141.029 275.33 141.125 274.814 141.117ZM275.342 135.908C275.037 135.9 274.766 135.996 274.527 136.195C274.293 136.395 274.082 136.74 273.895 137.232H276.168L276.203 137.08C276.227 136.924 276.229 136.775 276.209 136.635C276.17 136.408 276.074 136.232 275.922 136.107C275.77 135.979 275.576 135.912 275.342 135.908ZM282.496 136.248C282.27 136.209 282.084 136.189 281.939 136.189C281.35 136.174 280.883 136.395 280.539 136.852L279.807 141H278.154L279.256 134.66L280.809 134.654L280.656 135.428C281.055 134.83 281.547 134.531 282.133 134.531C282.297 134.531 282.488 134.559 282.707 134.613L282.496 136.248ZM286.111 133.102L285.836 134.66H286.891L286.674 135.902H285.619L285.08 139.078C285.057 139.277 285.072 139.43 285.127 139.535C285.182 139.641 285.314 139.697 285.525 139.705C285.588 139.709 285.756 139.699 286.029 139.676L285.912 140.971C285.619 141.068 285.303 141.113 284.963 141.105C284.42 141.098 284.016 140.928 283.75 140.596C283.484 140.264 283.375 139.814 283.422 139.248L283.967 135.902H283.07L283.287 134.66H284.184L284.453 133.102H286.111Z" fill="black" fill-opacity="0.5">
<set id="insert3-anim" attributeName="fill-opacity" to="1" dur="8s" begin="star-anim3.begin + 2s"/>
</path>
<path id="sample" d="M255.691 100.213C255.754 99.9004 255.537 99.6738 255.041 99.5332L254.508 99.3984C253.246 99.0508 252.633 98.4375 252.668 97.5586C252.688 96.9609 252.951 96.4746 253.459 96.0996C253.971 95.7207 254.586 95.5352 255.305 95.543C256.02 95.5508 256.598 95.7402 257.039 96.1113C257.48 96.4824 257.705 96.9766 257.713 97.5938L256.072 97.5879C256.08 97.0449 255.811 96.7695 255.264 96.7617C255.006 96.7617 254.781 96.8262 254.59 96.9551C254.402 97.084 254.287 97.2578 254.244 97.4766C254.186 97.7891 254.422 98.0098 254.953 98.1387L255.188 98.1914C255.727 98.3203 256.139 98.4688 256.424 98.6367C256.709 98.8008 256.928 99.0059 257.08 99.252C257.236 99.498 257.309 99.793 257.297 100.137C257.285 100.539 257.154 100.891 256.904 101.191C256.658 101.492 256.318 101.725 255.885 101.889C255.455 102.053 255.002 102.129 254.525 102.117C253.822 102.109 253.236 101.908 252.768 101.514C252.299 101.115 252.061 100.602 252.053 99.9727L253.611 99.9844C253.627 100.59 253.951 100.896 254.584 100.904C254.889 100.904 255.139 100.842 255.334 100.717C255.533 100.592 255.652 100.424 255.691 100.213ZM261.732 102C261.682 101.84 261.66 101.648 261.668 101.426C261.191 101.902 260.652 102.133 260.051 102.117C259.496 102.109 259.035 101.93 258.668 101.578C258.305 101.223 258.135 100.785 258.158 100.266C258.186 99.5742 258.475 99.0449 259.025 98.6777C259.58 98.3066 260.322 98.1211 261.252 98.1211L262.025 98.1328L262.107 97.752C262.131 97.623 262.137 97.5 262.125 97.3828C262.105 97.1992 262.035 97.0566 261.914 96.9551C261.797 96.8496 261.641 96.7949 261.445 96.791C261.188 96.7832 260.969 96.8477 260.789 96.9844C260.609 97.1172 260.494 97.3105 260.443 97.5645L258.785 97.5703C258.812 96.9648 259.09 96.4746 259.617 96.0996C260.148 95.7207 260.803 95.5352 261.58 95.543C262.299 95.5586 262.861 95.7734 263.268 96.1875C263.674 96.5977 263.844 97.127 263.777 97.7754L263.291 100.811L263.262 101.186C263.254 101.463 263.287 101.697 263.361 101.889L263.355 102H261.732ZM260.461 100.834C260.938 100.85 261.354 100.643 261.709 100.213L261.914 99.1172L261.34 99.1113C260.73 99.127 260.291 99.3125 260.021 99.668C259.924 99.7969 259.863 99.9551 259.84 100.143C259.809 100.354 259.852 100.521 259.969 100.646C260.09 100.768 260.254 100.83 260.461 100.834ZM267.006 95.6543L266.871 96.375C267.383 95.8047 268.002 95.5273 268.729 95.543C269.119 95.5508 269.443 95.6406 269.701 95.8125C269.959 95.9844 270.133 96.2168 270.223 96.5098C270.781 95.8496 271.438 95.5273 272.191 95.543C272.773 95.5547 273.211 95.7539 273.504 96.1406C273.801 96.5273 273.926 97.0859 273.879 97.8164L273.867 97.9629L273.193 102H271.535L272.209 97.9512C272.225 97.8066 272.23 97.6719 272.227 97.5469C272.199 97.1367 271.965 96.9258 271.523 96.9141C271.07 96.9141 270.682 97.1562 270.357 97.6406L270.34 97.7754L269.602 102H267.949L268.623 97.9629C268.639 97.8184 268.645 97.6836 268.641 97.5586C268.613 97.1445 268.381 96.9316 267.943 96.9199C267.525 96.9082 267.148 97.1055 266.812 97.5117L266.021 102H264.369L265.465 95.6602L267.006 95.6543ZM280.594 98.8477C280.512 99.5117 280.338 100.102 280.072 100.617C279.807 101.133 279.477 101.516 279.082 101.766C278.688 102.016 278.25 102.135 277.77 102.123C277.156 102.107 276.672 101.879 276.316 101.438L275.736 104.438H274.084L275.602 95.6602L277.125 95.6543L277.014 96.293C277.471 95.7773 278.01 95.5273 278.631 95.543C279.252 95.5586 279.734 95.7852 280.078 96.2227C280.422 96.6562 280.605 97.2461 280.629 97.9922C280.637 98.2344 280.625 98.5195 280.594 98.8477ZM278.953 98.7246L278.988 98.1621C278.996 97.7832 278.926 97.4824 278.777 97.2598C278.633 97.0371 278.42 96.9219 278.139 96.9141C277.658 96.8984 277.262 97.1016 276.949 97.5234L276.475 100.137C276.619 100.531 276.93 100.736 277.406 100.752C277.805 100.764 278.137 100.609 278.402 100.289C278.668 99.9688 278.852 99.4473 278.953 98.7246ZM282.861 102H281.197L282.762 93H284.42L282.861 102ZM287.279 102.117C286.725 102.113 286.232 101.979 285.803 101.713C285.377 101.443 285.059 101.076 284.848 100.611C284.637 100.143 284.555 99.627 284.602 99.0645L284.619 98.8301C284.678 98.2129 284.857 97.6465 285.158 97.1309C285.459 96.6152 285.846 96.2188 286.318 95.9414C286.791 95.6602 287.314 95.5273 287.889 95.543C288.705 95.5586 289.322 95.8594 289.74 96.4453C290.162 97.0273 290.322 97.7656 290.221 98.6602L290.127 99.3809H286.242C286.227 99.791 286.326 100.119 286.541 100.365C286.756 100.611 287.049 100.738 287.42 100.746C288.021 100.762 288.549 100.529 289.002 100.049L289.758 100.986C289.52 101.346 289.176 101.627 288.727 101.83C288.277 102.029 287.795 102.125 287.279 102.117ZM287.807 96.9082C287.502 96.9004 287.23 96.9961 286.992 97.1953C286.758 97.3945 286.547 97.7402 286.359 98.2324H288.633L288.668 98.0801C288.691 97.9238 288.693 97.7754 288.674 97.6348C288.635 97.4082 288.539 97.2324 288.387 97.1074C288.234 96.9785 288.041 96.9121 287.807 96.9082Z" fill="black" fill-opacity="0.5">
<set id="sample1-anim" attributeName="fill-opacity" to="1" dur="2s" begin="star-anim1.begin + 2s"/>
</path>
<path id="sample_3" d="M387.691 100.213C387.754 99.9004 387.537 99.6738 387.041 99.5332L386.508 99.3984C385.246 99.0508 384.633 98.4375 384.668 97.5586C384.688 96.9609 384.951 96.4746 385.459 96.0996C385.971 95.7207 386.586 95.5352 387.305 95.543C388.02 95.5508 388.598 95.7402 389.039 96.1113C389.48 96.4824 389.705 96.9766 389.713 97.5938L388.072 97.5879C388.08 97.0449 387.811 96.7695 387.264 96.7617C387.006 96.7617 386.781 96.8262 386.59 96.9551C386.402 97.084 386.287 97.2578 386.244 97.4766C386.186 97.7891 386.422 98.0098 386.953 98.1387L387.188 98.1914C387.727 98.3203 388.139 98.4688 388.424 98.6367C388.709 98.8008 388.928 99.0059 389.08 99.252C389.236 99.498 389.309 99.793 389.297 100.137C389.285 100.539 389.154 100.891 388.904 101.191C388.658 101.492 388.318 101.725 387.885 101.889C387.455 102.053 387.002 102.129 386.525 102.117C385.822 102.109 385.236 101.908 384.768 101.514C384.299 101.115 384.061 100.602 384.053 99.9727L385.611 99.9844C385.627 100.59 385.951 100.896 386.584 100.904C386.889 100.904 387.139 100.842 387.334 100.717C387.533 100.592 387.652 100.424 387.691 100.213ZM393.732 102C393.682 101.84 393.66 101.648 393.668 101.426C393.191 101.902 392.652 102.133 392.051 102.117C391.496 102.109 391.035 101.93 390.668 101.578C390.305 101.223 390.135 100.785 390.158 100.266C390.186 99.5742 390.475 99.0449 391.025 98.6777C391.58 98.3066 392.322 98.1211 393.252 98.1211L394.025 98.1328L394.107 97.752C394.131 97.623 394.137 97.5 394.125 97.3828C394.105 97.1992 394.035 97.0566 393.914 96.9551C393.797 96.8496 393.641 96.7949 393.445 96.791C393.188 96.7832 392.969 96.8477 392.789 96.9844C392.609 97.1172 392.494 97.3105 392.443 97.5645L390.785 97.5703C390.812 96.9648 391.09 96.4746 391.617 96.0996C392.148 95.7207 392.803 95.5352 393.58 95.543C394.299 95.5586 394.861 95.7734 395.268 96.1875C395.674 96.5977 395.844 97.127 395.777 97.7754L395.291 100.811L395.262 101.186C395.254 101.463 395.287 101.697 395.361 101.889L395.355 102H393.732ZM392.461 100.834C392.938 100.85 393.354 100.643 393.709 100.213L393.914 99.1172L393.34 99.1113C392.73 99.127 392.291 99.3125 392.021 99.668C391.924 99.7969 391.863 99.9551 391.84 100.143C391.809 100.354 391.852 100.521 391.969 100.646C392.09 100.768 392.254 100.83 392.461 100.834ZM399.006 95.6543L398.871 96.375C399.383 95.8047 400.002 95.5273 400.729 95.543C401.119 95.5508 401.443 95.6406 401.701 95.8125C401.959 95.9844 402.133 96.2168 402.223 96.5098C402.781 95.8496 403.438 95.5273 404.191 95.543C404.773 95.5547 405.211 95.7539 405.504 96.1406C405.801 96.5273 405.926 97.0859 405.879 97.8164L405.867 97.9629L405.193 102H403.535L404.209 97.9512C404.225 97.8066 404.23 97.6719 404.227 97.5469C404.199 97.1367 403.965 96.9258 403.523 96.9141C403.07 96.9141 402.682 97.1562 402.357 97.6406L402.34 97.7754L401.602 102H399.949L400.623 97.9629C400.639 97.8184 400.645 97.6836 400.641 97.5586C400.613 97.1445 400.381 96.9316 399.943 96.9199C399.525 96.9082 399.148 97.1055 398.812 97.5117L398.021 102H396.369L397.465 95.6602L399.006 95.6543ZM412.594 98.8477C412.512 99.5117 412.338 100.102 412.072 100.617C411.807 101.133 411.477 101.516 411.082 101.766C410.688 102.016 410.25 102.135 409.77 102.123C409.156 102.107 408.672 101.879 408.316 101.438L407.736 104.438H406.084L407.602 95.6602L409.125 95.6543L409.014 96.293C409.471 95.7773 410.01 95.5273 410.631 95.543C411.252 95.5586 411.734 95.7852 412.078 96.2227C412.422 96.6562 412.605 97.2461 412.629 97.9922C412.637 98.2344 412.625 98.5195 412.594 98.8477ZM410.953 98.7246L410.988 98.1621C410.996 97.7832 410.926 97.4824 410.777 97.2598C410.633 97.0371 410.42 96.9219 410.139 96.9141C409.658 96.8984 409.262 97.1016 408.949 97.5234L408.475 100.137C408.619 100.531 408.93 100.736 409.406 100.752C409.805 100.764 410.137 100.609 410.402 100.289C410.668 99.9688 410.852 99.4473 410.953 98.7246ZM414.861 102H413.197L414.762 93H416.42L414.861 102ZM419.279 102.117C418.725 102.113 418.232 101.979 417.803 101.713C417.377 101.443 417.059 101.076 416.848 100.611C416.637 100.143 416.555 99.627 416.602 99.0645L416.619 98.8301C416.678 98.2129 416.857 97.6465 417.158 97.1309C417.459 96.6152 417.846 96.2188 418.318 95.9414C418.791 95.6602 419.314 95.5273 419.889 95.543C420.705 95.5586 421.322 95.8594 421.74 96.4453C422.162 97.0273 422.322 97.7656 422.221 98.6602L422.127 99.3809H418.242C418.227 99.791 418.326 100.119 418.541 100.365C418.756 100.611 419.049 100.738 419.42 100.746C420.021 100.762 420.549 100.529 421.002 100.049L421.758 100.986C421.52 101.346 421.176 101.627 420.727 101.83C420.277 102.029 419.795 102.125 419.279 102.117ZM419.807 96.9082C419.502 96.9004 419.23 96.9961 418.992 97.1953C418.758 97.3945 418.547 97.7402 418.359 98.2324H420.633L420.668 98.0801C420.691 97.9238 420.693 97.7754 420.674 97.6348C420.635 97.4082 420.539 97.2324 420.387 97.1074C420.234 96.9785 420.041 96.9121 419.807 96.9082Z" fill="black" fill-opacity="0.5">
<set id="sample3-anim" attributeName="fill-opacity" to="1" dur="2s" begin="star-anim4.begin + 2s"/>
</path>
<path id="sample_2" d="M387.691 81.2129C387.754 80.9004 387.537 80.6738 387.041 80.5332L386.508 80.3984C385.246 80.0508 384.633 79.4375 384.668 78.5586C384.688 77.9609 384.951 77.4746 385.459 77.0996C385.971 76.7207 386.586 76.5352 387.305 76.543C388.02 76.5508 388.598 76.7402 389.039 77.1113C389.48 77.4824 389.705 77.9766 389.713 78.5938L388.072 78.5879C388.08 78.0449 387.811 77.7695 387.264 77.7617C387.006 77.7617 386.781 77.8262 386.59 77.9551C386.402 78.084 386.287 78.2578 386.244 78.4766C386.186 78.7891 386.422 79.0098 386.953 79.1387L387.188 79.1914C387.727 79.3203 388.139 79.4688 388.424 79.6367C388.709 79.8008 388.928 80.0059 389.08 80.252C389.236 80.498 389.309 80.793 389.297 81.1367C389.285 81.5391 389.154 81.8906 388.904 82.1914C388.658 82.4922 388.318 82.7246 387.885 82.8887C387.455 83.0527 387.002 83.1289 386.525 83.1172C385.822 83.1094 385.236 82.9082 384.768 82.5137C384.299 82.1152 384.061 81.6016 384.053 80.9727L385.611 80.9844C385.627 81.5898 385.951 81.8965 386.584 81.9043C386.889 81.9043 387.139 81.8418 387.334 81.7168C387.533 81.5918 387.652 81.4238 387.691 81.2129ZM393.732 83C393.682 82.8398 393.66 82.6484 393.668 82.4258C393.191 82.9023 392.652 83.1328 392.051 83.1172C391.496 83.1094 391.035 82.9297 390.668 82.5781C390.305 82.2227 390.135 81.7852 390.158 81.2656C390.186 80.5742 390.475 80.0449 391.025 79.6777C391.58 79.3066 392.322 79.1211 393.252 79.1211L394.025 79.1328L394.107 78.752C394.131 78.623 394.137 78.5 394.125 78.3828C394.105 78.1992 394.035 78.0566 393.914 77.9551C393.797 77.8496 393.641 77.7949 393.445 77.791C393.188 77.7832 392.969 77.8477 392.789 77.9844C392.609 78.1172 392.494 78.3105 392.443 78.5645L390.785 78.5703C390.812 77.9648 391.09 77.4746 391.617 77.0996C392.148 76.7207 392.803 76.5352 393.58 76.543C394.299 76.5586 394.861 76.7734 395.268 77.1875C395.674 77.5977 395.844 78.127 395.777 78.7754L395.291 81.8105L395.262 82.1855C395.254 82.4629 395.287 82.6973 395.361 82.8887L395.355 83H393.732ZM392.461 81.834C392.938 81.8496 393.354 81.6426 393.709 81.2129L393.914 80.1172L393.34 80.1113C392.73 80.127 392.291 80.3125 392.021 80.668C391.924 80.7969 391.863 80.9551 391.84 81.1426C391.809 81.3535 391.852 81.5215 391.969 81.6465C392.09 81.7676 392.254 81.8301 392.461 81.834ZM399.006 76.6543L398.871 77.375C399.383 76.8047 400.002 76.5273 400.729 76.543C401.119 76.5508 401.443 76.6406 401.701 76.8125C401.959 76.9844 402.133 77.2168 402.223 77.5098C402.781 76.8496 403.438 76.5273 404.191 76.543C404.773 76.5547 405.211 76.7539 405.504 77.1406C405.801 77.5273 405.926 78.0859 405.879 78.8164L405.867 78.9629L405.193 83H403.535L404.209 78.9512C404.225 78.8066 404.23 78.6719 404.227 78.5469C404.199 78.1367 403.965 77.9258 403.523 77.9141C403.07 77.9141 402.682 78.1562 402.357 78.6406L402.34 78.7754L401.602 83H399.949L400.623 78.9629C400.639 78.8184 400.645 78.6836 400.641 78.5586C400.613 78.1445 400.381 77.9316 399.943 77.9199C399.525 77.9082 399.148 78.1055 398.812 78.5117L398.021 83H396.369L397.465 76.6602L399.006 76.6543ZM412.594 79.8477C412.512 80.5117 412.338 81.1016 412.072 81.6172C411.807 82.1328 411.477 82.5156 411.082 82.7656C410.688 83.0156 410.25 83.1348 409.77 83.123C409.156 83.1074 408.672 82.8789 408.316 82.4375L407.736 85.4375H406.084L407.602 76.6602L409.125 76.6543L409.014 77.293C409.471 76.7773 410.01 76.5273 410.631 76.543C411.252 76.5586 411.734 76.7852 412.078 77.2227C412.422 77.6562 412.605 78.2461 412.629 78.9922C412.637 79.2344 412.625 79.5195 412.594 79.8477ZM410.953 79.7246L410.988 79.1621C410.996 78.7832 410.926 78.4824 410.777 78.2598C410.633 78.0371 410.42 77.9219 410.139 77.9141C409.658 77.8984 409.262 78.1016 408.949 78.5234L408.475 81.1367C408.619 81.5312 408.93 81.7363 409.406 81.752C409.805 81.7637 410.137 81.6094 410.402 81.2891C410.668 80.9688 410.852 80.4473 410.953 79.7246ZM414.861 83H413.197L414.762 74H416.42L414.861 83ZM419.279 83.1172C418.725 83.1133 418.232 82.9785 417.803 82.7129C417.377 82.4434 417.059 82.0762 416.848 81.6113C416.637 81.1426 416.555 80.627 416.602 80.0645L416.619 79.8301C416.678 79.2129 416.857 78.6465 417.158 78.1309C417.459 77.6152 417.846 77.2188 418.318 76.9414C418.791 76.6602 419.314 76.5273 419.889 76.543C420.705 76.5586 421.322 76.8594 421.74 77.4453C422.162 78.0273 422.322 78.7656 422.221 79.6602L422.127 80.3809H418.242C418.227 80.791 418.326 81.1191 418.541 81.3652C418.756 81.6113 419.049 81.7383 419.42 81.7461C420.021 81.7617 420.549 81.5293 421.002 81.0488L421.758 81.9863C421.52 82.3457 421.176 82.627 420.727 82.8301C420.277 83.0293 419.795 83.125 419.279 83.1172ZM419.807 77.9082C419.502 77.9004 419.23 77.9961 418.992 78.1953C418.758 78.3945 418.547 78.7402 418.359 79.2324H420.633L420.668 79.0801C420.691 78.9238 420.693 78.7754 420.674 78.6348C420.635 78.4082 420.539 78.2324 420.387 78.1074C420.234 77.9785 420.041 77.9121 419.807 77.9082Z" fill="black" fill-opacity="0.5">
<set id="sample2-anim" attributeName="fill-opacity" to="1" dur="2s" begin="insert3-anim.begin + 1.5s"/>
</path>
<path id="BLOCKED" d="M309.123 142L310.605 133.469L313.266 133.475C314.254 133.479 314.996 133.68 315.492 134.078C315.988 134.477 316.213 135.037 316.166 135.76C316.111 136.623 315.613 137.254 314.672 137.652C315.012 137.77 315.275 137.99 315.463 138.314C315.65 138.635 315.73 139.014 315.703 139.451C315.648 140.256 315.332 140.883 314.754 141.332C314.18 141.777 313.395 142 312.398 142H309.123ZM311.49 138.285L311.086 140.588L312.439 140.594C312.861 140.594 313.215 140.49 313.5 140.283C313.785 140.072 313.955 139.789 314.01 139.434C314.064 139.082 314.016 138.809 313.863 138.613C313.715 138.414 313.463 138.307 313.107 138.291L311.49 138.285ZM311.701 137.043L312.867 137.055C313.301 137.047 313.654 136.945 313.928 136.75C314.205 136.555 314.371 136.283 314.426 135.936C314.523 135.248 314.162 134.902 313.342 134.898L312.076 134.893L311.701 137.043ZM318.574 140.588H322.195L321.949 142H316.611L318.094 133.469H319.811L318.574 140.588ZM326.027 142.117C325.461 142.105 324.961 141.973 324.527 141.719C324.098 141.461 323.756 141.092 323.502 140.611C323.252 140.127 323.107 139.572 323.068 138.947C323.025 138.307 323.094 137.623 323.273 136.896C323.453 136.17 323.742 135.531 324.141 134.98C324.539 134.43 325.006 134.018 325.541 133.744C326.08 133.471 326.662 133.34 327.287 133.352C327.861 133.363 328.363 133.5 328.793 133.762C329.223 134.02 329.561 134.393 329.807 134.881C330.053 135.365 330.193 135.916 330.229 136.533C330.268 137.221 330.193 137.928 330.006 138.654C329.818 139.381 329.527 140.01 329.133 140.541C328.738 141.072 328.275 141.471 327.744 141.736C327.217 142.002 326.645 142.129 326.027 142.117ZM328.459 137.5L328.506 136.943C328.545 136.248 328.451 135.721 328.225 135.361C328.002 135.002 327.662 134.814 327.205 134.799C326.49 134.775 325.922 135.092 325.5 135.748C325.082 136.404 324.846 137.322 324.791 138.502C324.752 139.193 324.844 139.727 325.066 140.102C325.289 140.473 325.635 140.666 326.104 140.682C326.717 140.709 327.225 140.471 327.627 139.967C328.029 139.459 328.293 138.742 328.418 137.816L328.459 137.5ZM337.652 139.152C337.586 139.742 337.385 140.266 337.049 140.723C336.713 141.176 336.275 141.525 335.736 141.771C335.197 142.014 334.615 142.129 333.99 142.117C333.428 142.105 332.938 141.977 332.52 141.73C332.102 141.48 331.771 141.121 331.529 140.652C331.291 140.18 331.156 139.637 331.125 139.023C331.098 138.543 331.146 137.945 331.271 137.23C331.4 136.516 331.627 135.881 331.951 135.326C332.279 134.771 332.668 134.332 333.117 134.008C333.75 133.555 334.473 133.336 335.285 133.352C336.168 133.367 336.867 133.641 337.383 134.172C337.902 134.699 338.188 135.434 338.238 136.375L336.527 136.369C336.527 135.83 336.42 135.436 336.205 135.186C335.99 134.936 335.656 134.803 335.203 134.787C334.617 134.768 334.135 134.977 333.756 135.414C333.381 135.852 333.129 136.49 333 137.33C332.875 138.146 332.82 138.758 332.836 139.164C332.855 139.68 332.971 140.061 333.182 140.307C333.393 140.549 333.688 140.676 334.066 140.688C334.59 140.707 335.008 140.584 335.32 140.318C335.637 140.049 335.846 139.664 335.947 139.164L337.652 139.152ZM341.625 138.596L340.5 139.639L340.09 142H338.373L339.855 133.469H341.572L340.916 137.23L341.789 136.246L344.355 133.469H346.594L342.908 137.348L345.105 142H343.148L341.625 138.596ZM351.457 138.303H348.188L347.789 140.588H351.633L351.387 142H345.826L347.309 133.469H352.857L352.605 134.893H348.779L348.422 136.926H351.703L351.457 138.303ZM352.436 142L353.918 133.469L356.367 133.475C356.941 133.486 357.457 133.617 357.914 133.867C358.375 134.113 358.748 134.469 359.033 134.934C359.318 135.398 359.49 135.922 359.549 136.504C359.58 136.844 359.576 137.191 359.537 137.547L359.496 137.857C359.324 139.107 358.832 140.111 358.02 140.869C357.211 141.623 356.229 142 355.072 142H352.436ZM355.389 134.893L354.398 140.588L355.113 140.594C355.902 140.594 356.535 140.305 357.012 139.727C357.492 139.148 357.768 138.275 357.838 137.107L357.85 136.92C357.861 136.275 357.738 135.781 357.48 135.438C357.223 135.094 356.838 134.914 356.326 134.898L355.389 134.893Z" fill="#FF0303" fill-opacity="0.5">
<animate id="blocked-anim" attributeName="fill-opacity" to="1" dur="0.5s" begin="insert3-anim.begin + 0.25s" repeatCount="12"/>
</path>
<path id="insert_2" d="M256.764 122H255.1L256.201 115.66H257.865L256.764 122ZM256.395 114.049C256.387 113.787 256.473 113.57 256.652 113.398C256.832 113.227 257.049 113.141 257.303 113.141C257.553 113.133 257.77 113.209 257.953 113.369C258.137 113.529 258.232 113.736 258.24 113.99C258.248 114.232 258.166 114.443 257.994 114.623C257.826 114.803 257.605 114.896 257.332 114.904C257.086 114.912 256.869 114.838 256.682 114.682C256.498 114.525 256.402 114.314 256.395 114.049ZM260.783 115.654L260.643 116.404C261.15 115.814 261.766 115.527 262.488 115.543C263.086 115.555 263.527 115.773 263.812 116.199C264.098 116.625 264.201 117.215 264.123 117.969L263.455 122H261.803L262.482 117.951C262.502 117.799 262.506 117.66 262.494 117.535C262.443 117.137 262.193 116.932 261.744 116.92C261.311 116.904 260.922 117.105 260.578 117.523L259.787 122H258.135L259.236 115.66L260.783 115.654ZM268.43 120.213C268.492 119.9 268.275 119.674 267.779 119.533L267.246 119.398C265.984 119.051 265.371 118.438 265.406 117.559C265.426 116.961 265.689 116.475 266.197 116.1C266.709 115.721 267.324 115.535 268.043 115.543C268.758 115.551 269.336 115.74 269.777 116.111C270.219 116.482 270.443 116.977 270.451 117.594L268.811 117.588C268.818 117.045 268.549 116.77 268.002 116.762C267.744 116.762 267.52 116.826 267.328 116.955C267.141 117.084 267.025 117.258 266.982 117.477C266.924 117.789 267.16 118.01 267.691 118.139L267.926 118.191C268.465 118.32 268.877 118.469 269.162 118.637C269.447 118.801 269.666 119.006 269.818 119.252C269.975 119.498 270.047 119.793 270.035 120.137C270.023 120.539 269.893 120.891 269.643 121.191C269.396 121.492 269.057 121.725 268.623 121.889C268.193 122.053 267.74 122.129 267.264 122.117C266.561 122.109 265.975 121.908 265.506 121.514C265.037 121.115 264.799 120.602 264.791 119.973L266.35 119.984C266.365 120.59 266.689 120.896 267.322 120.904C267.627 120.904 267.877 120.842 268.072 120.717C268.271 120.592 268.391 120.424 268.43 120.213ZM273.814 122.117C273.26 122.113 272.768 121.979 272.338 121.713C271.912 121.443 271.594 121.076 271.383 120.611C271.172 120.143 271.09 119.627 271.137 119.064L271.154 118.83C271.213 118.213 271.393 117.646 271.693 117.131C271.994 116.615 272.381 116.219 272.854 115.941C273.326 115.66 273.85 115.527 274.424 115.543C275.24 115.559 275.857 115.859 276.275 116.445C276.697 117.027 276.857 117.766 276.756 118.66L276.662 119.381H272.777C272.762 119.791 272.861 120.119 273.076 120.365C273.291 120.611 273.584 120.738 273.955 120.746C274.557 120.762 275.084 120.529 275.537 120.049L276.293 120.986C276.055 121.346 275.711 121.627 275.262 121.83C274.812 122.029 274.33 122.125 273.814 122.117ZM274.342 116.908C274.037 116.9 273.766 116.996 273.527 117.195C273.293 117.395 273.082 117.74 272.895 118.232H275.168L275.203 118.08C275.227 117.924 275.229 117.775 275.209 117.635C275.17 117.408 275.074 117.232 274.922 117.107C274.77 116.979 274.576 116.912 274.342 116.908ZM281.496 117.248C281.27 117.209 281.084 117.189 280.939 117.189C280.35 117.174 279.883 117.395 279.539 117.852L278.807 122H277.154L278.256 115.66L279.809 115.654L279.656 116.428C280.055 115.83 280.547 115.531 281.133 115.531C281.297 115.531 281.488 115.559 281.707 115.613L281.496 117.248ZM285.111 114.102L284.836 115.66H285.891L285.674 116.902H284.619L284.08 120.078C284.057 120.277 284.072 120.43 284.127 120.535C284.182 120.641 284.314 120.697 284.525 120.705C284.588 120.709 284.756 120.699 285.029 120.676L284.912 121.971C284.619 122.068 284.303 122.113 283.963 122.105C283.42 122.098 283.016 121.928 282.75 121.596C282.484 121.264 282.375 120.814 282.422 120.248L282.967 116.902H282.07L282.287 115.66H283.184L283.453 114.102H285.111Z" fill="black" fill-opacity="0.5">
<set id="insert2-anim" attributeName="fill-opacity" to="1" dur="2s" begin="star-anim2.begin +2s"/>
</path>
<path id="Arrow 1" d="M305.37 137.854C305.565 137.658 305.565 137.342 305.37 137.146L302.188 133.964C301.993 133.769 301.676 133.769 301.481 133.964C301.286 134.16 301.286 134.476 301.481 134.672L304.31 137.5L301.481 140.328C301.286 140.524 301.286 140.84 301.481 141.036C301.676 141.231 301.993 141.231 302.188 141.036L305.37 137.854ZM289.983 138H305.017V137H289.983V138Z" fill="black" fill-opacity="0.5">
<set id="arrow-anim" attributeName="fill-opacity" to="1" dur="6s" begin="insert3-anim.begin + 0.25s"/>
</path>
<path id="Thread 1" d="M253.381 58.708H250.332V67H248.281V58.708H245.273V57.0469H253.381V58.708ZM256.354 60.4102C256.879 59.7812 257.537 59.4668 258.33 59.4668C259.934 59.4668 260.748 60.3988 260.771 62.2627V67H258.795V62.3174C258.795 61.8936 258.704 61.5814 258.521 61.3809C258.339 61.1758 258.036 61.0732 257.612 61.0732C257.034 61.0732 256.614 61.2965 256.354 61.7432V67H254.379V56.5H256.354V60.4102ZM266.417 61.4561C266.148 61.4196 265.911 61.4014 265.706 61.4014C264.959 61.4014 264.469 61.6543 264.236 62.1602V67H262.261V59.6035H264.127L264.182 60.4854C264.578 59.8063 265.127 59.4668 265.829 59.4668C266.048 59.4668 266.253 59.4964 266.444 59.5557L266.417 61.4561ZM270.642 67.1367C269.557 67.1367 268.673 66.804 267.989 66.1387C267.31 65.4733 266.971 64.5869 266.971 63.4795V63.2881C266.971 62.5452 267.114 61.8822 267.401 61.2988C267.688 60.7109 268.094 60.2598 268.618 59.9453C269.147 59.6263 269.748 59.4668 270.423 59.4668C271.435 59.4668 272.23 59.7858 272.809 60.4238C273.392 61.0618 273.684 61.9665 273.684 63.1377V63.9443H268.974C269.037 64.4274 269.229 64.8148 269.548 65.1064C269.871 65.3981 270.279 65.5439 270.771 65.5439C271.533 65.5439 272.127 65.2682 272.556 64.7168L273.526 65.8037C273.23 66.223 272.829 66.5511 272.323 66.7881C271.817 67.0205 271.257 67.1367 270.642 67.1367ZM270.416 61.0664C270.024 61.0664 269.705 61.1986 269.459 61.4629C269.217 61.7272 269.062 62.1055 268.994 62.5977H271.742V62.4404C271.733 62.0029 271.615 61.6657 271.387 61.4287C271.159 61.1872 270.835 61.0664 270.416 61.0664ZM279.098 67C279.007 66.8223 278.94 66.6012 278.899 66.3369C278.421 66.8701 277.799 67.1367 277.033 67.1367C276.309 67.1367 275.707 66.9271 275.229 66.5078C274.755 66.0885 274.518 65.5599 274.518 64.9219C274.518 64.138 274.807 63.5365 275.386 63.1172C275.969 62.6979 276.81 62.486 277.908 62.4814H278.817V62.0576C278.817 61.7158 278.729 61.4424 278.551 61.2373C278.378 61.0322 278.102 60.9297 277.724 60.9297C277.391 60.9297 277.129 61.0094 276.938 61.1689C276.751 61.3285 276.657 61.5472 276.657 61.8252H274.682C274.682 61.3968 274.814 61.0003 275.078 60.6357C275.342 60.2712 275.716 59.9863 276.199 59.7812C276.682 59.5716 277.225 59.4668 277.826 59.4668C278.738 59.4668 279.46 59.6969 279.993 60.1572C280.531 60.613 280.8 61.2555 280.8 62.085V65.291C280.804 65.9928 280.902 66.5238 281.094 66.8838V67H279.098ZM277.464 65.626C277.756 65.626 278.024 65.5622 278.271 65.4346C278.517 65.3024 278.699 65.127 278.817 64.9082V63.6367H278.079C277.09 63.6367 276.564 63.9785 276.5 64.6621L276.493 64.7783C276.493 65.0244 276.58 65.2272 276.753 65.3867C276.926 65.5462 277.163 65.626 277.464 65.626ZM282.01 63.2471C282.01 62.0941 282.267 61.1758 282.782 60.4922C283.302 59.8086 284.01 59.4668 284.908 59.4668C285.628 59.4668 286.223 59.7357 286.692 60.2734V56.5H288.675V67H286.891L286.795 66.2139C286.303 66.8291 285.669 67.1367 284.895 67.1367C284.024 67.1367 283.325 66.7949 282.796 66.1113C282.272 65.4232 282.01 64.4684 282.01 63.2471ZM283.985 63.3906C283.985 64.0833 284.106 64.6143 284.348 64.9834C284.589 65.3525 284.94 65.5371 285.4 65.5371C286.011 65.5371 286.442 65.2796 286.692 64.7646V61.8457C286.446 61.3307 286.02 61.0732 285.414 61.0732C284.462 61.0732 283.985 61.8457 283.985 63.3906ZM298.409 67H296.434V59.3848L294.075 60.1162V58.5098L298.197 57.0332H298.409V67Z" fill="black"/>
<path id="Thread 2" d="M382.381 58.708H379.332V67H377.281V58.708H374.273V57.0469H382.381V58.708ZM385.354 60.4102C385.879 59.7812 386.537 59.4668 387.33 59.4668C388.934 59.4668 389.748 60.3988 389.771 62.2627V67H387.795V62.3174C387.795 61.8936 387.704 61.5814 387.521 61.3809C387.339 61.1758 387.036 61.0732 386.612 61.0732C386.034 61.0732 385.614 61.2965 385.354 61.7432V67H383.379V56.5H385.354V60.4102ZM395.417 61.4561C395.148 61.4196 394.911 61.4014 394.706 61.4014C393.959 61.4014 393.469 61.6543 393.236 62.1602V67H391.261V59.6035H393.127L393.182 60.4854C393.578 59.8063 394.127 59.4668 394.829 59.4668C395.048 59.4668 395.253 59.4964 395.444 59.5557L395.417 61.4561ZM399.642 67.1367C398.557 67.1367 397.673 66.804 396.989 66.1387C396.31 65.4733 395.971 64.5869 395.971 63.4795V63.2881C395.971 62.5452 396.114 61.8822 396.401 61.2988C396.688 60.7109 397.094 60.2598 397.618 59.9453C398.147 59.6263 398.748 59.4668 399.423 59.4668C400.435 59.4668 401.23 59.7858 401.809 60.4238C402.392 61.0618 402.684 61.9665 402.684 63.1377V63.9443H397.974C398.037 64.4274 398.229 64.8148 398.548 65.1064C398.871 65.3981 399.279 65.5439 399.771 65.5439C400.533 65.5439 401.127 65.2682 401.556 64.7168L402.526 65.8037C402.23 66.223 401.829 66.5511 401.323 66.7881C400.817 67.0205 400.257 67.1367 399.642 67.1367ZM399.416 61.0664C399.024 61.0664 398.705 61.1986 398.459 61.4629C398.217 61.7272 398.062 62.1055 397.994 62.5977H400.742V62.4404C400.733 62.0029 400.615 61.6657 400.387 61.4287C400.159 61.1872 399.835 61.0664 399.416 61.0664ZM408.098 67C408.007 66.8223 407.94 66.6012 407.899 66.3369C407.421 66.8701 406.799 67.1367 406.033 67.1367C405.309 67.1367 404.707 66.9271 404.229 66.5078C403.755 66.0885 403.518 65.5599 403.518 64.9219C403.518 64.138 403.807 63.5365 404.386 63.1172C404.969 62.6979 405.81 62.486 406.908 62.4814H407.817V62.0576C407.817 61.7158 407.729 61.4424 407.551 61.2373C407.378 61.0322 407.102 60.9297 406.724 60.9297C406.391 60.9297 406.129 61.0094 405.938 61.1689C405.751 61.3285 405.657 61.5472 405.657 61.8252H403.682C403.682 61.3968 403.814 61.0003 404.078 60.6357C404.342 60.2712 404.716 59.9863 405.199 59.7812C405.682 59.5716 406.225 59.4668 406.826 59.4668C407.738 59.4668 408.46 59.6969 408.993 60.1572C409.531 60.613 409.8 61.2555 409.8 62.085V65.291C409.804 65.9928 409.902 66.5238 410.094 66.8838V67H408.098ZM406.464 65.626C406.756 65.626 407.024 65.5622 407.271 65.4346C407.517 65.3024 407.699 65.127 407.817 64.9082V63.6367H407.079C406.09 63.6367 405.564 63.9785 405.5 64.6621L405.493 64.7783C405.493 65.0244 405.58 65.2272 405.753 65.3867C405.926 65.5462 406.163 65.626 406.464 65.626ZM411.01 63.2471C411.01 62.0941 411.267 61.1758 411.782 60.4922C412.302 59.8086 413.01 59.4668 413.908 59.4668C414.628 59.4668 415.223 59.7357 415.692 60.2734V56.5H417.675V67H415.891L415.795 66.2139C415.303 66.8291 414.669 67.1367 413.895 67.1367C413.024 67.1367 412.325 66.7949 411.796 66.1113C411.272 65.4232 411.01 64.4684 411.01 63.2471ZM412.985 63.3906C412.985 64.0833 413.106 64.6143 413.348 64.9834C413.589 65.3525 413.94 65.5371 414.4 65.5371C415.011 65.5371 415.442 65.2796 415.692 64.7646V61.8457C415.446 61.3307 415.02 61.0732 414.414 61.0732C413.462 61.0732 412.985 61.8457 412.985 63.3906ZM429.433 67H422.61V65.6465L425.83 62.2148C426.272 61.7318 426.598 61.3102 426.808 60.9502C427.022 60.5902 427.129 60.2484 427.129 59.9248C427.129 59.4827 427.017 59.1364 426.794 58.8857C426.571 58.6305 426.252 58.5029 425.837 58.5029C425.39 58.5029 425.037 58.6579 424.777 58.9678C424.522 59.2731 424.395 59.6764 424.395 60.1777H422.412C422.412 59.5716 422.556 59.0179 422.843 58.5166C423.134 58.0153 423.545 57.6234 424.073 57.3408C424.602 57.0537 425.201 56.9102 425.871 56.9102C426.896 56.9102 427.692 57.1562 428.257 57.6484C428.826 58.1406 429.111 58.8356 429.111 59.7334C429.111 60.2256 428.984 60.7269 428.729 61.2373C428.473 61.7477 428.036 62.3424 427.416 63.0215L425.153 65.4072H429.433V67Z" fill="black"/>
<path id="Buffer representing (ratio * num_inserts) - (num_samples)" d="M0.761719 23V14.4688H3.75C4.78516 14.4688 5.57031 14.668 6.10547 15.0664C6.64062 15.4609 6.9082 16.041 6.9082 16.8066C6.9082 17.2246 6.80078 17.5938 6.58594 17.9141C6.37109 18.2305 6.07227 18.4629 5.68945 18.6113C6.12695 18.7207 6.4707 18.9414 6.7207 19.2734C6.97461 19.6055 7.10156 20.0117 7.10156 20.4922C7.10156 21.3125 6.83984 21.9336 6.31641 22.3555C5.79297 22.7773 5.04688 22.9922 4.07812 23H0.761719ZM2.51953 19.2852V21.5879H4.02539C4.43945 21.5879 4.76172 21.4902 4.99219 21.2949C5.22656 21.0957 5.34375 20.8223 5.34375 20.4746C5.34375 19.6934 4.93945 19.2969 4.13086 19.2852H2.51953ZM2.51953 18.043H3.82031C4.70703 18.0273 5.15039 17.6738 5.15039 16.9824C5.15039 16.5957 5.03711 16.3184 4.81055 16.1504C4.58789 15.9785 4.23438 15.8926 3.75 15.8926H2.51953V18.043ZM12.1113 22.3555C11.6934 22.8633 11.1152 23.1172 10.377 23.1172C9.69727 23.1172 9.17773 22.9219 8.81836 22.5312C8.46289 22.1406 8.28125 21.5684 8.27344 20.8145V16.6602H9.9668V20.7559C9.9668 21.416 10.2676 21.7461 10.8691 21.7461C11.4434 21.7461 11.8379 21.5469 12.0527 21.1484V16.6602H13.752V23H12.1582L12.1113 22.3555ZM15.4922 23V17.9023H14.5488V16.6602H15.4922V16.1211C15.4922 15.4102 15.6953 14.8594 16.1016 14.4688C16.5117 14.0742 17.084 13.877 17.8184 13.877C18.0527 13.877 18.3398 13.916 18.6797 13.9941L18.6621 15.3066C18.5215 15.2715 18.3496 15.2539 18.1465 15.2539C17.5098 15.2539 17.1914 15.5527 17.1914 16.1504V16.6602H18.4512V17.9023H17.1914V23H15.4922ZM19.793 23V17.9023H18.8496V16.6602H19.793V16.1211C19.793 15.4102 19.9961 14.8594 20.4023 14.4688C20.8125 14.0742 21.3848 13.877 22.1191 13.877C22.3535 13.877 22.6406 13.916 22.9805 13.9941L22.9629 15.3066C22.8223 15.2715 22.6504 15.2539 22.4473 15.2539C21.8105 15.2539 21.4922 15.5527 21.4922 16.1504V16.6602H22.752V17.9023H21.4922V23H19.793ZM26.4082 23.1172C25.4785 23.1172 24.7207 22.832 24.1348 22.2617C23.5527 21.6914 23.2617 20.9316 23.2617 19.9824V19.8184C23.2617 19.1816 23.3848 18.6133 23.6309 18.1133C23.877 17.6094 24.2246 17.2227 24.6738 16.9531C25.127 16.6797 25.6426 16.543 26.2207 16.543C27.0879 16.543 27.7695 16.8164 28.2656 17.3633C28.7656 17.9102 29.0156 18.6855 29.0156 19.6895V20.3809H24.9785C25.0332 20.7949 25.1973 21.127 25.4707 21.377C25.748 21.627 26.0977 21.752 26.5195 21.752C27.1719 21.752 27.6816 21.5156 28.0488 21.043L28.8809 21.9746C28.627 22.334 28.2832 22.6152 27.8496 22.8184C27.416 23.0176 26.9355 23.1172 26.4082 23.1172ZM26.2148 17.9141C25.8789 17.9141 25.6055 18.0273 25.3945 18.2539C25.1875 18.4805 25.0547 18.8047 24.9961 19.2266H27.3516V19.0918C27.3438 18.7168 27.2422 18.4277 27.0469 18.2246C26.8516 18.0176 26.5742 17.9141 26.2148 17.9141ZM33.5449 18.248C33.3145 18.2168 33.1113 18.2012 32.9355 18.2012C32.2949 18.2012 31.875 18.418 31.6758 18.8516V23H29.9824V16.6602H31.582L31.6289 17.416C31.9688 16.834 32.4395 16.543 33.041 16.543C33.2285 16.543 33.4043 16.5684 33.5684 16.6191L33.5449 18.248ZM40.916 18.248C40.6855 18.2168 40.4824 18.2012 40.3066 18.2012C39.666 18.2012 39.2461 18.418 39.0469 18.8516V23H37.3535V16.6602H38.9531L39 17.416C39.3398 16.834 39.8105 16.543 40.4121 16.543C40.5996 16.543 40.7754 16.5684 40.9395 16.6191L40.916 18.248ZM44.5371 23.1172C43.6074 23.1172 42.8496 22.832 42.2637 22.2617C41.6816 21.6914 41.3906 20.9316 41.3906 19.9824V19.8184C41.3906 19.1816 41.5137 18.6133 41.7598 18.1133C42.0059 17.6094 42.3535 17.2227 42.8027 16.9531C43.2559 16.6797 43.7715 16.543 44.3496 16.543C45.2168 16.543 45.8984 16.8164 46.3945 17.3633C46.8945 17.9102 47.1445 18.6855 47.1445 19.6895V20.3809H43.1074C43.1621 20.7949 43.3262 21.127 43.5996 21.377C43.877 21.627 44.2266 21.752 44.6484 21.752C45.3008 21.752 45.8105 21.5156 46.1777 21.043L47.0098 21.9746C46.7559 22.334 46.4121 22.6152 45.9785 22.8184C45.5449 23.0176 45.0645 23.1172 44.5371 23.1172ZM44.3438 17.9141C44.0078 17.9141 43.7344 18.0273 43.5234 18.2539C43.3164 18.4805 43.1836 18.8047 43.125 19.2266H45.4805V19.0918C45.4727 18.7168 45.3711 18.4277 45.1758 18.2246C44.9805 18.0176 44.7031 17.9141 44.3438 17.9141ZM53.8184 19.8887C53.8184 20.8652 53.5957 21.6484 53.1504 22.2383C52.709 22.8242 52.1113 23.1172 51.3574 23.1172C50.7168 23.1172 50.1992 22.8945 49.8047 22.4492V25.4375H48.1113V16.6602H49.6816L49.7402 17.2812C50.1504 16.7891 50.6855 16.543 51.3457 16.543C52.127 16.543 52.7344 16.832 53.168 17.4102C53.6016 17.9883 53.8184 18.7852 53.8184 19.8008V19.8887ZM52.125 19.7656C52.125 19.1758 52.0195 18.7207 51.8086 18.4004C51.6016 18.0801 51.2988 17.9199 50.9004 17.9199C50.3691 17.9199 50.0039 18.123 49.8047 18.5293V21.125C50.0117 21.543 50.3809 21.752 50.9121 21.752C51.7207 21.752 52.125 21.0898 52.125 19.7656ZM58.4355 18.248C58.2051 18.2168 58.002 18.2012 57.8262 18.2012C57.1855 18.2012 56.7656 18.418 56.5664 18.8516V23H54.873V16.6602H56.4727L56.5195 17.416C56.8594 16.834 57.3301 16.543 57.9316 16.543C58.1191 16.543 58.2949 16.5684 58.459 16.6191L58.4355 18.248ZM62.0566 23.1172C61.127 23.1172 60.3691 22.832 59.7832 22.2617C59.2012 21.6914 58.9102 20.9316 58.9102 19.9824V19.8184C58.9102 19.1816 59.0332 18.6133 59.2793 18.1133C59.5254 17.6094 59.873 17.2227 60.3223 16.9531C60.7754 16.6797 61.291 16.543 61.8691 16.543C62.7363 16.543 63.418 16.8164 63.9141 17.3633C64.4141 17.9102 64.6641 18.6855 64.6641 19.6895V20.3809H60.627C60.6816 20.7949 60.8457 21.127 61.1191 21.377C61.3965 21.627 61.7461 21.752 62.168 21.752C62.8203 21.752 63.3301 21.5156 63.6973 21.043L64.5293 21.9746C64.2754 22.334 63.9316 22.6152 63.498 22.8184C63.0645 23.0176 62.584 23.1172 62.0566 23.1172ZM61.8633 17.9141C61.5273 17.9141 61.2539 18.0273 61.043 18.2539C60.8359 18.4805 60.7031 18.8047 60.6445 19.2266H63V19.0918C62.9922 18.7168 62.8906 18.4277 62.6953 18.2246C62.5 18.0176 62.2227 17.9141 61.8633 17.9141ZM69.0645 21.248C69.0645 21.041 68.9609 20.8789 68.7539 20.7617C68.5508 20.6406 68.2227 20.5332 67.7695 20.4395C66.2617 20.123 65.5078 19.4824 65.5078 18.5176C65.5078 17.9551 65.7402 17.4863 66.2051 17.1113C66.6738 16.7324 67.2852 16.543 68.0391 16.543C68.8438 16.543 69.4863 16.7324 69.9668 17.1113C70.4512 17.4902 70.6934 17.9824 70.6934 18.5879H69C69 18.3457 68.9219 18.1465 68.7656 17.9902C68.6094 17.8301 68.3652 17.75 68.0332 17.75C67.748 17.75 67.5273 17.8145 67.3711 17.9434C67.2148 18.0723 67.1367 18.2363 67.1367 18.4355C67.1367 18.623 67.2246 18.7754 67.4004 18.8926C67.5801 19.0059 67.8809 19.1055 68.3027 19.1914C68.7246 19.2734 69.0801 19.3672 69.3691 19.4727C70.2637 19.8008 70.7109 20.3691 70.7109 21.1777C70.7109 21.7559 70.4629 22.2246 69.9668 22.584C69.4707 22.9395 68.8301 23.1172 68.0449 23.1172C67.5137 23.1172 67.041 23.0234 66.627 22.8359C66.2168 22.6445 65.8945 22.3848 65.6602 22.0566C65.4258 21.7246 65.3086 21.3672 65.3086 20.9844H66.9141C66.9297 21.2852 67.041 21.5156 67.248 21.6758C67.4551 21.8359 67.7324 21.916 68.0801 21.916C68.4043 21.916 68.6484 21.8555 68.8125 21.7344C68.9805 21.6094 69.0645 21.4473 69.0645 21.248ZM74.7246 23.1172C73.7949 23.1172 73.0371 22.832 72.4512 22.2617C71.8691 21.6914 71.5781 20.9316 71.5781 19.9824V19.8184C71.5781 19.1816 71.7012 18.6133 71.9473 18.1133C72.1934 17.6094 72.541 17.2227 72.9902 16.9531C73.4434 16.6797 73.959 16.543 74.5371 16.543C75.4043 16.543 76.0859 16.8164 76.582 17.3633C77.082 17.9102 77.332 18.6855 77.332 19.6895V20.3809H73.2949C73.3496 20.7949 73.5137 21.127 73.7871 21.377C74.0645 21.627 74.4141 21.752 74.8359 21.752C75.4883 21.752 75.998 21.5156 76.3652 21.043L77.1973 21.9746C76.9434 22.334 76.5996 22.6152 76.166 22.8184C75.7324 23.0176 75.252 23.1172 74.7246 23.1172ZM74.5312 17.9141C74.1953 17.9141 73.9219 18.0273 73.7109 18.2539C73.5039 18.4805 73.3711 18.8047 73.3125 19.2266H75.668V19.0918C75.6602 18.7168 75.5586 18.4277 75.3633 18.2246C75.168 18.0176 74.8906 17.9141 74.5312 17.9141ZM79.8574 16.6602L79.9102 17.3926C80.3633 16.8262 80.9707 16.543 81.7324 16.543C82.4043 16.543 82.9043 16.7402 83.2324 17.1348C83.5605 17.5293 83.7285 18.1191 83.7363 18.9043V23H82.043V18.9453C82.043 18.5859 81.9648 18.3262 81.8086 18.166C81.6523 18.002 81.3926 17.9199 81.0293 17.9199C80.5527 17.9199 80.1953 18.123 79.957 18.5293V23H78.2637V16.6602H79.8574ZM87.0527 15.1016V16.6602H88.1367V17.9023H87.0527V21.0664C87.0527 21.3008 87.0977 21.4688 87.1875 21.5703C87.2773 21.6719 87.4492 21.7227 87.7031 21.7227C87.8906 21.7227 88.0566 21.709 88.2012 21.6816V22.9648C87.8691 23.0664 87.5273 23.1172 87.1758 23.1172C85.9883 23.1172 85.3828 22.5176 85.3594 21.3184V17.9023H84.4336V16.6602H85.3594V15.1016H87.0527ZM90.8672 23H89.168V16.6602H90.8672V23ZM89.0684 15.0195C89.0684 14.7656 89.1523 14.5566 89.3203 14.3926C89.4922 14.2285 89.7246 14.1465 90.0176 14.1465C90.3066 14.1465 90.5371 14.2285 90.709 14.3926C90.8809 14.5566 90.9668 14.7656 90.9668 15.0195C90.9668 15.2773 90.8789 15.4883 90.7031 15.6523C90.5312 15.8164 90.3027 15.8984 90.0176 15.8984C89.7324 15.8984 89.502 15.8164 89.3262 15.6523C89.1543 15.4883 89.0684 15.2773 89.0684 15.0195ZM93.8262 16.6602L93.8789 17.3926C94.332 16.8262 94.9395 16.543 95.7012 16.543C96.373 16.543 96.873 16.7402 97.2012 17.1348C97.5293 17.5293 97.6973 18.1191 97.7051 18.9043V23H96.0117V18.9453C96.0117 18.5859 95.9336 18.3262 95.7773 18.166C95.6211 18.002 95.3613 17.9199 94.998 17.9199C94.5215 17.9199 94.1641 18.123 93.9258 18.5293V23H92.2324V16.6602H93.8262ZM98.748 19.7832C98.748 18.8105 98.9785 18.0273 99.4395 17.4336C99.9043 16.8398 100.529 16.543 101.314 16.543C102.01 16.543 102.551 16.7812 102.938 17.2578L103.008 16.6602H104.543V22.7891C104.543 23.3438 104.416 23.8262 104.162 24.2363C103.912 24.6465 103.559 24.959 103.102 25.1738C102.645 25.3887 102.109 25.4961 101.496 25.4961C101.031 25.4961 100.578 25.4023 100.137 25.2148C99.6953 25.0312 99.3613 24.793 99.1348 24.5L99.8848 23.4688C100.307 23.9414 100.818 24.1777 101.42 24.1777C101.869 24.1777 102.219 24.0566 102.469 23.8145C102.719 23.5762 102.844 23.2363 102.844 22.7949V22.4551C102.453 22.8965 101.939 23.1172 101.303 23.1172C100.541 23.1172 99.9238 22.8203 99.4512 22.2266C98.9824 21.6289 98.748 20.8379 98.748 19.8535V19.7832ZM100.441 19.9062C100.441 20.4805 100.557 20.9316 100.787 21.2598C101.018 21.584 101.334 21.7461 101.736 21.7461C102.252 21.7461 102.621 21.5527 102.844 21.166V18.5C102.617 18.1133 102.252 17.9199 101.748 17.9199C101.342 17.9199 101.021 18.0859 100.787 18.418C100.557 18.75 100.441 19.2461 100.441 19.9062ZM0.726562 33.5312C0.726562 32.6367 0.845703 31.7852 1.08398 30.9766C1.32227 30.168 1.67383 29.4531 2.13867 28.832C2.60352 28.207 3.10742 27.7734 3.65039 27.5312L3.97852 28.4453C3.4082 28.8672 2.96289 29.5195 2.64258 30.4023C2.32227 31.2852 2.16211 32.3164 2.16211 33.4961V33.6777C2.16211 34.8613 2.32031 35.8965 2.63672 36.7832C2.95312 37.6699 3.40039 38.332 3.97852 38.7695L3.65039 39.666C3.11914 39.4277 2.62305 39.0059 2.16211 38.4004C1.70508 37.7988 1.35547 37.1035 1.11328 36.3145C0.871094 35.5254 0.742188 34.7012 0.726562 33.8418V33.5312ZM8.57812 32.248C8.35156 32.209 8.16602 32.1895 8.02148 32.1895C7.43164 32.1738 6.96484 32.3945 6.62109 32.8516L5.88867 37H4.23633L5.33789 30.6602L6.89062 30.6543L6.73828 31.4277C7.13672 30.8301 7.62891 30.5312 8.21484 30.5312C8.37891 30.5312 8.57031 30.5586 8.78906 30.6133L8.57812 32.248ZM12.041 37C11.9902 36.8398 11.9688 36.6484 11.9766 36.4258C11.5 36.9023 10.9609 37.1328 10.3594 37.1172C9.80469 37.1094 9.34375 36.9297 8.97656 36.5781C8.61328 36.2227 8.44336 35.7852 8.4668 35.2656C8.49414 34.5742 8.7832 34.0449 9.33398 33.6777C9.88867 33.3066 10.6309 33.1211 11.5605 33.1211L12.334 33.1328L12.416 32.752C12.4395 32.623 12.4453 32.5 12.4336 32.3828C12.4141 32.1992 12.3438 32.0566 12.2227 31.9551C12.1055 31.8496 11.9492 31.7949 11.7539 31.791C11.4961 31.7832 11.2773 31.8477 11.0977 31.9844C10.918 32.1172 10.8027 32.3105 10.752 32.5645L9.09375 32.5703C9.12109 31.9648 9.39844 31.4746 9.92578 31.0996C10.457 30.7207 11.1113 30.5352 11.8887 30.543C12.6074 30.5586 13.1699 30.7734 13.5762 31.1875C13.9824 31.5977 14.1523 32.127 14.0859 32.7754L13.5996 35.8105L13.5703 36.1855C13.5625 36.4629 13.5957 36.6973 13.6699 36.8887L13.6641 37H12.041ZM10.7695 35.834C11.2461 35.8496 11.6621 35.6426 12.0176 35.2129L12.2227 34.1172L11.6484 34.1113C11.0391 34.127 10.5996 34.3125 10.3301 34.668C10.2324 34.7969 10.1719 34.9551 10.1484 35.1426C10.1172 35.3535 10.1602 35.5215 10.2773 35.6465C10.3984 35.7676 10.5625 35.8301 10.7695 35.834ZM18.0293 29.1016L17.7539 30.6602H18.8086L18.5918 31.9023H17.5371L16.998 35.0781C16.9746 35.2773 16.9902 35.4297 17.0449 35.5352C17.0996 35.6406 17.2324 35.6973 17.4434 35.7051C17.5059 35.709 17.6738 35.6992 17.9473 35.6758L17.8301 36.9707C17.5371 37.0684 17.2207 37.1133 16.8809 37.1055C16.3379 37.0977 15.9336 36.9277 15.668 36.5957C15.4023 36.2637 15.293 35.8145 15.3398 35.248L15.8848 31.9023H14.9883L15.2051 30.6602H16.1016L16.3711 29.1016H18.0293ZM20.4199 37H18.7559L19.8574 30.6602H21.5215L20.4199 37ZM20.0508 29.0488C20.043 28.7871 20.1289 28.5703 20.3086 28.3984C20.4883 28.2266 20.7051 28.1406 20.959 28.1406C21.209 28.1328 21.4258 28.209 21.6094 28.3691C21.793 28.5293 21.8887 28.7363 21.8965 28.9902C21.9043 29.2324 21.8223 29.4434 21.6504 29.623C21.4824 29.8027 21.2617 29.8965 20.9883 29.9043C20.7422 29.9121 20.5254 29.8379 20.3379 29.6816C20.1543 29.5254 20.0586 29.3145 20.0508 29.0488ZM25.4531 30.543C26.0117 30.5508 26.4922 30.6953 26.8945 30.9766C27.3008 31.2539 27.5977 31.6387 27.7852 32.1309C27.9766 32.6191 28.0449 33.1621 27.9902 33.7598C27.9004 34.7676 27.5488 35.584 26.9355 36.209C26.3262 36.8301 25.5723 37.1328 24.6738 37.1172C24.123 37.1094 23.6465 36.9688 23.2441 36.6953C22.8418 36.418 22.5449 36.0352 22.3535 35.5469C22.1621 35.0586 22.0938 34.5195 22.1484 33.9297C22.25 32.8828 22.6055 32.0508 23.2148 31.4336C23.8242 30.8164 24.5703 30.5195 25.4531 30.543ZM23.7832 34.5332C23.791 34.9082 23.8789 35.2051 24.0469 35.4238C24.2148 35.6387 24.4512 35.75 24.7559 35.7578C25.2637 35.7734 25.6621 35.541 25.9512 35.0605C26.2402 34.5762 26.375 33.9414 26.3555 33.1562C26.3398 32.7812 26.248 32.4824 26.0801 32.2598C25.916 32.0332 25.6797 31.916 25.3711 31.9082C24.8789 31.8926 24.4844 32.125 24.1875 32.6055C23.8945 33.082 23.7598 33.7246 23.7832 34.5332ZM33.4395 31.3633L31.5996 30.8418L31.9453 29.7812L33.7676 30.5137L33.6504 28.4688H34.7988L34.6816 30.5547L36.457 29.834L36.8027 30.9062L34.9277 31.4277L36.1582 32.9863L35.2266 33.6484L34.1602 31.9375L33.1055 33.5898L32.1738 32.957L33.4395 31.3633ZM42.498 30.6543L42.3574 31.4043C42.8652 30.8145 43.4805 30.5273 44.2031 30.543C44.8008 30.5547 45.2422 30.7734 45.5273 31.1992C45.8125 31.625 45.916 32.2148 45.8379 32.9688L45.1699 37H43.5176L44.1973 32.9512C44.2168 32.7988 44.2207 32.6602 44.209 32.5352C44.1582 32.1367 43.9082 31.9316 43.459 31.9199C43.0254 31.9043 42.6367 32.1055 42.293 32.5234L41.502 37H39.8496L40.9512 30.6602L42.498 30.6543ZM50.3965 36.3438C49.9277 36.8711 49.3457 37.1289 48.6504 37.1172C48.041 37.1094 47.5801 36.8906 47.2676 36.4609C46.9551 36.0312 46.834 35.4648 46.9043 34.7617L47.5898 30.6602H49.2422L48.5449 34.7793C48.5293 34.9082 48.5273 35.0293 48.5391 35.1426C48.5781 35.5332 48.7949 35.7344 49.1895 35.7461C49.7012 35.7617 50.125 35.5645 50.4609 35.1543L51.252 30.6602H52.916L51.8145 37H50.2734L50.3965 36.3438ZM55.6816 30.6543L55.5469 31.375C56.0586 30.8047 56.6777 30.5273 57.4043 30.543C57.7949 30.5508 58.1191 30.6406 58.377 30.8125C58.6348 30.9844 58.8086 31.2168 58.8984 31.5098C59.457 30.8496 60.1133 30.5273 60.8672 30.543C61.4492 30.5547 61.8867 30.7539 62.1797 31.1406C62.4766 31.5273 62.6016 32.0859 62.5547 32.8164L62.543 32.9629L61.8691 37H60.2109L60.8848 32.9512C60.9004 32.8066 60.9062 32.6719 60.9023 32.5469C60.875 32.1367 60.6406 31.9258 60.1992 31.9141C59.7461 31.9141 59.3574 32.1562 59.0332 32.6406L59.0156 32.7754L58.2773 37H56.625L57.2988 32.9629C57.3145 32.8184 57.3203 32.6836 57.3164 32.5586C57.2891 32.1445 57.0566 31.9316 56.6191 31.9199C56.2012 31.9082 55.8242 32.1055 55.4883 32.5117L54.6973 37H53.0449L54.1406 30.6602L55.6816 30.6543ZM67.5176 38.3242H62.3262L62.5605 37H67.7461L67.5176 38.3242ZM70.1895 37H68.5254L69.627 30.6602H71.291L70.1895 37ZM69.8203 29.0488C69.8125 28.7871 69.8984 28.5703 70.0781 28.3984C70.2578 28.2266 70.4746 28.1406 70.7285 28.1406C70.9785 28.1328 71.1953 28.209 71.3789 28.3691C71.5625 28.5293 71.6582 28.7363 71.666 28.9902C71.6738 29.2324 71.5918 29.4434 71.4199 29.623C71.252 29.8027 71.0312 29.8965 70.7578 29.9043C70.5117 29.9121 70.2949 29.8379 70.1074 29.6816C69.9238 29.5254 69.8281 29.3145 69.8203 29.0488ZM74.209 30.6543L74.0684 31.4043C74.5762 30.8145 75.1914 30.5273 75.9141 30.543C76.5117 30.5547 76.9531 30.7734 77.2383 31.1992C77.5234 31.625 77.627 32.2148 77.5488 32.9688L76.8809 37H75.2285L75.9082 32.9512C75.9277 32.7988 75.9316 32.6602 75.9199 32.5352C75.8691 32.1367 75.6191 31.9316 75.1699 31.9199C74.7363 31.9043 74.3477 32.1055 74.0039 32.5234L73.2129 37H71.5605L72.6621 30.6602L74.209 30.6543ZM81.8555 35.2129C81.918 34.9004 81.7012 34.6738 81.2051 34.5332L80.6719 34.3984C79.4102 34.0508 78.7969 33.4375 78.832 32.5586C78.8516 31.9609 79.1152 31.4746 79.623 31.0996C80.1348 30.7207 80.75 30.5352 81.4688 30.543C82.1836 30.5508 82.7617 30.7402 83.2031 31.1113C83.6445 31.4824 83.8691 31.9766 83.877 32.5938L82.2363 32.5879C82.2441 32.0449 81.9746 31.7695 81.4277 31.7617C81.1699 31.7617 80.9453 31.8262 80.7539 31.9551C80.5664 32.084 80.4512 32.2578 80.4082 32.4766C80.3496 32.7891 80.5859 33.0098 81.1172 33.1387L81.3516 33.1914C81.8906 33.3203 82.3027 33.4688 82.5879 33.6367C82.873 33.8008 83.0918 34.0059 83.2441 34.252C83.4004 34.498 83.4727 34.793 83.4609 35.1367C83.4492 35.5391 83.3184 35.8906 83.0684 36.1914C82.8223 36.4922 82.4824 36.7246 82.0488 36.8887C81.6191 37.0527 81.166 37.1289 80.6895 37.1172C79.9863 37.1094 79.4004 36.9082 78.9316 36.5137C78.4629 36.1152 78.2246 35.6016 78.2168 34.9727L79.7754 34.9844C79.791 35.5898 80.1152 35.8965 80.748 35.9043C81.0527 35.9043 81.3027 35.8418 81.498 35.7168C81.6973 35.5918 81.8164 35.4238 81.8555 35.2129ZM87.2402 37.1172C86.6855 37.1133 86.1934 36.9785 85.7637 36.7129C85.3379 36.4434 85.0195 36.0762 84.8086 35.6113C84.5977 35.1426 84.5156 34.627 84.5625 34.0645L84.5801 33.8301C84.6387 33.2129 84.8184 32.6465 85.1191 32.1309C85.4199 31.6152 85.8066 31.2188 86.2793 30.9414C86.752 30.6602 87.2754 30.5273 87.8496 30.543C88.666 30.5586 89.2832 30.8594 89.7012 31.4453C90.123 32.0273 90.2832 32.7656 90.1816 33.6602L90.0879 34.3809H86.2031C86.1875 34.791 86.2871 35.1191 86.502 35.3652C86.7168 35.6113 87.0098 35.7383 87.3809 35.7461C87.9824 35.7617 88.5098 35.5293 88.9629 35.0488L89.7188 35.9863C89.4805 36.3457 89.1367 36.627 88.6875 36.8301C88.2383 37.0293 87.7559 37.125 87.2402 37.1172ZM87.7676 31.9082C87.4629 31.9004 87.1914 31.9961 86.9531 32.1953C86.7188 32.3945 86.5078 32.7402 86.3203 33.2324H88.5938L88.6289 33.0801C88.6523 32.9238 88.6543 32.7754 88.6348 32.6348C88.5957 32.4082 88.5 32.2324 88.3477 32.1074C88.1953 31.9785 88.002 31.9121 87.7676 31.9082ZM94.9219 32.248C94.6953 32.209 94.5098 32.1895 94.3652 32.1895C93.7754 32.1738 93.3086 32.3945 92.9648 32.8516L92.2324 37H90.5801L91.6816 30.6602L93.2344 30.6543L93.082 31.4277C93.4805 30.8301 93.9727 30.5312 94.5586 30.5312C94.7227 30.5312 94.9141 30.5586 95.1328 30.6133L94.9219 32.248ZM98.5371 29.1016L98.2617 30.6602H99.3164L99.0996 31.9023H98.0449L97.5059 35.0781C97.4824 35.2773 97.498 35.4297 97.5527 35.5352C97.6074 35.6406 97.7402 35.6973 97.9512 35.7051C98.0137 35.709 98.1816 35.6992 98.4551 35.6758L98.3379 36.9707C98.0449 37.0684 97.7285 37.1133 97.3887 37.1055C96.8457 37.0977 96.4414 36.9277 96.1758 36.5957C95.9102 36.2637 95.8008 35.8145 95.8477 35.248L96.3926 31.9023H95.4961L95.7129 30.6602H96.6094L96.8789 29.1016H98.5371ZM102.855 35.2129C102.918 34.9004 102.701 34.6738 102.205 34.5332L101.672 34.3984C100.41 34.0508 99.7969 33.4375 99.832 32.5586C99.8516 31.9609 100.115 31.4746 100.623 31.0996C101.135 30.7207 101.75 30.5352 102.469 30.543C103.184 30.5508 103.762 30.7402 104.203 31.1113C104.645 31.4824 104.869 31.9766 104.877 32.5938L103.236 32.5879C103.244 32.0449 102.975 31.7695 102.428 31.7617C102.17 31.7617 101.945 31.8262 101.754 31.9551C101.566 32.084 101.451 32.2578 101.408 32.4766C101.35 32.7891 101.586 33.0098 102.117 33.1387L102.352 33.1914C102.891 33.3203 103.303 33.4688 103.588 33.6367C103.873 33.8008 104.092 34.0059 104.244 34.252C104.4 34.498 104.473 34.793 104.461 35.1367C104.449 35.5391 104.318 35.8906 104.068 36.1914C103.822 36.4922 103.482 36.7246 103.049 36.8887C102.619 37.0527 102.166 37.1289 101.689 37.1172C100.986 37.1094 100.4 36.9082 99.9316 36.5137C99.4629 36.1152 99.2246 35.6016 99.2168 34.9727L100.775 34.9844C100.791 35.5898 101.115 35.8965 101.748 35.9043C102.053 35.9043 102.303 35.8418 102.498 35.7168C102.697 35.5918 102.816 35.4238 102.855 35.2129ZM108.779 33.666C108.779 34.5488 108.652 35.3984 108.398 36.2148C108.145 37.0312 107.779 37.752 107.303 38.377C106.826 39.002 106.316 39.4316 105.773 39.666L105.445 38.7695C106 38.3516 106.438 37.707 106.758 36.8359C107.078 35.9648 107.244 34.9629 107.256 33.8301V33.5195C107.256 32.3516 107.096 31.3223 106.775 30.4316C106.459 29.541 106.016 28.873 105.445 28.4277L105.773 27.5312C106.305 27.7617 106.805 28.1797 107.273 28.7852C107.746 29.3906 108.111 30.0957 108.369 30.9004C108.631 31.7051 108.768 32.5391 108.779 33.4023V33.666ZM116.373 34.0293H113.074V32.6641H116.373V34.0293ZM0.726562 47.5312C0.726562 46.6367 0.845703 45.7852 1.08398 44.9766C1.32227 44.168 1.67383 43.4531 2.13867 42.832C2.60352 42.207 3.10742 41.7734 3.65039 41.5312L3.97852 42.4453C3.4082 42.8672 2.96289 43.5195 2.64258 44.4023C2.32227 45.2852 2.16211 46.3164 2.16211 47.4961V47.6777C2.16211 48.8613 2.32031 49.8965 2.63672 50.7832C2.95312 51.6699 3.40039 52.332 3.97852 52.7695L3.65039 53.666C3.11914 53.4277 2.62305 53.0059 2.16211 52.4004C1.70508 51.7988 1.35547 51.1035 1.11328 50.3145C0.871094 49.5254 0.742188 48.7012 0.726562 47.8418V47.5312ZM6.84961 44.6543L6.70898 45.4043C7.2168 44.8145 7.83203 44.5273 8.55469 44.543C9.15234 44.5547 9.59375 44.7734 9.87891 45.1992C10.1641 45.625 10.2676 46.2148 10.1895 46.9688L9.52148 51H7.86914L8.54883 46.9512C8.56836 46.7988 8.57227 46.6602 8.56055 46.5352C8.50977 46.1367 8.25977 45.9316 7.81055 45.9199C7.37695 45.9043 6.98828 46.1055 6.64453 46.5234L5.85352 51H4.20117L5.30273 44.6602L6.84961 44.6543ZM14.748 50.3438C14.2793 50.8711 13.6973 51.1289 13.002 51.1172C12.3926 51.1094 11.9316 50.8906 11.6191 50.4609C11.3066 50.0312 11.1855 49.4648 11.2559 48.7617L11.9414 44.6602H13.5938L12.8965 48.7793C12.8809 48.9082 12.8789 49.0293 12.8906 49.1426C12.9297 49.5332 13.1465 49.7344 13.541 49.7461C14.0527 49.7617 14.4766 49.5645 14.8125 49.1543L15.6035 44.6602H17.2676L16.166 51H14.625L14.748 50.3438ZM20.0332 44.6543L19.8984 45.375C20.4102 44.8047 21.0293 44.5273 21.7559 44.543C22.1465 44.5508 22.4707 44.6406 22.7285 44.8125C22.9863 44.9844 23.1602 45.2168 23.25 45.5098C23.8086 44.8496 24.4648 44.5273 25.2188 44.543C25.8008 44.5547 26.2383 44.7539 26.5312 45.1406C26.8281 45.5273 26.9531 46.0859 26.9062 46.8164L26.8945 46.9629L26.2207 51H24.5625L25.2363 46.9512C25.252 46.8066 25.2578 46.6719 25.2539 46.5469C25.2266 46.1367 24.9922 45.9258 24.5508 45.9141C24.0977 45.9141 23.709 46.1562 23.3848 46.6406L23.3672 46.7754L22.6289 51H20.9766L21.6504 46.9629C21.666 46.8184 21.6719 46.6836 21.668 46.5586C21.6406 46.1445 21.4082 45.9316 20.9707 45.9199C20.5527 45.9082 20.1758 46.1055 19.8398 46.5117L19.0488 51H17.3965L18.4922 44.6602L20.0332 44.6543ZM31.8691 52.3242H26.6777L26.9121 51H32.0977L31.8691 52.3242ZM36.4688 49.2129C36.5312 48.9004 36.3145 48.6738 35.8184 48.5332L35.2852 48.3984C34.0234 48.0508 33.4102 47.4375 33.4453 46.5586C33.4648 45.9609 33.7285 45.4746 34.2363 45.0996C34.748 44.7207 35.3633 44.5352 36.082 44.543C36.7969 44.5508 37.375 44.7402 37.8164 45.1113C38.2578 45.4824 38.4824 45.9766 38.4902 46.5938L36.8496 46.5879C36.8574 46.0449 36.5879 45.7695 36.041 45.7617C35.7832 45.7617 35.5586 45.8262 35.3672 45.9551C35.1797 46.084 35.0645 46.2578 35.0215 46.4766C34.9629 46.7891 35.1992 47.0098 35.7305 47.1387L35.9648 47.1914C36.5039 47.3203 36.916 47.4688 37.2012 47.6367C37.4863 47.8008 37.7051 48.0059 37.8574 48.252C38.0137 48.498 38.0859 48.793 38.0742 49.1367C38.0625 49.5391 37.9316 49.8906 37.6816 50.1914C37.4355 50.4922 37.0957 50.7246 36.6621 50.8887C36.2324 51.0527 35.7793 51.1289 35.3027 51.1172C34.5996 51.1094 34.0137 50.9082 33.5449 50.5137C33.0762 50.1152 32.8379 49.6016 32.8301 48.9727L34.3887 48.9844C34.4043 49.5898 34.7285 49.8965 35.3613 49.9043C35.666 49.9043 35.916 49.8418 36.1113 49.7168C36.3105 49.5918 36.4297 49.4238 36.4688 49.2129ZM42.5098 51C42.459 50.8398 42.4375 50.6484 42.4453 50.4258C41.9688 50.9023 41.4297 51.1328 40.8281 51.1172C40.2734 51.1094 39.8125 50.9297 39.4453 50.5781C39.082 50.2227 38.9121 49.7852 38.9355 49.2656C38.9629 48.5742 39.252 48.0449 39.8027 47.6777C40.3574 47.3066 41.0996 47.1211 42.0293 47.1211L42.8027 47.1328L42.8848 46.752C42.9082 46.623 42.9141 46.5 42.9023 46.3828C42.8828 46.1992 42.8125 46.0566 42.6914 45.9551C42.5742 45.8496 42.418 45.7949 42.2227 45.791C41.9648 45.7832 41.7461 45.8477 41.5664 45.9844C41.3867 46.1172 41.2715 46.3105 41.2207 46.5645L39.5625 46.5703C39.5898 45.9648 39.8672 45.4746 40.3945 45.0996C40.9258 44.7207 41.5801 44.5352 42.3574 44.543C43.0762 44.5586 43.6387 44.7734 44.0449 45.1875C44.4512 45.5977 44.6211 46.127 44.5547 46.7754L44.0684 49.8105L44.0391 50.1855C44.0312 50.4629 44.0645 50.6973 44.1387 50.8887L44.1328 51H42.5098ZM41.2383 49.834C41.7148 49.8496 42.1309 49.6426 42.4863 49.2129L42.6914 48.1172L42.1172 48.1113C41.5078 48.127 41.0684 48.3125 40.7988 48.668C40.7012 48.7969 40.6406 48.9551 40.6172 49.1426C40.5859 49.3535 40.6289 49.5215 40.7461 49.6465C40.8672 49.7676 41.0312 49.8301 41.2383 49.834ZM47.7832 44.6543L47.6484 45.375C48.1602 44.8047 48.7793 44.5273 49.5059 44.543C49.8965 44.5508 50.2207 44.6406 50.4785 44.8125C50.7363 44.9844 50.9102 45.2168 51 45.5098C51.5586 44.8496 52.2148 44.5273 52.9688 44.543C53.5508 44.5547 53.9883 44.7539 54.2812 45.1406C54.5781 45.5273 54.7031 46.0859 54.6562 46.8164L54.6445 46.9629L53.9707 51H52.3125L52.9863 46.9512C53.002 46.8066 53.0078 46.6719 53.0039 46.5469C52.9766 46.1367 52.7422 45.9258 52.3008 45.9141C51.8477 45.9141 51.459 46.1562 51.1348 46.6406L51.1172 46.7754L50.3789 51H48.7266L49.4004 46.9629C49.416 46.8184 49.4219 46.6836 49.418 46.5586C49.3906 46.1445 49.1582 45.9316 48.7207 45.9199C48.3027 45.9082 47.9258 46.1055 47.5898 46.5117L46.7988 51H45.1465L46.2422 44.6602L47.7832 44.6543ZM61.3711 47.8477C61.2891 48.5117 61.1152 49.1016 60.8496 49.6172C60.584 50.1328 60.2539 50.5156 59.8594 50.7656C59.4648 51.0156 59.0273 51.1348 58.5469 51.123C57.9336 51.1074 57.4492 50.8789 57.0938 50.4375L56.5137 53.4375H54.8613L56.3789 44.6602L57.9023 44.6543L57.791 45.293C58.248 44.7773 58.7871 44.5273 59.4082 44.543C60.0293 44.5586 60.5117 44.7852 60.8555 45.2227C61.1992 45.6562 61.3828 46.2461 61.4062 46.9922C61.4141 47.2344 61.4023 47.5195 61.3711 47.8477ZM59.7305 47.7246L59.7656 47.1621C59.7734 46.7832 59.7031 46.4824 59.5547 46.2598C59.4102 46.0371 59.1973 45.9219 58.916 45.9141C58.4355 45.8984 58.0391 46.1016 57.7266 46.5234L57.252 49.1367C57.3965 49.5312 57.707 49.7363 58.1836 49.752C58.582 49.7637 58.9141 49.6094 59.1797 49.2891C59.4453 48.9688 59.6289 48.4473 59.7305 47.7246ZM63.6387 51H61.9746L63.5391 42H65.1973L63.6387 51ZM68.0566 51.1172C67.502 51.1133 67.0098 50.9785 66.5801 50.7129C66.1543 50.4434 65.8359 50.0762 65.625 49.6113C65.4141 49.1426 65.332 48.627 65.3789 48.0645L65.3965 47.8301C65.4551 47.2129 65.6348 46.6465 65.9355 46.1309C66.2363 45.6152 66.623 45.2188 67.0957 44.9414C67.5684 44.6602 68.0918 44.5273 68.666 44.543C69.4824 44.5586 70.0996 44.8594 70.5176 45.4453C70.9395 46.0273 71.0996 46.7656 70.998 47.6602L70.9043 48.3809H67.0195C67.0039 48.791 67.1035 49.1191 67.3184 49.3652C67.5332 49.6113 67.8262 49.7383 68.1973 49.7461C68.7988 49.7617 69.3262 49.5293 69.7793 49.0488L70.5352 49.9863C70.2969 50.3457 69.9531 50.627 69.5039 50.8301C69.0547 51.0293 68.5723 51.125 68.0566 51.1172ZM68.584 45.9082C68.2793 45.9004 68.0078 45.9961 67.7695 46.1953C67.5352 46.3945 67.3242 46.7402 67.1367 47.2324H69.4102L69.4453 47.0801C69.4688 46.9238 69.4707 46.7754 69.4512 46.6348C69.4121 46.4082 69.3164 46.2324 69.1641 46.1074C69.0117 45.9785 68.8184 45.9121 68.584 45.9082ZM75.0703 49.2129C75.1328 48.9004 74.916 48.6738 74.4199 48.5332L73.8867 48.3984C72.625 48.0508 72.0117 47.4375 72.0469 46.5586C72.0664 45.9609 72.3301 45.4746 72.8379 45.0996C73.3496 44.7207 73.9648 44.5352 74.6836 44.543C75.3984 44.5508 75.9766 44.7402 76.418 45.1113C76.8594 45.4824 77.084 45.9766 77.0918 46.5938L75.4512 46.5879C75.459 46.0449 75.1895 45.7695 74.6426 45.7617C74.3848 45.7617 74.1602 45.8262 73.9688 45.9551C73.7812 46.084 73.666 46.2578 73.623 46.4766C73.5645 46.7891 73.8008 47.0098 74.332 47.1387L74.5664 47.1914C75.1055 47.3203 75.5176 47.4688 75.8027 47.6367C76.0879 47.8008 76.3066 48.0059 76.459 48.252C76.6152 48.498 76.6875 48.793 76.6758 49.1367C76.6641 49.5391 76.5332 49.8906 76.2832 50.1914C76.0371 50.4922 75.6973 50.7246 75.2637 50.8887C74.834 51.0527 74.3809 51.1289 73.9043 51.1172C73.2012 51.1094 72.6152 50.9082 72.1465 50.5137C71.6777 50.1152 71.4395 49.6016 71.4316 48.9727L72.9902 48.9844C73.0059 49.5898 73.3301 49.8965 73.9629 49.9043C74.2676 49.9043 74.5176 49.8418 74.7129 49.7168C74.9121 49.5918 75.0312 49.4238 75.0703 49.2129ZM80.9941 47.666C80.9941 48.5488 80.8672 49.3984 80.6133 50.2148C80.3594 51.0312 79.9941 51.752 79.5176 52.377C79.041 53.002 78.5312 53.4316 77.9883 53.666L77.6602 52.7695C78.2148 52.3516 78.6523 51.707 78.9727 50.8359C79.293 49.9648 79.459 48.9629 79.4707 47.8301V47.5195C79.4707 46.3516 79.3105 45.3223 78.9902 44.4316C78.6738 43.541 78.2305 42.873 77.6602 42.4277L77.9883 41.5312C78.5195 41.7617 79.0195 42.1797 79.4883 42.7852C79.9609 43.3906 80.3262 44.0957 80.584 44.9004C80.8457 45.7051 80.9824 46.5391 80.9941 47.4023V47.666Z" fill="black"/>
</svg>
